<?xml version="1.0" encoding="utf-8"?>
<!-- Generator: Adobe Illustrator 21.1.0, SVG Export Plug-In . SVG Version: 6.00 Build 0)  -->
<svg version="1.1" id="Layer_1" xmlns="http://www.w3.org/2000/svg" xmlns:xlink="http://www.w3.org/1999/xlink" x="0px" y="0px"
	 viewBox="0 0 288 560" style="enable-background:new 0 0 288 560;" xml:space="preserve">
<style type="text/css">
	.st0{fill:#9BBBE2;stroke:#9BBBE2;stroke-miterlimit:10;}
	.st1{fill:#999999;stroke:#999999;stroke-miterlimit:10;}
	.st2{fill:#F2F2F2;}
	.st3{fill:#FFFFFF;stroke:#FFFFFF;stroke-miterlimit:10;}
	.st4{fill:#FFFFFF;}
	.st5{fill:#666666;stroke:#666666;stroke-miterlimit:10;}
	.st6{fill:#E6E6E6;}
	.st7{fill:#F2F2F2;stroke:#F2F2F2;stroke-miterlimit:10;}
	.st8{fill:#898599;stroke:#898599;stroke-miterlimit:10;}
	.st9{fill:#CCCCCC;}
	.st10{fill:none;stroke:#808080;stroke-width:5;stroke-miterlimit:10;}
	.st11{opacity:0.33;fill:#FFFFFF;stroke:#FFFFFF;stroke-linecap:round;stroke-miterlimit:10;enable-background:new    ;}
	.st12{fill:#FE7A5C;}
</style>
<g id="Static">
	<path class="st0" d="M145.5,294.9L145.5,294.9C66.7,294.9,2.7,231,2.7,152.2v-4.5c0-78.8,64-142.8,142.8-142.8l0,0
		c78.8,0,142.7,63.9,142.7,142.7v4.5C288.2,231,224.3,294.9,145.5,294.9z"/>
	<rect x="120.7" y="182.1" class="st1" width="54" height="73.5"/>
	<g>
		<g>
			<path class="st2" d="M153.5,211.8c-3.2-2-6.3-4-9.5-6c-1.6-1-3.1,1.6-1.5,2.6c3.2,2,6.3,4,9.5,6
				C153.6,215.4,155.1,212.8,153.5,211.8L153.5,211.8z"/>
		</g>
	</g>
	<path class="st3" d="M148,222.5L148,222.5c-13.6,0-24.7-11.1-24.7-24.7v-12.4c0-13.6,11.1-24.7,24.7-24.7l0,0
		c13.6,0,24.7,11.1,24.7,24.7v12.4C172.7,211.4,161.6,222.5,148,222.5z"/>
	<g>
		<g>
			<path class="st4" d="M142.2,163.6c1.9,0,1.9-3,0-3S140.3,163.6,142.2,163.6L142.2,163.6z"/>
		</g>
	</g>
	<g>
		<g>
			<path class="st4" d="M140.9,163.8c-3.5,5.7-3.8,12.1-3,18.6c0.6,4.8,2.5,8.6-1.2,12.6c-1,1.1-2.1,1.6-2.5,3.2
				c-0.4,1.9,0.7,2.8,1.6,4.2c1.3,0.7,1.8,1.9,1.5,3.5c-0.1,0.2-0.2,0.4-0.2,0.6c0.2,0.8,0.1,1.2,0.7,2c2.8,3.6,12.4,2,16.2,1.3
				c1.9-0.3,1.1-3.2-0.8-2.9c-1.8,0.3-11.2,1.7-12.4-0.1c-0.5-0.7,0.3-2,0.1-2.8c-0.3-1.5-1.7-2-2.4-3.2c-1.7-2.9,0.9-3.5,2.4-5.2
				c2.4-2.9,1.1-6.5,0.6-9.8c-1.1-7-1.8-14,2-20.4C144.4,163.7,141.9,162.2,140.9,163.8L140.9,163.8z"/>
		</g>
	</g>
	<g>
		<g>
			<path class="st4" d="M144.4,174.6c-0.3-4.1,1.3-8.1,4.6-10.7c1.5-1.2,0-3.8-1.5-2.6c-4.2,3.2-6.5,8-6.1,13.3
				C141.5,176.5,144.5,176.5,144.4,174.6L144.4,174.6z"/>
		</g>
	</g>
	<g>
		<g>
			<path class="st4" d="M142.5,167.4c-2.8,5.4-3.5,11.2-2.3,17.1c0.4,1.9,3.3,1.1,2.9-0.8c-1-5.1-0.3-10.2,2-14.8
				C146,167.2,143.4,165.7,142.5,167.4L142.5,167.4z"/>
		</g>
	</g>
	<g>
		<g>
			<path class="st4" d="M-8.3,35.1c1.9,0,1.9-3,0-3S-10.2,35.1-8.3,35.1L-8.3,35.1z"/>
		</g>
	</g>
	<path class="st5" d="M168.6,296.6h-40.5c-13,0-23.5-10.5-23.5-23.5v-18.5c0-13,10.5-23.5,23.5-23.5h40.5c13,0,23.5,10.5,23.5,23.5
		v18.5C192.1,286.1,181.6,296.6,168.6,296.6z"/>
	<rect x="120.7" y="162.6" class="st1" width="54" height="19.5"/>
	<path class="st1" d="M163.2,153.1h-31c-6.4,0-11.5,5.1-11.5,11.5l0,0c0,6.4,5.1,11.5,11.5,11.5h31c6.4,0,11.5-5.1,11.5-11.5l0,0
		C174.7,158.2,169.6,153.1,163.2,153.1z"/>
	<path class="st3" d="M148.4,242.4L148.4,242.4c-4,0-7.3-3.3-7.3-7.3v-12.4c0-4,3.3-7.3,7.3-7.3l0,0c4,0,7.3,3.3,7.3,7.3v12.4
		C155.7,239.2,152.4,242.4,148.4,242.4z"/>
	<g>
		<path class="st2" d="M141,185.2c0.7,5.1,0.4,10.4-1.1,15.4c-0.2,0.6-0.4,1.2-0.2,1.8c0.1,0.7,0.7,1.3,1.2,1.8
			c1.9,1.8,3.9,3.4,6,4.9c0.4,0.3,0.9,0.6,1.1,1.1c0.3,0.7-0.1,1.4-0.3,2.2c-0.3,1.1-0.1,2.2,0.1,3.3c1.1,8.1,1.4,16.3,0.7,24.4"/>
		<g>
			<path class="st2" d="M139.5,185.2c0.3,2.6,0.5,5.1,0.3,7.7c-0.2,2.8-1.7,6.2-1.5,9c0.2,3,3.3,4.5,5.3,6.4c3.6,3.4,3.1,9,3.5,13.9
				c0.5,6,0.4,11.9,0,17.9c-0.1,1.9,2.9,1.9,3,0c0.4-6,0.5-11.9,0-17.9c-0.2-2.7-1-5.5-0.9-8.2c0-1.5,0.9-3.1,0.2-4.6
				c-1.6-3.5-7.8-4-7.9-8.4c-0.1-2.2,1.1-4.9,1.3-7.2c0.3-2.9,0.1-5.7-0.2-8.6C142.3,183.3,139.3,183.3,139.5,185.2L139.5,185.2z"/>
		</g>
	</g>
	<g>
		<g>
			<path class="st6" d="M148,243.1c1.9,0,1.9-3,0-3C146.1,240.1,146.1,243.1,148,243.1L148,243.1z"/>
		</g>
	</g>
	<g>
		<g>
			<path class="st2" d="M140.2,185.4c1.9,0,1.9-3,0-3S138.3,185.4,140.2,185.4L140.2,185.4z"/>
		</g>
	</g>
	<rect x="124.2" y="182.9" class="st7" width="16" height="20.4"/>
	<path class="st7" d="M141.2,220.3h-2.1c-3.7,0-6.6-3-6.6-6.6l0,0c0-3.7,3-6.6,6.6-6.6h2.1c3.7,0,6.6,3,6.6,6.6l0,0
		C147.9,217.4,144.9,220.3,141.2,220.3z"/>
	<path class="st7" d="M132.9,210h-2.1c-3.7,0-6.6-3-6.6-6.6l0,0c0-3.7,3-6.6,6.6-6.6h2.1c3.7,0,6.6,3,6.6,6.6l0,0
		C139.5,207,136.6,210,132.9,210z"/>
	<path class="st7" d="M134.6,210h-2.3c-3.7,0-6.6-3-6.6-6.6v-2.9c0-3.7,3-6.6,6.6-6.6h2.3c3.7,0,6.6,3,6.6,6.6v2.9
		C141.2,207,138.3,210,134.6,210z"/>
	<path class="st7" d="M135.8,215.5h-2.1c-3.7,0-6.6-3-6.6-6.6l0,0c0-3.7,3-6.6,6.6-6.6h2.1c3.7,0,6.6,3,6.6,6.6l0,0
		C142.4,212.6,139.4,215.5,135.8,215.5z"/>
	<rect x="141.2" y="217.6" class="st7" width="6.5" height="19.2"/>
	<path class="st7" d="M147.7,242.1L147.7,242.1c-3.7,0-6.6-3-6.6-6.6l0,0c0-3.7,3-6.6,6.6-6.6l0,0c3.7,0,6.6,3,6.6,6.6l0,0
		C154.3,239.2,151.4,242.1,147.7,242.1z"/>
	<path class="st8" d="M124.5,182.1h12.7c2.1,0,3.8-1.7,3.8-3.8v-16c0-2.1-1.7-3.8-3.8-3.8h-12.7c-2.1,0-3.8,1.7-3.8,3.8v16
		C120.7,180.4,122.4,182.1,124.5,182.1z"/>
	<path class="st8" d="M131.9,176.4h0.5c4.9,0,8.9-4,8.9-8.9v-5.9c0-4.9-4-8.9-8.9-8.9h-0.5c-4.9,0-8.9,4-8.9,8.9v5.9
		C123,172.4,127,176.4,131.9,176.4z"/>
	<g>
		<g>
			<path class="st9" d="M79.7,390.1c1.9,0,1.9-3,0-3S77.8,390.1,79.7,390.1L79.7,390.1z"/>
		</g>
	</g>
	<path class="st10" d="M145.5,300.6L145.5,300.6C66,300.6,1.6,236.2,1.6,156.7V150C1.6,70.5,66,6.1,145.5,6.1l0,0
		C225,6.1,289.4,70.5,289.4,150v6.7C289.4,236.2,225,300.6,145.5,300.6z"/>
</g>
<g id="Layer_4">
	<path class="st11" d="M223.4,31.7l8,8c6.7,6.7,6.7,17.5,0,24.1L58.7,236.6c-6.7,6.7-17.5,6.7-24.1,0l-8-8c-6.7-6.7-6.7-17.5,0-24.1
		L199.4,31.7C205.9,25,216.7,25,223.4,31.7z"/>
	<path class="st11" d="M269.2,85.6L269.2,85.6c3.2,3.2,3.2,8.5,0,11.7L87.9,278.6c-3.2,3.2-8.5,3.2-11.7,0l0,0
		c-3.2-3.2-3.2-8.5,0-11.7L257.5,85.6C260.7,82.3,266,82.3,269.2,85.6z"/>
</g>
<g id="Fish1">
	<g>
		<path class="st12" d="M195.2,266.5l-0.5,0.3l8.1,3.7l-1.2-8.1l-6.2,3.9v0.1h-0.2V266.5z"/>
		<g>
			<path class="st12" d="M195.2,266.5h0.2v-0.1c-0.2-2.3-6.6-4.1-14.3-4.1c-7.9,0-14.3,1.9-14.3,4.2c0,2.3,6.5,4.2,14.3,4.2
				c6.5,0,12.3-1.3,13.9-3.2l-13.9-1H195.2z"/>
			<path class="st12" d="M195.2,266.5h0.2l0,0c0-0.7-0.5-1.2-1-1.5c-0.5-0.4-1.1-0.6-1.7-0.9c-1.2-0.5-2.4-0.8-3.7-1
				c-2.5-0.5-5.1-0.7-7.6-0.6c-2.6,0-5.1,0.2-7.6,0.7c-1.2,0.2-2.5,0.5-3.7,1c-0.6,0.2-1.2,0.5-1.7,0.8s-1,0.7-1.2,1.2
				c-0.2,0.4,0,0.9,0.4,1.3s0.9,0.7,1.5,0.9c1.1,0.5,2.3,0.8,3.6,1.1c2.5,0.5,5,0.7,7.5,0.8c2.5,0.1,5.1-0.1,7.6-0.4
				c1.2-0.2,2.5-0.5,3.7-0.8c1.2-0.4,2.4-0.8,3.2-1.6l0.2,0.6l-13.9-1.3v-0.2c2.4,0.1,4.7,0,7.1,0.1L195.2,266.5z M195.2,266.5h-7.1
				c-2.4,0-4.7,0-7.1,0.1v-0.2l13.9,0.8h0.7l-0.5,0.5c-1,1.1-2.3,1.5-3.5,2c-1.2,0.4-2.5,0.7-3.8,0.9c-2.6,0.4-5.1,0.6-7.7,0.5
				c-2.6,0-5.2-0.3-7.7-0.9c-1.3-0.3-2.5-0.6-3.7-1.2c-0.6-0.3-1.2-0.6-1.7-1.1c-0.1-0.1-0.2-0.3-0.4-0.4c-0.1-0.2-0.2-0.3-0.3-0.5
				c-0.1-0.4-0.1-0.9,0.1-1.2c0.4-0.7,1-1.1,1.5-1.5c0.6-0.3,1.2-0.6,1.8-0.8c1.2-0.4,2.5-0.7,3.8-0.9c2.5-0.4,5.1-0.5,7.7-0.5
				c2.6,0.1,5.1,0.3,7.6,0.8c1.3,0.3,2.5,0.6,3.7,1.1c0.6,0.3,1.2,0.5,1.7,0.9S195.2,265.7,195.2,266.5L195.2,266.5L195.2,266.5z"/>
		</g>
	</g>
	<g>
		<path class="st12" d="M134.1,108.9l-0.9,0.6l14.8,6.8l-2.1-14.8l-11.4,7.2c0,0.1,0,0.1,0,0.2H134.1z"/>
		<g>
			<path class="st12" d="M134.1,108.9h0.3c0-0.1,0-0.1,0-0.2c-0.4-4.1-12-7.5-26.1-7.5c-14.4,0-26.2,3.5-26.2,7.7s11.8,7.7,26.2,7.7
				c11.9,0,22.4-2.4,25.4-5.8l-25.4-1.9H134.1z"/>
			<path class="st12" d="M134.1,108.9h0.3l0,0c0-1.2-1-2.1-1.9-2.8c-1-0.7-2-1.2-3.1-1.6c-2.2-0.9-4.4-1.4-6.7-1.9
				c-4.6-0.9-9.3-1.2-13.9-1.2c-4.7,0-9.3,0.4-13.9,1.2c-2.3,0.4-4.6,1-6.7,1.8c-1.1,0.4-2.1,0.9-3.1,1.4c-1,0.6-1.9,1.3-2.3,2.2
				c-0.5,0.9,0,2,0.8,2.7c0.8,0.8,1.8,1.3,2.8,1.8c2.1,0.9,4.3,1.6,6.6,2.1c4.5,1,9.2,1.3,13.8,1.4c4.6,0.1,9.3-0.2,13.9-0.9
				c2.3-0.4,4.6-0.8,6.8-1.5c1.1-0.4,2.2-0.7,3.2-1.2s2-1.1,2.8-1.9l0.2,0.6l-25.3-2.1v-0.2L134.1,108.9z M134.1,108.9l-25.8,0.1
				v-0.2l25.4,1.7h0.7l-0.5,0.5c-0.8,1-1.9,1.6-2.9,2.1c-1.1,0.6-2.2,1-3.3,1.3c-2.3,0.7-4.6,1.2-6.9,1.6c-4.7,0.7-9.4,1-14.1,1
				c-4.7-0.1-9.4-0.5-14-1.5c-2.3-0.5-4.6-1.2-6.8-2.2c-1.1-0.5-2.1-1.1-3-2c-0.4-0.4-0.8-1-1-1.6s-0.1-1.4,0.2-2
				c0.6-1.2,1.6-1.9,2.7-2.5c1-0.6,2.1-1.1,3.3-1.4c2.2-0.8,4.5-1.3,6.9-1.7c4.6-0.8,9.3-1,14-1c4.7,0.1,9.4,0.5,14,1.4
				c2.3,0.5,4.6,1.1,6.7,1.9c1.1,0.4,2.1,1,3.1,1.7c0.9,0.7,1.8,1.6,1.9,2.8l0,0L134.1,108.9z"/>
		</g>
	</g>
	<g>
		<path class="st12" d="M93.6,222.5l-0.9,0.6l14.8,6.8l-2.1-14.8L94,222.3c0,0.1,0,0.1,0,0.2L93.6,222.5L93.6,222.5z"/>
		<g>
			<path class="st12" d="M93.6,222.5h0.3c0-0.1,0-0.1,0-0.2c-0.4-4.1-12-7.5-26.1-7.5c-14.4,0-26.2,3.5-26.2,7.7s11.8,7.7,26.2,7.7
				c11.9,0,22.4-2.4,25.4-5.8l-25.5-1.9H93.6z"/>
			<path class="st12" d="M93.6,222.5h0.3l0,0c0-1.2-1-2.1-1.9-2.8c-1-0.7-2-1.2-3.1-1.6c-2.2-0.9-4.4-1.4-6.7-1.9
				c-4.6-0.9-9.3-1.2-13.9-1.2c-4.7,0-9.3,0.4-13.9,1.2c-2.3,0.4-4.6,1-6.7,1.8c-1.1,0.4-2.1,0.9-3.1,1.4c-1,0.6-1.9,1.3-2.3,2.2
				c-0.5,0.9,0,2,0.8,2.7c0.8,0.8,1.8,1.3,2.8,1.8c2.1,0.9,4.3,1.6,6.6,2.1c4.5,1,9.2,1.3,13.8,1.4s9.3-0.2,13.9-0.9
				c2.3-0.4,4.6-0.8,6.8-1.5c1.1-0.4,2.2-0.7,3.2-1.2s2-1.1,2.8-1.9l0.2,0.6l-25.5-2.1v-0.2L93.6,222.5z M93.6,222.5l-25.9,0.1v-0.2
				l25.4,1.7h0.7l-0.5,0.5c-0.8,1-1.9,1.6-2.9,2.1c-1.1,0.6-2.2,1-3.3,1.3c-2.3,0.7-4.6,1.2-6.9,1.6c-4.7,0.7-9.4,1-14.1,1
				c-4.7-0.1-9.4-0.5-14-1.5c-2.3-0.5-4.6-1.2-6.8-2.2c-1.1-0.5-2.1-1.1-3-2c-0.4-0.4-0.8-1-1-1.6s-0.1-1.4,0.2-2
				c0.6-1.2,1.6-1.9,2.7-2.5c1-0.6,2.1-1.1,3.3-1.4c2.2-0.8,4.5-1.3,6.9-1.7c4.6-0.8,9.3-1,14-1c4.7,0.1,9.4,0.5,14,1.4
				c2.3,0.5,4.6,1.1,6.7,1.9c1.1,0.4,2.1,1,3.1,1.7c0.9,0.7,1.8,1.6,1.9,2.8l0,0L93.6,222.5z"/>
		</g>
	</g>
	<g>
		<path class="st12" d="M226.7,251.6l-0.5,0.3l8.1,3.7l-1.2-8.1l-6.2,3.9v0.1h-0.2V251.6z"/>
		<g>
			<path class="st12" d="M226.7,251.6h0.2v-0.1c-0.2-2.3-6.6-4.1-14.3-4.1c-7.9,0-14.3,1.9-14.3,4.2c0,2.3,6.5,4.2,14.3,4.2
				c6.5,0,12.3-1.3,13.9-3.2l-13.9-1H226.7z"/>
			<path class="st12" d="M226.7,251.6h0.2l0,0c0-0.7-0.5-1.2-1-1.5c-0.5-0.4-1.1-0.6-1.7-0.9c-1.2-0.5-2.4-0.8-3.7-1
				c-2.5-0.5-5.1-0.7-7.6-0.6c-2.6,0-5.1,0.2-7.6,0.7c-1.2,0.2-2.5,0.5-3.7,1c-0.6,0.2-1.2,0.5-1.7,0.8s-1,0.7-1.2,1.2
				c-0.2,0.4,0,0.9,0.4,1.3s0.9,0.7,1.5,0.9c1.1,0.5,2.3,0.8,3.6,1.1c2.5,0.5,5,0.7,7.5,0.8c2.5,0.1,5.1-0.1,7.6-0.4
				c1.2-0.2,2.5-0.5,3.7-0.8c1.2-0.4,2.4-0.8,3.2-1.6l0.2,0.6l-13.9-1.3v-0.2c2.4,0.1,4.7,0,7.1,0.1L226.7,251.6z M226.7,251.6h-7.1
				c-2.4,0-4.7,0-7.1,0.1v-0.2l13.9,0.8h0.7l-0.5,0.5c-1,1.1-2.3,1.5-3.5,2c-1.2,0.4-2.5,0.7-3.8,0.9c-2.6,0.4-5.1,0.6-7.7,0.5
				c-2.6,0-5.2-0.3-7.7-0.9c-1.3-0.3-2.5-0.6-3.7-1.2c-0.6-0.3-1.2-0.6-1.7-1.1c-0.1-0.1-0.2-0.3-0.4-0.4c-0.1-0.2-0.2-0.3-0.3-0.5
				c-0.1-0.4-0.1-0.9,0.1-1.2c0.4-0.7,1-1.1,1.5-1.5c0.6-0.3,1.2-0.6,1.8-0.8c1.2-0.4,2.5-0.7,3.8-0.9c2.5-0.4,5.1-0.5,7.7-0.5
				c2.6,0.1,5.1,0.3,7.6,0.8c1.3,0.3,2.5,0.6,3.7,1.1c0.6,0.3,1.2,0.5,1.7,0.9S226.7,250.8,226.7,251.6L226.7,251.6L226.7,251.6z"/>
		</g>
	</g>
	<g>
		<path class="st12" d="M154.9,255.5l-0.5,0.3l8.1,3.7l-1.2-8.1l-6.2,3.9v0.1h-0.2V255.5z"/>
		<g>
			<path class="st12" d="M154.9,255.5h0.2v-0.1c-0.2-2.3-6.6-4.1-14.3-4.1c-7.9,0-14.3,1.9-14.3,4.2s6.5,4.2,14.3,4.2
				c6.5,0,12.3-1.3,13.9-3.2l-13.9-1H154.9z"/>
			<path class="st12" d="M154.9,255.5h0.2l0,0c0-0.7-0.5-1.2-1-1.5c-0.5-0.4-1.1-0.6-1.7-0.9c-1.2-0.5-2.4-0.8-3.7-1
				c-2.5-0.5-5.1-0.7-7.6-0.6c-2.6,0-5.1,0.2-7.6,0.7c-1.2,0.2-2.5,0.5-3.7,1c-0.6,0.2-1.2,0.5-1.7,0.8c-0.5,0.3-1,0.7-1.2,1.2
				c-0.2,0.4,0,0.9,0.4,1.3s0.9,0.7,1.5,0.9c1.1,0.5,2.3,0.8,3.6,1.1c2.5,0.5,5,0.7,7.5,0.8c2.5,0.1,5.1-0.1,7.6-0.4
				c1.2-0.2,2.5-0.5,3.7-0.8c1.2-0.4,2.4-0.8,3.2-1.6l0.2,0.6l-13.9-1.3v-0.2c2.4,0.1,4.7,0,7.1,0.1L154.9,255.5z M154.9,255.5h-7.1
				c-2.4,0-4.7,0-7.1,0.1v-0.2l13.9,0.8h0.7l-0.5,0.5c-1,1.1-2.3,1.5-3.5,2c-1.2,0.4-2.5,0.7-3.8,0.9c-2.6,0.4-5.1,0.6-7.7,0.5
				c-2.6,0-5.2-0.3-7.7-0.9c-1.3-0.3-2.5-0.6-3.7-1.2c-0.6-0.3-1.2-0.6-1.7-1.1c-0.1-0.1-0.2-0.3-0.4-0.4c-0.1-0.2-0.2-0.3-0.3-0.5
				c-0.1-0.4-0.1-0.9,0.1-1.2c0.4-0.7,1-1.1,1.5-1.5c0.6-0.3,1.2-0.6,1.8-0.8c1.2-0.4,2.5-0.7,3.8-0.9c2.5-0.4,5.1-0.5,7.7-0.5
				c2.6,0.1,5.1,0.3,7.6,0.8c1.3,0.3,2.5,0.6,3.7,1.1c0.6,0.3,1.2,0.5,1.7,0.9S154.9,254.7,154.9,255.5L154.9,255.5L154.9,255.5z"/>
		</g>
	</g>
	<g>
		<path class="st12" d="M159.1,277.7l-0.3,0.2l4.9,2.1l-0.7-4.6L159.1,277.7C159.2,277.6,159.2,277.6,159.1,277.7L159.1,277.7
			L159.1,277.7z"/>
		<g>
			<path class="st12" d="M159.1,277.7h0.1c0,0,0,0,0-0.1c-0.1-1.3-4-2.3-8.8-2.3s-8.8,1.1-8.8,2.4s4,2.4,8.8,2.4
				c4,0,7.5-0.7,8.5-1.8l-8.5-0.6H159.1z"/>
			<path class="st12" d="M159.1,277.7h0.1l0,0c0-0.4-0.4-0.7-0.7-0.9c-0.3-0.2-0.7-0.4-1-0.5c-0.7-0.3-1.5-0.4-2.3-0.6
				c-1.5-0.2-3.1-0.3-4.6-0.3s-3.1,0.2-4.6,0.5c-0.8,0.1-1.5,0.3-2.2,0.6c-0.4,0.1-0.7,0.3-1,0.5s-0.6,0.4-0.7,0.6
				c-0.2,0.3,0.5,0.8,1.1,1c0.7,0.3,1.4,0.4,2.2,0.6c1.5,0.3,3,0.4,4.5,0.4s3.1,0,4.6-0.2c0.8-0.1,1.5-0.2,2.2-0.4
				c0.7-0.2,1.5-0.4,1.9-0.9l0.2,0.6l-8.5-0.8v-0.2C153.3,277.7,156.2,277.7,159.1,277.7z M159.1,277.7c-2.9,0-5.8,0-8.7,0.1v-0.2
				l8.5,0.4h0.8l-0.5,0.6c-0.7,0.7-1.4,0.9-2.2,1.2c-0.8,0.2-1.5,0.4-2.3,0.5c-1.6,0.3-3.1,0.3-4.7,0.3c-1.6,0-3.2-0.2-4.7-0.5
				c-0.8-0.2-1.6-0.4-2.3-0.7c-0.4-0.2-0.8-0.4-1.1-0.7c-0.2-0.2-0.3-0.4-0.5-0.6c-0.1-0.3-0.1-0.6,0.1-0.9c0.3-0.5,0.7-0.7,1-0.9
				c0.4-0.2,0.8-0.3,1.1-0.4c0.8-0.2,1.5-0.4,2.3-0.5c1.6-0.2,3.1-0.3,4.7-0.2c1.6,0.1,3.1,0.2,4.6,0.5c0.8,0.2,1.5,0.3,2.3,0.6
				c0.4,0.1,0.7,0.3,1,0.5s0.6,0.5,0.7,0.9l0,0L159.1,277.7z"/>
		</g>
	</g>
	<g>
		<path class="st12" d="M51.8,162.1l-0.5,0.3l8.1,3.7l-1.2-8.1l-6.2,3.9v0.1h-0.2V162.1z"/>
		<g>
			<path class="st12" d="M51.8,162.1H52V162c-0.2-2.3-6.6-4.1-14.3-4.1c-7.9,0-14.3,1.9-14.3,4.2c0,2.3,6.5,4.2,14.3,4.2
				c6.5,0,12.3-1.3,13.9-3.2l-13.9-1H51.8L51.8,162.1z"/>
			<path class="st12" d="M51.8,162.1H52l0,0c0-0.7-0.5-1.2-1-1.5c-0.5-0.4-1.1-0.6-1.7-0.9c-1.2-0.5-2.4-0.8-3.7-1
				c-2.5-0.5-5.1-0.7-7.6-0.6c-2.6,0-5.1,0.2-7.6,0.7c-1.2,0.2-2.5,0.5-3.7,1c-0.6,0.2-1.2,0.5-1.7,0.8c-0.5,0.3-1,0.7-1.2,1.2
				c-0.2,0.4,0,0.9,0.4,1.3s0.9,0.7,1.5,0.9c1.1,0.5,2.3,0.8,3.6,1.1c2.5,0.5,5,0.7,7.5,0.8s5.1-0.1,7.6-0.4
				c1.2-0.2,2.5-0.5,3.7-0.8c1.2-0.4,2.4-0.8,3.2-1.6l0.2,0.6l-13.9-1.3v-0.2c2.4,0.1,4.7,0,7.1,0.1L51.8,162.1z M51.8,162.1h-7.1
				c-2.4,0-4.7,0-7.1,0.1V162l13.9,0.8h0.7l-0.5,0.5c-1,1.1-2.3,1.5-3.5,2c-1.2,0.4-2.5,0.7-3.8,0.9c-2.6,0.4-5.1,0.6-7.7,0.5
				c-2.6,0-5.2-0.3-7.7-0.9c-1.3-0.3-2.5-0.6-3.7-1.2c-0.6-0.3-1.2-0.6-1.7-1.1c-0.1-0.1-0.2-0.3-0.4-0.4c-0.1-0.2-0.2-0.3-0.3-0.5
				c-0.1-0.4-0.1-0.9,0.1-1.2c0.4-0.7,1-1.1,1.5-1.5c0.6-0.3,1.2-0.6,1.8-0.8c1.2-0.4,2.5-0.7,3.8-0.9c2.5-0.4,5.1-0.5,7.7-0.5
				c2.6,0.1,5.1,0.3,7.6,0.8c1.3,0.3,2.5,0.6,3.7,1.1c0.6,0.3,1.2,0.5,1.7,0.9S51.8,161.4,51.8,162.1L51.8,162.1L51.8,162.1z"/>
		</g>
	</g>
	<g>
		<path class="st12" d="M22.1,172.1l-0.4,0.2l6.3,2.3l-0.9-5.1l-4.9,2.5c0,0,0,0,0,0.1H22.1z"/>
		<g>
			<path class="st12" d="M22.1,172.1h0.1c0,0,0,0,0-0.1c-0.2-1.4-5.2-2.5-11.2-2.5c-6.2,0-11.2,1.2-11.2,2.6s5.1,2.6,11.2,2.6
				c5.1,0,9.6-0.8,10.9-2L11,172.1H22.1z"/>
			<path class="st12" d="M22.1,172.1h0.1l0,0c-0.1-0.5-0.5-0.8-1-1c-0.4-0.2-0.9-0.4-1.4-0.5c-0.9-0.3-1.9-0.5-2.9-0.6
				c-1.9-0.3-3.9-0.4-5.8-0.3c-2,0-3.9,0.2-5.8,0.5c-1,0.2-1.9,0.3-2.8,0.6c-0.5,0.1-0.9,0.3-1.3,0.5s-0.8,0.5-1,0.7
				c-0.1,0.1,0,0.1-0.1,0.2c0,0,0,0.1,0.1,0.1c0.1,0.1,0.2,0.3,0.4,0.4c0.3,0.2,0.8,0.4,1.2,0.6c0.9,0.3,1.8,0.5,2.8,0.6
				c1.9,0.3,3.8,0.4,5.8,0.4c1.9,0,3.9,0,5.8-0.3c1-0.1,1.9-0.3,2.8-0.5s1.9-0.5,2.5-1l0.2,0.6l-10.9-0.9V172
				C14.8,172.1,18.5,172.1,22.1,172.1z M22.1,172.1c-3.7,0-7.4,0-11.1,0.1V172l10.9,0.4h0.9l-0.6,0.6c-0.4,0.4-0.9,0.6-1.4,0.8
				c-0.5,0.2-1,0.3-1.4,0.5c-1,0.3-2,0.4-2.9,0.6c-2,0.3-3.9,0.4-5.9,0.4s-4-0.2-5.9-0.5c-1-0.2-2-0.4-2.9-0.7
				c-0.5-0.2-1-0.4-1.4-0.7c-0.2-0.2-0.5-0.3-0.6-0.7c-0.1-0.1-0.1-0.4-0.1-0.5c0-0.2,0.1-0.4,0.2-0.5c0.4-0.6,0.9-0.8,1.4-1
				s1-0.3,1.4-0.5c1-0.2,1.9-0.4,2.9-0.5c2-0.2,3.9-0.3,5.9-0.2c2,0.1,3.9,0.2,5.9,0.5c1,0.2,1.9,0.4,2.9,0.6
				c0.5,0.1,0.9,0.3,1.4,0.5c0.4,0.2,0.9,0.5,0.9,1.1l0,0L22.1,172.1z"/>
		</g>
	</g>
	<g>
		<path class="st12" d="M272.8,201.9l-0.5,0.3l8.1,3.7l-1.2-8.1l-6.2,3.9v0.1h-0.2V201.9z"/>
		<g>
			<path class="st12" d="M272.8,201.9h0.2v-0.1c-0.2-2.3-6.6-4.1-14.3-4.1c-7.9,0-14.3,1.9-14.3,4.2s6.5,4.2,14.3,4.2
				c6.5,0,12.3-1.3,13.9-3.2l-13.9-1H272.8z"/>
			<path class="st12" d="M272.8,201.9h0.2l0,0c0-0.7-0.5-1.2-1-1.5c-0.5-0.4-1.1-0.6-1.7-0.9c-1.2-0.5-2.4-0.8-3.7-1
				c-2.5-0.5-5.1-0.7-7.6-0.6c-2.6,0-5.1,0.2-7.6,0.7c-1.2,0.2-2.5,0.5-3.7,1c-0.6,0.2-1.2,0.5-1.7,0.8s-1,0.7-1.2,1.2
				c-0.2,0.4,0,0.9,0.4,1.3s0.9,0.7,1.5,0.9c1.1,0.5,2.3,0.8,3.6,1.1c2.5,0.5,5,0.7,7.5,0.8c2.5,0.1,5.1-0.1,7.6-0.4
				c1.2-0.2,2.5-0.5,3.7-0.8c1.2-0.4,2.4-0.8,3.2-1.6l0.2,0.6l-13.9-1.3V202c2.4,0.1,4.7,0,7.1,0.1L272.8,201.9z M272.8,201.9h-7.1
				c-2.4,0-4.7,0-7.1,0.1v-0.2l13.9,0.8h0.7l-0.5,0.5c-1,1.1-2.3,1.5-3.5,2c-1.2,0.4-2.5,0.7-3.8,0.9c-2.6,0.4-5.1,0.6-7.7,0.5
				c-2.6,0-5.2-0.3-7.7-0.9c-1.3-0.3-2.5-0.6-3.7-1.2c-0.6-0.3-1.2-0.6-1.7-1.1c-0.1-0.1-0.2-0.3-0.4-0.4c-0.1-0.2-0.2-0.3-0.3-0.5
				c-0.1-0.4-0.1-0.9,0.1-1.2c0.4-0.7,1-1.1,1.5-1.5c0.6-0.3,1.2-0.6,1.8-0.8c1.2-0.4,2.5-0.7,3.8-0.9c2.5-0.4,5.1-0.5,7.7-0.5
				c2.6,0.1,5.1,0.3,7.6,0.8c1.3,0.3,2.5,0.6,3.7,1.1c0.6,0.3,1.2,0.5,1.7,0.9S272.8,201.1,272.8,201.9L272.8,201.9L272.8,201.9z"/>
		</g>
	</g>
	<g>
		<path class="st12" d="M115.3,179.8l0.6,0.4l-9.4,4.3l1.4-9.4l7.3,4.6L115.3,179.8L115.3,179.8z"/>
		<g>
			<path class="st12" d="M115.3,179.8h-0.2v-0.1c0.2-2.6,7.7-4.7,16.7-4.7c9.2,0,16.7,2.2,16.7,4.9c0,2.7-7.5,4.9-16.7,4.9
				c-7.6,0-14.3-1.5-16.2-3.7l16.2-1.2L115.3,179.8L115.3,179.8z"/>
			<path class="st12" d="M115.3,179.8h-0.2l0,0c0-0.8,0.6-1.4,1.2-1.8s1.3-0.8,2-1.1c1.4-0.6,2.8-0.9,4.3-1.2
				c2.9-0.6,5.9-0.8,8.9-0.9s6,0.1,9,0.6c1.5,0.2,3,0.6,4.4,1c0.7,0.3,1.4,0.5,2.1,0.9c0.7,0.4,1.4,0.9,1.8,1.7
				c0.2,0.4,0.2,0.9,0.1,1.4c-0.1,0.2-0.2,0.4-0.3,0.6s-0.3,0.3-0.4,0.5c-0.6,0.6-1.3,1-2,1.3c-1.4,0.7-2.9,1.1-4.3,1.4
				c-3,0.6-6,1-9,1s-6-0.2-9-0.6c-1.5-0.2-3-0.6-4.4-1c-0.7-0.3-1.4-0.5-2.1-0.9s-1.4-0.8-1.9-1.4l-0.5-0.5h0.7l16.2-1v0.2
				C126.3,179.9,120.8,179.9,115.3,179.8z M115.3,179.8c5.5,0,11,0,16.5-0.1v0.2l-16.2,1.4l0.2-0.6c1,1,2.4,1.5,3.8,1.9
				s2.9,0.7,4.3,0.9c2.9,0.4,5.9,0.6,8.8,0.5c3-0.1,5.9-0.3,8.8-0.9c1.4-0.3,2.9-0.7,4.2-1.3c0.7-0.3,1.3-0.7,1.8-1.1s0.7-1,0.5-1.5
				s-0.8-1-1.4-1.4c-0.6-0.4-1.3-0.7-2-0.9c-1.4-0.5-2.8-0.9-4.3-1.1c-2.9-0.6-5.9-0.8-8.9-0.8s-6,0.2-8.9,0.7
				c-1.5,0.3-2.9,0.6-4.3,1.2c-0.7,0.3-1.4,0.6-2,1s-1.2,1-1.2,1.8l0,0L115.3,179.8z"/>
		</g>
	</g>
	<g>
		<path class="st12" d="M145.3,50.4l1.1,0.7L129.2,59l2.5-17.1l13.3,8.3c0,0.1,0,0.2,0,0.2L145.3,50.4L145.3,50.4z"/>
		<g>
			<path class="st12" d="M145.3,50.4h-0.4c0-0.1,0-0.2,0-0.2c0.4-4.8,14-8.6,30.5-8.6c16.7,0,30.5,4,30.5,8.9s-13.8,8.9-30.5,8.9
				c-13.9,0-26.2-2.8-29.6-6.7l29.6-2.2L145.3,50.4L145.3,50.4z"/>
			<path class="st12" d="M145.3,50.4h-0.4l0,0c0-1.4,1.1-2.5,2.2-3.3c1.1-0.8,2.3-1.4,3.6-1.9c2.5-1,5.2-1.7,7.9-2.2
				c5.4-1,10.8-1.5,16.3-1.6s10.9,0.3,16.3,1.1c2.7,0.5,5.4,1.1,8,1.9c1.3,0.5,2.6,1,3.8,1.7s2.4,1.5,3.1,2.9
				c0.3,0.7,0.4,1.5,0.2,2.3c-0.2,0.7-0.7,1.4-1.2,1.9c-1,1-2.3,1.7-3.5,2.3c-2.5,1.2-5.2,1.9-7.9,2.5c-5.4,1.1-10.8,1.7-16.3,1.8
				s-11-0.3-16.4-1.1c-2.7-0.4-5.4-1-8-1.8c-1.3-0.4-2.6-0.9-3.8-1.5s-2.5-1.3-3.4-2.4l-0.5-0.5h0.7l29.6-2v0.2L145.3,50.4z
				 M145.3,50.4l30.1-0.1v0.2l-29.6,2.4l0.2-0.6c0.9,1,2.1,1.6,3.2,2.2c1.2,0.6,2.5,1,3.8,1.4c2.6,0.8,5.2,1.3,7.9,1.8
				c5.4,0.8,10.8,1.1,16.2,1s10.8-0.6,16.1-1.7c2.6-0.6,5.3-1.3,7.7-2.4c1.2-0.6,2.4-1.2,3.3-2.1c0.5-0.4,0.9-0.9,1-1.5
				c0.2-0.6,0.1-1.2-0.1-1.7c-0.5-1.1-1.6-1.9-2.8-2.6c-1.1-0.7-2.4-1.2-3.7-1.7c-2.5-0.9-5.2-1.5-7.9-2c-5.3-1-10.8-1.4-16.2-1.4
				S163.6,42,158.2,43c-2.7,0.5-5.3,1.2-7.9,2.2c-1.3,0.5-2.5,1.1-3.6,1.9c-1.1,0.8-2.2,1.9-2.2,3.3l0,0L145.3,50.4z"/>
		</g>
	</g>
	<g>
		<path class="st12" d="M214.2,128.9l1.1,0.7l-17.2,7.9l2.5-17.1l13.3,8.3c0,0.1,0,0.2,0,0.2L214.2,128.9L214.2,128.9z"/>
		<g>
			<path class="st12" d="M214.2,128.9h-0.4c0-0.1,0-0.2,0-0.2c0.4-4.8,14-8.6,30.5-8.6c16.7,0,30.5,4,30.5,8.9
				c0,4.9-13.8,8.9-30.5,8.9c-13.9,0-26.2-2.8-29.6-6.7l29.6-2.2L214.2,128.9L214.2,128.9z"/>
			<path class="st12" d="M214.2,128.9h-0.4l0,0c0-1.4,1.1-2.5,2.2-3.3c1.1-0.8,2.3-1.4,3.6-1.9c2.5-1,5.2-1.7,7.9-2.2
				c5.4-1,10.8-1.5,16.3-1.6s10.9,0.3,16.3,1.1c2.7,0.5,5.4,1.1,8,1.9c1.3,0.5,2.6,1,3.8,1.7c1.2,0.7,2.4,1.5,3.1,2.9
				c0.3,0.7,0.4,1.5,0.2,2.3c-0.2,0.7-0.7,1.4-1.2,1.9c-1,1-2.3,1.7-3.5,2.3c-2.5,1.2-5.2,1.9-7.9,2.5c-5.4,1.1-10.8,1.7-16.3,1.8
				s-11-0.3-16.4-1.1c-2.7-0.4-5.4-1-8-1.8c-1.3-0.4-2.6-0.9-3.8-1.5s-2.5-1.3-3.4-2.4l-0.5-0.5h0.7l29.6-2v0.2L214.2,128.9z
				 M214.2,128.9l30.1-0.1v0.2l-29.6,2.4l0.2-0.6c0.9,1,2.1,1.6,3.2,2.2c1.2,0.6,2.5,1,3.8,1.4c2.6,0.8,5.2,1.3,7.9,1.8
				c5.4,0.8,10.8,1.1,16.2,1s10.8-0.6,16.1-1.7c2.6-0.6,5.3-1.3,7.7-2.4c1.2-0.6,2.4-1.2,3.3-2.1c0.5-0.4,0.9-0.9,1-1.5
				c0.2-0.6,0.1-1.2-0.1-1.7c-0.5-1.1-1.6-1.9-2.8-2.6c-1.1-0.7-2.4-1.2-3.7-1.7c-2.5-0.9-5.2-1.5-7.9-2c-5.3-1-10.8-1.4-16.2-1.4
				s-10.9,0.4-16.3,1.4c-2.7,0.5-5.3,1.2-7.9,2.2c-1.3,0.5-2.5,1.1-3.6,1.9c-1.1,0.8-2.2,1.9-2.2,3.3l0,0L214.2,128.9z"/>
		</g>
	</g>
	<g>
		<path class="st12" d="M78.6,162.6l0.6,0.4l-9.4,4.3l1.4-9.4L78.6,162.6L78.6,162.6L78.6,162.6L78.6,162.6z"/>
		<g>
			<path class="st12" d="M78.6,162.6h-0.2v-0.1c0.2-2.6,7.7-4.7,16.7-4.7c9.2,0,16.7,2.2,16.7,4.9c0,2.7-7.5,4.9-16.7,4.9
				c-7.6,0-14.3-1.5-16.2-3.7l16.2-1.2H78.6V162.6z"/>
			<path class="st12" d="M78.6,162.6h-0.2l0,0c0-0.8,0.6-1.4,1.2-1.8s1.3-0.8,2-1.1c1.4-0.6,2.8-0.9,4.3-1.2
				c2.9-0.6,5.9-0.8,8.9-0.9s6,0.1,9,0.6c1.5,0.2,3,0.6,4.4,1c0.7,0.3,1.4,0.5,2.1,0.9s1.4,0.9,1.8,1.7c0.2,0.4,0.2,0.9,0.1,1.4
				c-0.1,0.2-0.2,0.4-0.3,0.6c-0.1,0.2-0.3,0.3-0.4,0.5c-0.6,0.6-1.3,1-2,1.3c-1.4,0.7-2.9,1.1-4.3,1.4c-3,0.6-6,1-9,1s-6-0.2-9-0.6
				c-1.5-0.2-3-0.6-4.4-1c-0.7-0.3-1.4-0.5-2.1-0.9s-1.4-0.8-1.9-1.4l-0.5-0.5H79l16.2-1v0.2C89.6,162.6,84.1,162.6,78.6,162.6z
				 M78.6,162.6c5.5,0,11,0,16.5-0.1v0.2l-16.2,1.4l0.2-0.6c1,1,2.4,1.5,3.8,1.9s2.9,0.7,4.3,0.9c2.9,0.4,5.9,0.6,8.8,0.5
				c3-0.1,5.9-0.3,8.8-0.9c1.4-0.3,2.9-0.7,4.2-1.3c0.7-0.3,1.3-0.7,1.8-1.1c0.5-0.4,0.7-1,0.5-1.5s-0.8-1-1.4-1.4s-1.3-0.7-2-0.9
				c-1.4-0.5-2.8-0.9-4.3-1.1c-2.9-0.6-5.9-0.8-8.9-0.8s-6,0.2-8.9,0.7c-1.5,0.3-2.9,0.6-4.3,1.2c-0.7,0.3-1.4,0.6-2,1
				s-1.2,1-1.2,1.8l0,0L78.6,162.6z"/>
		</g>
	</g>
	<g>
		<path class="st12" d="M162.3,167l0.6,0.4l-9.4,4.3l1.4-9.4l7.3,4.6L162.3,167L162.3,167z"/>
		<g>
			<path class="st12" d="M162.3,167h-0.2v-0.1c0.2-2.6,7.7-4.7,16.7-4.7c9.2,0,16.7,2.2,16.7,4.9c0,2.7-7.5,4.9-16.7,4.9
				c-7.6,0-14.3-1.5-16.2-3.7l16.2-1.2h-16.5V167z"/>
			<path class="st12" d="M162.3,167h-0.2l0,0c0-0.8,0.6-1.4,1.2-1.8c0.6-0.4,1.3-0.8,2-1.1c1.4-0.6,2.8-0.9,4.3-1.2
				c2.9-0.6,5.9-0.8,8.9-0.9s6,0.1,9,0.6c1.5,0.2,3,0.6,4.4,1c0.7,0.3,1.4,0.5,2.1,0.9c0.7,0.4,1.4,0.9,1.8,1.7
				c0.2,0.4,0.2,0.9,0.1,1.4c-0.1,0.2-0.2,0.4-0.3,0.6c-0.1,0.2-0.3,0.3-0.4,0.5c-0.6,0.6-1.3,1-2,1.3c-1.4,0.7-2.9,1.1-4.3,1.4
				c-3,0.6-6,1-9,1s-6-0.2-9-0.6c-1.5-0.2-3-0.6-4.4-1c-0.7-0.3-1.4-0.5-2.1-0.9c-0.7-0.4-1.4-0.8-1.9-1.4l-0.5-0.5h0.7l16.2-1v0.2
				C173.3,167.1,167.8,167.1,162.3,167z M162.3,167c5.5,0,11,0,16.5-0.1v0.2l-16.2,1.4l0.2-0.6c1,1,2.4,1.5,3.8,1.9
				c1.4,0.4,2.9,0.7,4.3,0.9c2.9,0.4,5.9,0.6,8.8,0.5c3-0.1,5.9-0.3,8.8-0.9c1.4-0.3,2.9-0.7,4.2-1.3c0.7-0.3,1.3-0.7,1.8-1.1
				s0.7-1,0.5-1.5s-0.8-1-1.4-1.4c-0.6-0.4-1.3-0.7-2-0.9c-1.4-0.5-2.8-0.9-4.3-1.1c-2.9-0.6-5.9-0.8-8.9-0.8s-6,0.2-8.9,0.7
				c-1.5,0.3-2.9,0.6-4.3,1.2c-0.7,0.3-1.4,0.6-2,1s-1.2,1-1.2,1.8l0,0L162.3,167z"/>
		</g>
	</g>
	<g>
		<path class="st12" d="M158.6,191.2l0.4,0.2l-6.9,2l1-4.3l5.4,2.1c0,0,0,0,0,0.1h0.1V191.2z"/>
		<g>
			<path class="st12" d="M158.6,191.2h-0.2c0,0,0,0,0-0.1c0.2-1.2,5.7-2.2,12.3-2.2c6.8,0,12.3,1,12.3,2.2s-5.6,2.2-12.3,2.2
				c-5.6,0-10.5-0.7-11.9-1.7l11.9-0.6h-12.1V191.2z"/>
			<path class="st12" d="M158.6,191.2h-0.2l0,0c0-0.3,0.2-0.5,0.5-0.6c0.2-0.2,0.5-0.2,0.7-0.4c0.5-0.2,1-0.3,1.5-0.5
				c1-0.2,2.1-0.4,3.1-0.5c2.1-0.3,4.2-0.4,6.3-0.4s4.2,0,6.3,0.2c1.1,0.1,2.1,0.2,3.2,0.4c0.5,0.1,1.1,0.2,1.6,0.4
				c0.5,0.2,1.1,0.3,1.6,0.8c0.1,0.1,0.2,0.4,0.2,0.6c0,0.3-0.2,0.4-0.3,0.6c-0.3,0.3-0.5,0.4-0.8,0.5c-0.5,0.3-1,0.4-1.6,0.5
				c-1.1,0.3-2.1,0.4-3.2,0.6c-2.1,0.3-4.2,0.4-6.4,0.4c-2.1,0-4.3-0.1-6.4-0.3c-1.1-0.1-2.1-0.3-3.2-0.5c-0.5-0.1-1-0.2-1.6-0.4
				c-0.5-0.2-1-0.3-1.5-0.7l-0.9-0.6h1.1l11.9-0.3v0.2c-2-0.1-4.1-0.1-6.1-0.1L158.6,191.2z M158.6,191.2h6.1c2,0,4.1,0,6.1-0.1v0.2
				l-11.9,0.8l0.2-0.6c0.8,0.5,1.9,0.7,2.9,0.9c1,0.2,2.1,0.3,3.1,0.4c2.1,0.2,4.2,0.2,6.3,0.2s4.2-0.1,6.3-0.3
				c1-0.1,2.1-0.3,3.1-0.5c0.5-0.1,1-0.3,1.4-0.5c0.2-0.1,0.4-0.2,0.6-0.3c0.1-0.1,0.1-0.1,0.1-0.1s0,0,0-0.1
				c-0.2-0.3-0.7-0.5-1.2-0.7s-1-0.3-1.5-0.4c-1-0.2-2.1-0.4-3.1-0.5c-2.1-0.3-4.2-0.4-6.3-0.4s-4.2,0-6.3,0.3
				c-1,0.1-2.1,0.3-3.1,0.5c-0.5,0.1-1,0.2-1.5,0.4c-0.2,0.1-0.5,0.2-0.7,0.3c-0.2,0.1-0.4,0.3-0.5,0.6l0,0L158.6,191.2z"/>
		</g>
	</g>
	<g>
		<path class="st12" d="M235.7,70.7l0.6,0.4l-9.4,4.3l1.4-9.4L235.7,70.7L235.7,70.7L235.7,70.7L235.7,70.7z"/>
		<g>
			<path class="st12" d="M235.7,70.7h-0.2v-0.1c0.2-2.6,7.7-4.7,16.7-4.7c9.2,0,16.7,2.2,16.7,4.9s-7.5,4.9-16.7,4.9
				c-7.6,0-14.3-1.5-16.2-3.7l16.2-1.2L235.7,70.7L235.7,70.7z"/>
			<path class="st12" d="M235.7,70.7h-0.2l0,0c0-0.8,0.6-1.4,1.2-1.8c0.6-0.4,1.3-0.8,2-1.1c1.4-0.6,2.8-0.9,4.3-1.2
				c2.9-0.6,5.9-0.8,8.9-0.9c3-0.1,6,0.1,9,0.6c1.5,0.2,3,0.6,4.4,1c0.7,0.3,1.4,0.5,2.1,0.9s1.4,0.9,1.8,1.7
				c0.2,0.4,0.2,0.9,0.1,1.4c-0.1,0.2-0.2,0.4-0.3,0.6c-0.1,0.2-0.3,0.3-0.4,0.5c-0.6,0.6-1.3,1-2,1.3c-1.4,0.7-2.9,1.1-4.3,1.4
				c-3,0.6-6,1-9,1s-6-0.2-9-0.6c-1.5-0.2-3-0.6-4.4-1c-0.7-0.3-1.4-0.5-2.1-0.9c-0.7-0.4-1.4-0.8-1.9-1.4l-0.5-0.5h0.7l16.2-1v0.2
				C246.7,70.7,241.2,70.7,235.7,70.7z M235.7,70.7c5.5,0,11,0,16.5-0.1v0.2L236,72.2l0.2-0.6c1,1,2.4,1.5,3.8,1.9
				c1.4,0.4,2.9,0.7,4.3,0.9c2.9,0.4,5.9,0.6,8.8,0.5c3-0.1,5.9-0.3,8.8-0.9c1.4-0.3,2.9-0.7,4.2-1.3c0.7-0.3,1.3-0.7,1.8-1.1
				c0.5-0.4,0.7-1,0.5-1.5s-0.8-1-1.4-1.4s-1.3-0.7-2-0.9c-1.4-0.5-2.8-0.9-4.3-1.1c-2.9-0.6-5.9-0.8-8.9-0.8s-6,0.2-8.9,0.7
				c-1.5,0.3-2.9,0.6-4.3,1.2c-0.7,0.3-1.4,0.6-2,1s-1.2,1-1.2,1.8l0,0L235.7,70.7z"/>
		</g>
	</g>
	<g>
		<path class="st12" d="M182.6,91.5l0.5,0.2l-7.4,2.7l1.1-5.8l5.7,2.8L182.6,91.5L182.6,91.5z"/>
		<g>
			<path class="st12" d="M182.6,91.5h-0.2v-0.1c0.2-1.6,6-2.9,13.1-2.9c7.2,0,13.1,1.4,13.1,3c0,1.7-5.9,3-13.1,3
				c-6,0-11.2-0.9-12.7-2.3l12.7-0.7H182.6z"/>
			<path class="st12" d="M182.6,91.5h-0.2l0,0c0.1-0.6,0.6-0.9,1.1-1.2s1-0.5,1.6-0.6c1.1-0.3,2.2-0.6,3.3-0.7
				c2.3-0.3,4.5-0.5,6.8-0.6c2.3,0,4.6,0,6.9,0.3c1.1,0.1,2.3,0.3,3.4,0.6c0.6,0.1,1.1,0.3,1.7,0.5c0.5,0.2,1.1,0.5,1.6,1.1
				c0.1,0.1,0.1,0.4,0.2,0.6c0,0.2-0.1,0.5-0.2,0.6c-0.1,0.2-0.2,0.3-0.3,0.4c-0.1,0.1-0.3,0.2-0.4,0.3c-0.5,0.4-1.1,0.6-1.6,0.8
				c-1.1,0.4-2.3,0.6-3.4,0.8c-2.3,0.4-4.6,0.6-6.9,0.6c-2.3,0-4.6-0.1-6.9-0.4c-1.1-0.2-2.3-0.3-3.4-0.6c-0.6-0.2-1.1-0.3-1.7-0.5
				c-0.5-0.2-1.1-0.5-1.6-0.9L182,92h0.9l12.7-0.5v0.2C191.2,91.5,186.9,91.5,182.6,91.5z M182.6,91.5c4.3,0,8.6,0,12.9-0.1v0.2
				l-12.7,1L183,92c0.8,0.6,1.9,0.9,3,1.2c1.1,0.2,2.2,0.4,3.3,0.6c2.2,0.3,4.5,0.3,6.8,0.3s4.5-0.2,6.8-0.5
				c1.1-0.2,2.2-0.4,3.3-0.7c0.5-0.2,1-0.4,1.5-0.7c0.2-0.1,0.4-0.3,0.5-0.4c0.1-0.1,0-0.1,0.1-0.2c0-0.1,0-0.1-0.1-0.2
				c-0.2-0.3-0.7-0.6-1.2-0.9c-0.5-0.2-1-0.4-1.6-0.6c-1.1-0.3-2.2-0.5-3.3-0.7c-2.2-0.3-4.5-0.5-6.8-0.5s-4.6,0.1-6.8,0.4
				c-1.1,0.2-2.3,0.4-3.3,0.7c-0.5,0.2-1.1,0.4-1.6,0.6c-0.5,0.3-1.1,0.6-1.1,1.2l0,0L182.6,91.5z"/>
		</g>
	</g>
	<g>
		<path class="st12" d="M119.1,22.3l0.6,0.4l-9.4,4.3l1.4-9.4L119.1,22.3L119.1,22.3L119.1,22.3z"/>
		<g>
			<path class="st12" d="M119.1,22.3h-0.2v-0.1c0.2-2.6,7.7-4.7,16.7-4.7c9.2,0,16.7,2.2,16.7,4.9c0,2.7-7.5,4.9-16.7,4.9
				c-7.6,0-14.3-1.5-16.2-3.7l16.2-1.2h-16.5V22.3z"/>
			<path class="st12" d="M119.1,22.3h-0.2l0,0c0-0.8,0.6-1.4,1.2-1.8s1.3-0.8,2-1.1c1.4-0.6,2.8-0.9,4.3-1.2
				c2.9-0.6,5.9-0.8,8.9-0.9s6,0.1,9,0.6c1.5,0.2,3,0.6,4.4,1c0.7,0.3,1.4,0.5,2.1,0.9c0.7,0.4,1.4,0.9,1.8,1.7
				c0.2,0.4,0.2,0.9,0.1,1.4c-0.1,0.2-0.2,0.4-0.3,0.6s-0.3,0.3-0.4,0.5c-0.6,0.6-1.3,1-2,1.3c-1.4,0.7-2.9,1.1-4.3,1.4
				c-3,0.6-6,1-9,1s-6-0.2-9-0.6c-1.5-0.2-3-0.6-4.4-1c-0.7-0.3-1.4-0.5-2.1-0.9s-1.4-0.8-1.9-1.4l-0.5-0.5h0.7l16.2-1v0.2
				C130.1,22.4,124.6,22.4,119.1,22.3z M119.1,22.3c5.5,0,11,0,16.5-0.1v0.2l-16.2,1.4l0.2-0.6c1,1,2.4,1.5,3.8,1.9s2.9,0.7,4.3,0.9
				c2.9,0.4,5.9,0.6,8.8,0.5c3-0.1,5.9-0.3,8.8-0.9c1.4-0.3,2.9-0.7,4.2-1.3c0.7-0.3,1.3-0.7,1.8-1.1s0.7-1,0.5-1.5s-0.8-1-1.4-1.4
				c-0.6-0.4-1.3-0.7-2-0.9c-1.4-0.5-2.8-0.9-4.3-1.1c-2.9-0.6-5.9-0.8-8.9-0.8s-6,0.2-8.9,0.7c-1.5,0.3-2.9,0.6-4.3,1.2
				c-0.7,0.3-1.4,0.6-2,1s-1.2,1-1.2,1.8l0,0L119.1,22.3z"/>
		</g>
	</g>
	<g>
		<path class="st12" d="M218.7,164.6l0.4,0.2l-5.8,2.5l0.8-5.3l4.5,2.6c0,0,0,0,0,0.1h0.1V164.6z"/>
		<g>
			<path class="st12" d="M218.7,164.6h-0.1c0,0,0,0,0-0.1c0.1-1.5,4.7-2.7,10.2-2.7c5.6,0,10.2,1.2,10.2,2.8s-4.6,2.8-10.2,2.8
				c-4.7,0-8.8-0.9-9.9-2.1l9.9-0.7H218.7z"/>
			<path class="st12" d="M218.7,164.6h-0.1l0,0c0-0.5,0.4-0.8,0.8-1.1c0.4-0.2,0.8-0.4,1.2-0.6c0.9-0.3,1.7-0.5,2.6-0.7
				c1.8-0.3,3.6-0.5,5.4-0.6c1.8,0,3.6,0,5.5,0.3c0.9,0.1,1.8,0.3,2.7,0.6c0.4,0.1,0.9,0.3,1.3,0.5c0.4,0.2,0.9,0.5,1.2,1
				c0.2,0.3,0.2,0.7,0.1,1c-0.1,0.3-0.3,0.5-0.5,0.7c-0.4,0.3-0.8,0.6-1.3,0.8c-0.9,0.4-1.8,0.6-2.7,0.8c-1.8,0.4-3.7,0.5-5.5,0.5
				s-3.7-0.1-5.5-0.4c-0.9-0.1-1.8-0.3-2.7-0.6c-0.9-0.3-1.8-0.6-2.6-1.4l-0.6-0.6h0.8l9.9-0.5v0.2
				C225.4,164.6,222.1,164.6,218.7,164.6z M218.7,164.6c3.4,0,6.7,0,10.1-0.1v0.2l-9.9,0.9l0.2-0.6c0.6,0.5,1.4,0.8,2.3,1
				c0.9,0.2,1.7,0.4,2.6,0.5c1.8,0.2,3.6,0.3,5.3,0.3c1.8,0,3.6-0.2,5.3-0.5c0.9-0.2,1.7-0.4,2.5-0.7c0.7-0.3,1.7-0.9,1.4-1.3
				c-0.1-0.3-0.5-0.5-0.8-0.7c-0.4-0.2-0.8-0.4-1.2-0.5c-0.8-0.3-1.7-0.5-2.6-0.7c-1.8-0.3-3.6-0.5-5.4-0.5c-1.8,0-3.6,0.1-5.4,0.4
				c-0.9,0.1-1.8,0.4-2.6,0.7c-0.4,0.2-0.8,0.3-1.2,0.6c-0.4,0.2-0.8,0.6-0.8,1l0,0H218.7z"/>
		</g>
	</g>
	<g>
		<path class="st12" d="M70.3,65.8l-0.9,0.6l14.8,6.8l-2.1-14.8l-11.5,7.2c0,0.1,0,0.1,0,0.2H70.3z"/>
		<g>
			<path class="st12" d="M70.3,65.8h0.4c0-0.1,0-0.1,0-0.2c-0.4-4.1-12-7.5-26.1-7.5c-14.4,0-26.2,3.5-26.2,7.7s11.8,7.7,26.2,7.7
				c11.9,0,22.4-2.4,25.4-5.8l-25.4-1.9H70.3z"/>
			<path class="st12" d="M70.3,65.8h0.3l0,0c0-1.2-1-2.1-1.9-2.8c-1-0.7-2-1.2-3.1-1.6c-2.2-0.9-4.4-1.4-6.7-1.9
				c-4.6-0.9-9.3-1.2-13.9-1.2c-4.7,0-9.3,0.4-13.9,1.2c-2.3,0.4-4.6,1-6.7,1.8c-1.1,0.4-2.1,0.9-3.1,1.4c-1,0.6-1.9,1.3-2.3,2.2
				c-0.5,0.9,0,2,0.8,2.7c0.8,0.8,1.8,1.3,2.8,1.8c2.1,0.9,4.3,1.6,6.6,2.1c4.5,1,9.2,1.3,13.8,1.4c4.6,0.1,9.3-0.2,13.9-0.9
				c2.3-0.4,4.6-0.8,6.8-1.5c1.1-0.4,2.2-0.7,3.2-1.2s2-1.1,2.8-1.9l0.2,0.6l-25.3-2.1v-0.2L70.3,65.8z M70.3,65.8l-25.8,0.1v-0.2
				l25.4,1.7h0.7l-0.5,0.5c-0.8,1-1.9,1.6-2.9,2.1c-1.1,0.6-2.2,1-3.3,1.3c-2.3,0.7-4.6,1.2-6.9,1.6c-4.7,0.7-9.4,1-14.1,1
				c-4.7-0.1-9.4-0.5-14-1.5c-2.3-0.5-4.6-1.2-6.8-2.2c-1.1-0.5-2.1-1.1-3-2c-0.4-0.4-0.8-1-1-1.6s-0.1-1.4,0.2-2
				c0.6-1.2,1.6-1.9,2.7-2.5c1-0.6,2.1-1.1,3.3-1.4c2.2-0.8,4.5-1.3,6.9-1.7c4.6-0.8,9.3-1,14-1c4.7,0.1,9.4,0.5,14,1.4
				c2.3,0.5,4.6,1.1,6.7,1.9c1.1,0.4,2.1,1,3.1,1.7c0.9,0.7,1.8,1.6,1.9,2.8l0,0L70.3,65.8z"/>
		</g>
	</g>
</g>
<g id="Fish2">
</g>
</svg>
