<?xml version="1.0" encoding="utf-8"?>
<!-- Generator: Adobe Illustrator 21.1.0, SVG Export Plug-In . SVG Version: 6.00 Build 0)  -->
<svg version="1.1" id="Layer_1" xmlns="http://www.w3.org/2000/svg" xmlns:xlink="http://www.w3.org/1999/xlink" x="0px" y="0px"
	 viewBox="0 0 288 560" style="enable-background:new 0 0 288 560;" xml:space="preserve">
<style type="text/css">
	.st0{fill:#36C373;stroke:#FFFFFF;stroke-miterlimit:10;}
	.st1{fill:#48AB73;stroke:#48AB73;stroke-linecap:round;stroke-miterlimit:10;}
	.st2{fill:#807680;stroke:#807680;stroke-miterlimit:10;}
	.st3{fill:#F2F2F2;}
	.st4{fill:#FFFFFF;stroke:#FFFFFF;stroke-miterlimit:10;}
	.st5{fill:#FFFFFF;}
	.st6{fill:#666666;stroke:#666666;stroke-miterlimit:10;}
	.st7{fill:#8D8080;stroke:#8D8080;stroke-miterlimit:10;}
	.st8{fill:#E6E6E6;}
	.st9{fill:#D5D7D8;stroke:#D5D7D8;stroke-miterlimit:10;}
	.st10{fill:#CCCCCC;}
	.st11{fill:#999999;}
	.st12{fill:#898599;}
	.st13{fill:#621FEA;stroke:#621FEA;stroke-miterlimit:10;}
	.st14{opacity:0.63;}
	.st15{fill:none;stroke:#621FEA;stroke-miterlimit:10;}
	.st16{opacity:0.6;}
</style>
<g id="Layer_1_1_">
	<path class="st0" d="M144.2,295.1L144.2,295.1c-78.8,0-142.7-63.9-142.7-142.8v-4.5C1.5,69,65.4,5.1,144.2,5.1l0,0
		C223,5.1,286.9,69,286.9,147.8v4.5C287,231.2,223.1,295.1,144.2,295.1z"/>
	<path class="st1" d="M147.3,257l-12.4,12.4c-17.6,17.6-46,17.6-63.6,0l-9.2-9.2c-17.6-17.6-17.6-46,0-63.6l12.4-12.4
		c17.6-17.6,46-17.6,63.6,0l9.2,9.2C164.9,210.9,164.9,239.4,147.3,257z"/>
	<rect x="114.5" y="172.6" class="st2" width="66.3" height="47.2"/>
	<g>
		<g>
			<path class="st3" d="M153.9,209.1c-3.2-2-6.3-4-9.5-6c-1.6-1-3.1,1.6-1.5,2.6c3.2,2,6.3,4,9.5,6
				C154,212.8,155.6,210.2,153.9,209.1L153.9,209.1z"/>
		</g>
	</g>
	<path class="st4" d="M148.4,219.9L148.4,219.9c-13.6,0-24.7-11.1-24.7-24.7v-12.4c0-13.6,11.1-24.7,24.7-24.7l0,0
		c13.6,0,24.7,11.1,24.7,24.7v12.3C173.1,208.8,162.1,219.9,148.4,219.9z"/>
	<g>
		<g>
			<path class="st5" d="M142.7,160.9c1.9,0,1.9-3,0-3C140.7,157.9,140.7,160.9,142.7,160.9L142.7,160.9z"/>
		</g>
	</g>
	<g>
		<g>
			<path class="st5" d="M141.3,161.2c-3.5,5.7-3.8,12.1-3,18.6c0.6,4.8,2.5,8.6-1.2,12.6c-1,1.1-2.1,1.6-2.5,3.2
				c-0.4,1.9,0.7,2.8,1.6,4.2c1.3,0.7,1.8,1.9,1.5,3.5c-0.1,0.2-0.2,0.4-0.2,0.6c0.2,0.8,0.1,1.2,0.7,2c2.8,3.6,12.4,2,16.2,1.3
				c1.9-0.3,1.1-3.2-0.8-2.9c-1.8,0.3-11.2,1.7-12.4-0.1c-0.5-0.7,0.3-2,0.1-2.8c-0.3-1.5-1.7-2-2.4-3.2c-1.7-2.9,0.9-3.5,2.4-5.2
				c2.4-2.9,1.1-6.5,0.6-9.8c-1.1-7-1.8-14,2-20.4C144.9,161,142.3,159.5,141.3,161.2L141.3,161.2z"/>
		</g>
	</g>
	<g>
		<g>
			<path class="st5" d="M144.8,171.9c-0.3-4.1,1.3-8.1,4.6-10.7c1.5-1.2,0-3.8-1.5-2.6c-4.2,3.2-6.5,8-6.1,13.3
				C142,173.8,145,173.9,144.8,171.9L144.8,171.9z"/>
		</g>
	</g>
	<g>
		<g>
			<path class="st5" d="M143,164.7c-2.8,5.4-3.5,11.2-2.3,17.1c0.4,1.9,3.3,1.1,2.9-0.8c-1-5.1-0.3-10.2,2-14.8
				C146.4,164.5,143.8,163,143,164.7L143,164.7z"/>
		</g>
	</g>
	<g>
		<g>
			<path class="st5" d="M-7.8,32.4c1.9,0,1.9-3,0-3C-9.8,29.4-9.8,32.4-7.8,32.4L-7.8,32.4z"/>
		</g>
	</g>
	<path class="st6" d="M169.1,293.9h-40.5c-13,0-23.5-10.5-23.5-23.5v-18.5c0-13,10.5-23.5,23.5-23.5h40.5c13,0,23.5,10.5,23.5,23.5
		v18.5C192.6,283.4,182.1,293.9,169.1,293.9z"/>
	<rect x="121.2" y="159.9" class="st7" width="54" height="19.5"/>
	<path class="st7" d="M163.7,150.4h-31c-6.4,0-11.5,5.1-11.5,11.5l0,0c0,6.4,5.1,11.5,11.5,11.5h31c6.4,0,11.5-5.1,11.5-11.5l0,0
		C175.2,155.6,170,150.4,163.7,150.4z"/>
	<path class="st4" d="M148.8,239.8L148.8,239.8c-4,0-7.3-3.3-7.3-7.3v-12.4c0-4,3.3-7.3,7.3-7.3l0,0c4,0,7.3,3.3,7.3,7.3v12.4
		C156.2,236.5,152.9,239.8,148.8,239.8z"/>
	<g>
		<path class="st3" d="M141.5,182.6c0.7,5.1,0.4,10.4-1.1,15.4c-0.2,0.6-0.4,1.2-0.2,1.8c0.1,0.7,0.7,1.3,1.2,1.8
			c1.9,1.8,3.9,3.4,6,4.9c0.4,0.3,0.9,0.6,1.1,1.1c0.3,0.7-0.1,1.4-0.3,2.2c-0.3,1.1-0.1,2.2,0.1,3.3c1.1,8.1,1.4,16.3,0.7,24.4"/>
		<g>
			<path class="st3" d="M140,182.6c0.3,2.6,0.5,5.1,0.3,7.7c-0.2,2.8-1.7,6.2-1.5,9c0.2,3,3.3,4.5,5.3,6.4c3.6,3.4,3.1,9,3.5,13.9
				c0.5,6,0.4,11.9,0,17.9c-0.1,1.9,2.9,1.9,3,0c0.4-6,0.5-11.9,0-17.9c-0.2-2.7-1-5.5-0.9-8.2c0-1.5,0.9-3.1,0.2-4.6
				c-1.6-3.5-7.8-4-7.9-8.4c-0.1-2.2,1.1-4.9,1.3-7.2c0.3-2.9,0.1-5.7-0.2-8.6C142.8,180.7,139.8,180.6,140,182.6L140,182.6z"/>
		</g>
	</g>
	<g>
		<g>
			<path class="st8" d="M148.5,240.4c1.9,0,1.9-3,0-3C146.6,237.4,146.6,240.4,148.5,240.4L148.5,240.4z"/>
		</g>
	</g>
	<g>
		<g>
			<path class="st3" d="M140.7,182.8c1.9,0,1.9-3,0-3C138.7,179.8,138.7,182.8,140.7,182.8L140.7,182.8z"/>
		</g>
	</g>
	<rect x="124.7" y="180.3" class="st9" width="16" height="20.4"/>
	<path class="st9" d="M141.7,217.7h-2.1c-3.7,0-6.6-3-6.6-6.6l0,0c0-3.7,3-6.6,6.6-6.6h2.1c3.7,0,6.6,3,6.6,6.6l0,0
		C148.3,214.7,145.4,217.7,141.7,217.7z"/>
	<path class="st9" d="M133.4,207.3h-2.1c-3.7,0-6.6-3-6.6-6.6l0,0c0-3.7,3-6.6,6.6-6.6h2.1c3.7,0,6.6,3,6.6,6.6l0,0
		C140,204.3,137,207.3,133.4,207.3z"/>
	<path class="st9" d="M135.1,207.3h-2.3c-3.7,0-6.6-3-6.6-6.6v-2.9c0-3.7,3-6.6,6.6-6.6h2.3c3.7,0,6.6,3,6.6,6.6v2.9
		C141.7,204.3,138.7,207.3,135.1,207.3z"/>
	<path class="st9" d="M136,212.9h-1.9c-3.7,0-6.6-3-6.6-6.6l0,0c0-3.7,3-6.6,6.6-6.6h1.9c3.7,0,6.6,3,6.6,6.6l0,0
		C142.6,209.9,139.7,212.9,136,212.9z"/>
	<rect x="141.7" y="214.9" class="st9" width="6.5" height="19.2"/>
	<path class="st9" d="M148.2,239.5L148.2,239.5c-3.7,0-6.6-3-6.6-6.6l0,0c0-3.7,3-6.6,6.6-6.6l0,0c3.7,0,6.6,3,6.6,6.6l0,0
		C154.8,236.5,151.8,239.5,148.2,239.5z"/>
	<path class="st2" d="M125,179.4h12.7c2.1,0,3.8-1.7,3.8-3.8v-16c0-2.1-1.7-3.8-3.8-3.8H125c-2.1,0-3.8,1.7-3.8,3.8v16
		C121.2,177.7,122.9,179.4,125,179.4z"/>
	<path class="st2" d="M132.3,173.7h0.5c4.9,0,8.9-4,8.9-8.9v-5.9c0-4.9-4-8.9-8.9-8.9h-0.5c-4.9,0-8.9,4-8.9,8.9v5.9
		C123.4,169.8,127.4,173.7,132.3,173.7z"/>
	<g>
		<g>
			<path class="st10" d="M80.2,387.4c1.9,0,1.9-3,0-3C78.2,384.4,78.2,387.4,80.2,387.4L80.2,387.4z"/>
		</g>
	</g>
	<g>
		<g>
			<path class="st11" d="M122.2,162.9c1.9,0,1.9-3,0-3S120.3,162.9,122.2,162.9L122.2,162.9z"/>
		</g>
	</g>
	<g>
		<g>
			<path class="st12" d="M120.8,161.8c0.1,0.7,0.2,1.5,0.3,2.2c0.9-0.4,1.8-0.8,2.7-1.2c0,0.1-0.1-0.3-0.1-0.3s-0.1-0.4-0.1-0.3
				c0-0.2,0-0.4,0-0.5c0,0,0-0.5,0-0.3c0.1-0.8-0.2-1.6-1-1.8c-0.7-0.2-1.7,0.2-1.8,1c-0.2,1.3-0.1,2.5,0.5,3.7
				c0.3,0.7,1.3,0.9,1.9,0.6c0.7-0.3,1-1,0.9-1.8c-0.1-0.7-0.2-1.5-0.3-2.2c-0.1-0.8-1.1-1.2-1.8-1C121,160.2,120.7,161,120.8,161.8
				L120.8,161.8z"/>
		</g>
	</g>
	<g>
		<g>
			<path class="st5" d="M143.8,181.5c2.8-1.2,4.9-2.9,6.3-5.7c-0.9-0.3-1.9-0.5-2.8-0.8c0.2,2.2,0.6,4.5,2.4,5.9
				c2.2,1.7,5.8,2.1,8.3,2.9c1.6,0.5,2.7-2.1,1.2-2.7c-1.9-0.8-3.7-1.9-5.1-3.5c-1-1.1-1.6-3-2.7-3.8c-2-1.4-3.6,0.5-4.3,2.2
				c1,0.3,1.9,0.5,2.9,0.8c0.2-0.7,0.5-1.4,0.7-2.1c0.5-1.4-1.5-2.5-2.5-1.5c-1.9,1.9-3.7,4.3-6.1,5.4c-1.4,0.7-0.6,2.8,0.8,2.8
				c2.7,0,8.4,1,7.5-3.4c-0.4-1.8-2.7-1.1-2.9,0.4c-0.3,2.3,0.1,4.2,1.1,6.2c0.8,1.7,3.4,0.2,2.6-1.5c-0.8-1.6-0.9-3-0.7-4.7
				c-1,0.1-2,0.3-2.9,0.4c-0.1-0.7-4-0.4-4.6-0.4c0.3,0.9,0.5,1.9,0.8,2.8c2.7-1.3,4.7-3.8,6.7-5.9c-0.8-0.5-1.7-1-2.5-1.5
				c-0.2,0.7-0.5,1.4-0.7,2.1c-0.6,1.9,2.2,2.5,2.9,0.8c-0.5-0.7-0.4-0.6,0.1,0.4c0.3,0.5,0.7,1.1,1.1,1.5c0.5,0.6,1,1.2,1.5,1.7
				c1.5,1.4,3.2,2.5,5,3.3c0.4-0.9,0.8-1.8,1.2-2.7c-1.7-0.5-3.5-1-5.2-1.6c-2.4-0.9-3.1-1.8-3.4-4.3c-0.1-1.3-2.1-2.2-2.8-0.8
				c-1,2-2.4,3.5-4.5,4.3C141.2,179.3,142,182.2,143.8,181.5L143.8,181.5z"/>
		</g>
	</g>
	<g>
		<g>
			<path class="st5" d="M156.7,195.7c1.9,0,1.9-3,0-3C154.7,192.7,154.7,195.7,156.7,195.7L156.7,195.7z"/>
		</g>
	</g>
	<g>
		<g>
			<path class="st5" d="M157.8,194.2c1.9,0,1.9-3,0-3C155.8,191.2,155.8,194.2,157.8,194.2L157.8,194.2z"/>
		</g>
	</g>
	<path class="st2" d="M104.1,195.8l-9-5.2c-3.9-2.2-5.2-7.2-3-11l6.4-11c2.2-3.9,7.2-5.2,11-3l9,5.2c3.9,2.2,5.2,7.2,3,11l-6.4,11
		C112.9,196.7,108,198,104.1,195.8z"/>
	<path class="st2" d="M108.6,221.2L108.6,221.2c-7.4,0-13.4-6-13.4-13.4v-14.7c0-7.4,6-13.4,13.4-13.4l0,0c7.4,0,13.4,6,13.4,13.4
		v14.7C122,215.2,116,221.2,108.6,221.2z"/>
	<path class="st2" d="M188.3,219.9h-3.8c-5.9,0-10.7-4.8-10.7-10.7V187c0-5.9,4.8-10.7,10.7-10.7h3.8c5.9,0,10.7,4.8,10.7,10.7v22.1
		C199.1,215,194.3,219.9,188.3,219.9z"/>
	<path class="st2" d="M134.3,171.5l-19.2,8.1c-4.7,2-10.1-0.2-12.1-4.9l-1.1-2.6c-2-4.7,0.2-10.1,4.9-12.1l19.2-8.1
		c4.7-2,10.1,0.2,12.1,4.9l1.1,2.6C141.2,164.1,139,169.5,134.3,171.5z"/>
	<path class="st7" d="M166,173.2l14.6,6.2c4.7,2,10.1-0.2,12.1-4.9l1.1-2.6c2-4.7-0.2-10.1-4.9-12.1l-14.6-6.2
		c-4.7-2-10.1,0.2-12.1,4.9l-1.1,2.6C159.1,165.8,161.3,171.2,166,173.2z"/>
	<path class="st7" d="M183.7,193.6l-9-5.2c-3.9-2.2-5.2-7.2-3-11l6.4-11c2.2-3.9,7.2-5.2,11-3l9,5.2c3.9,2.2,5.2,7.2,3,11l-6.4,11
		C192.5,194.5,187.6,195.8,183.7,193.6z"/>
	<path class="st2" d="M98.8,211.3l-9-5.2c-3.9-2.2-5.2-7.2-3-11l6.4-11c2.2-3.9,7.2-5.2,11-3l9,5.2c3.9,2.2,5.2,7.2,3,11l-6.4,11
		C107.6,212.3,102.7,213.6,98.8,211.3z"/>
	<path class="st7" d="M200.3,204.5l3.6-3.1c4.3-3.8,4.8-10.4,0.9-14.8l-5.7-6.5c-3.8-4.3-10.4-4.8-14.8-0.9l-3.6,3.1
		c-4.3,3.8-4.8,10.4-0.9,14.8l5.7,6.5C189.3,207.9,196,208.4,200.3,204.5z"/>
	<g>
		<path class="st13" d="M62.2,161.6c1.2,0.6,2.2,1.4,3,2.5c1.4-1.8,3.5-3,5.9-3.2c-1.1-1.5-1.8-3.4-2-5.4c-0.8,0.3-1.7,0.4-2.6,0.4
			c-2.2,0-4.2-0.8-5.7-2.1l-5.6,2.5l8.8-0.7C64.1,157.7,63.4,159.9,62.2,161.6z"/>
		<path class="st13" d="M79.6,143.6c-1.5,0-2.8,0.3-4.1,0.9c-0.8-4.3-4.5-7.6-9-7.6c-5.1,0-9.2,4.2-9.2,9.5c0,0.4,0,0.7,0.1,1.1
			c-0.9-0.3-1.9-0.4-2.9-0.3c-4.8,0.4-8.5,4.8-8.1,9.8c0.3,3.6,2.6,6.6,5.7,7.8c-0.4,0.7-0.7,1.4-0.9,2.3c-1.1,4.4,1.4,9,5.7,10.2
			c3.2,0.9,6.5-0.4,8.4-2.9c1.5,1.9,3.8,3.2,6.3,3.2c4.4,0,8-3.7,8-8.3c0-1.4-0.3-2.7-0.9-3.8c0.3,0,0.6,0,0.9,0
			c5.8,0,10.5-4.9,10.5-10.8C90.1,148.5,85.4,143.6,79.6,143.6z M60.8,153.8c1.6,1.3,3.6,2.1,5.7,2.1c0.9,0,1.8-0.1,2.6-0.4
			c0.2,2,0.9,3.9,2,5.4c-2.4,0.1-4.5,1.4-5.9,3.2c-0.8-1-1.8-1.9-3-2.5c1.2-1.7,1.9-3.8,1.7-6.1l-8.8,0.7L60.8,153.8z"/>
	</g>
	<g>
		<path class="st13" d="M36.1,191.8c0.8,0.4,1.5,0.9,2,1.6c0.9-1.2,2.4-2,4-2.1c-0.7-1-1.2-2.2-1.3-3.6c-0.6,0.2-1.2,0.3-1.8,0.3
			c-1.5,0-2.8-0.5-3.9-1.4l-3.8,1.6l6-0.5C37.4,189.3,37,190.7,36.1,191.8z"/>
		<path class="st13" d="M48,180c-1,0-1.9,0.2-2.8,0.6c-0.6-2.9-3.1-5-6.1-5c-3.5,0-6.3,2.8-6.3,6.3c0,0.2,0,0.5,0,0.7
			c-0.6-0.2-1.3-0.2-2-0.2c-3.3,0.3-5.8,3.2-5.5,6.5c0.2,2.4,1.8,4.3,3.9,5.1c-0.3,0.5-0.5,1-0.6,1.5c-0.8,2.9,1,5.9,3.9,6.7
			c2.2,0.6,4.4-0.3,5.7-1.9c1,1.3,2.6,2.1,4.3,2.1c3,0,5.5-2.5,5.5-5.5c0-0.9-0.2-1.8-0.6-2.5c0.2,0,0.4,0,0.6,0
			c4,0,7.2-3.2,7.2-7.2C55.1,183.2,51.9,180,48,180z M35.1,186.7c1.1,0.9,2.4,1.4,3.9,1.4c0.6,0,1.2-0.1,1.8-0.3
			c0.1,1.3,0.6,2.5,1.3,3.6c-1.6,0.1-3.1,0.9-4,2.1c-0.5-0.7-1.2-1.2-2-1.6c0.8-1.1,1.3-2.5,1.1-4l-6,0.5L35.1,186.7z"/>
	</g>
	<g class="st14">
		<path class="st13" d="M219.7,166.5c1.5,0.7,2.8,1.7,3.7,3c1.7-2.3,4.3-3.7,7.3-3.9c-1.4-1.9-2.2-4.2-2.4-6.6
			c-1,0.3-2.1,0.5-3.3,0.5c-2.7,0-5.2-1-7.1-2.6l-7,3l10.9-0.9C222.1,161.8,221.2,164.4,219.7,166.5z"/>
		<path class="st13" d="M241.4,144.5c-1.8,0-3.6,0.4-5.1,1.1c-1.1-5.3-5.7-9.3-11.2-9.3c-6.3,0-11.4,5.2-11.4,11.6
			c0,0.4,0,0.9,0.1,1.3c-1.2-0.3-2.4-0.5-3.7-0.4c-6,0.5-10.6,5.9-10.1,12c0.3,4.4,3.2,8.1,7.1,9.6c-0.5,0.8-0.9,1.8-1.2,2.8
			c-1.4,5.5,1.8,11,7.1,12.5c4,1.1,8.1-0.5,10.5-3.6c1.8,2.4,4.7,3.9,7.9,3.9c5.5,0,10-4.6,10-10.2c0-1.7-0.4-3.3-1.1-4.7
			c0.4,0,0.8,0.1,1.1,0.1c7.2,0,13.1-6,13.1-13.3C254.5,150.4,248.6,144.5,241.4,144.5z M217.9,156.9c2,1.6,4.4,2.6,7.1,2.6
			c1.1,0,2.2-0.2,3.3-0.5c0.2,2.5,1.1,4.7,2.4,6.6c-3,0.2-5.6,1.7-7.3,3.9c-1-1.3-2.2-2.3-3.7-3c1.5-2.1,2.3-4.7,2.1-7.4l-10.9,0.9
			L217.9,156.9z"/>
	</g>
	<g>
		<path class="st13" d="M208.7,218c0.8,0.4,1.5,0.9,2,1.6c0.9-1.2,2.4-2,4-2.1c-0.7-1-1.2-2.2-1.3-3.6c-0.6,0.2-1.2,0.3-1.8,0.3
			c-1.5,0-2.8-0.5-3.9-1.4l-3.8,1.6l6-0.5C209.9,215.4,209.5,216.9,208.7,218z"/>
		<path class="st13" d="M220.5,206.1c-1,0-1.9,0.2-2.8,0.6c-0.6-2.9-3.1-5-6.1-5c-3.5,0-6.3,2.8-6.3,6.3c0,0.2,0,0.5,0,0.7
			c-0.6-0.2-1.3-0.2-2-0.2c-3.3,0.3-5.8,3.2-5.5,6.5c0.2,2.4,1.8,4.3,3.9,5.1c-0.3,0.5-0.5,1-0.6,1.5c-0.8,2.9,1,5.9,3.9,6.7
			c2.2,0.6,4.4-0.3,5.7-1.9c1,1.3,2.6,2.1,4.3,2.1c3,0,5.5-2.5,5.5-5.5c0-0.9-0.2-1.8-0.6-2.5c0.2,0,0.4,0,0.6,0
			c4,0,7.2-3.2,7.2-7.2C227.7,209.3,224.5,206.1,220.5,206.1z M207.7,212.8c1.1,0.9,2.4,1.4,3.9,1.4c0.6,0,1.2-0.1,1.8-0.3
			c0.1,1.3,0.6,2.5,1.3,3.6c-1.6,0.1-3.1,0.9-4,2.1c-0.5-0.7-1.2-1.2-2-1.6c0.8-1.1,1.3-2.5,1.1-4l-6,0.5L207.7,212.8z"/>
	</g>
	<g>
		<path class="st13" d="M239,201.3c0.6,0.3,1.1,0.7,1.5,1.3c0.7-1,1.8-1.6,3-1.7c-0.6-0.8-0.9-1.8-1-2.8c-0.4,0.1-0.9,0.2-1.4,0.2
			c-1.1,0-2.2-0.4-3-1.1l-2.9,1.3l4.6-0.4C240,199.3,239.7,200.4,239,201.3z"/>
		<path class="st13" d="M248,191.8c-0.8,0-1.5,0.2-2.1,0.5c-0.4-2.3-2.4-4-4.7-4c-2.6,0-4.8,2.2-4.8,5c0,0.2,0,0.4,0,0.6
			c-0.5-0.1-1-0.2-1.5-0.2c-2.5,0.2-4.4,2.5-4.2,5.1c0.1,1.9,1.3,3.4,2.9,4.1c-0.2,0.4-0.4,0.8-0.5,1.2c-0.6,2.3,0.7,4.7,3,5.3
			c1.7,0.5,3.4-0.2,4.4-1.5c0.8,1,1.9,1.7,3.3,1.7c2.3,0,4.2-2,4.2-4.4c0-0.7-0.2-1.4-0.5-2c0.2,0,0.3,0,0.5,0c3,0,5.4-2.5,5.4-5.7
			C253.5,194.4,251,191.8,248,191.8z M238.3,197.2c0.8,0.7,1.8,1.1,3,1.1c0.5,0,0.9-0.1,1.4-0.2c0.1,1.1,0.5,2,1,2.8
			c-1.2,0.1-2.3,0.7-3,1.7c-0.4-0.5-0.9-1-1.5-1.3c0.6-0.9,1-2,0.9-3.2l-4.6,0.4L238.3,197.2z"/>
	</g>
	<g>
		<path class="st13" d="M191.8,248.4c0.5,0.3,1,0.6,1.3,1.1c0.6-0.8,1.5-1.3,2.5-1.4c-0.5-0.7-0.8-1.5-0.8-2.4
			c-0.4,0.1-0.7,0.2-1.1,0.2c-0.9,0-1.8-0.3-2.5-0.9l-2.4,1.1l3.8-0.3C192.6,246.7,192.3,247.7,191.8,248.4z"/>
		<path class="st13" d="M199.3,240.5c-0.6,0-1.2,0.1-1.8,0.4c-0.4-1.9-2-3.4-3.9-3.4c-2.2,0-3.9,1.9-3.9,4.2c0,0.2,0,0.3,0,0.5
			c-0.4-0.1-0.8-0.2-1.3-0.1c-2.1,0.2-3.6,2.1-3.5,4.3c0.1,1.6,1.1,2.9,2.4,3.4c-0.2,0.3-0.3,0.6-0.4,1c-0.5,2,0.6,4,2.5,4.5
			c1.4,0.4,2.8-0.2,3.6-1.3c0.6,0.9,1.6,1.4,2.7,1.4c1.9,0,3.5-1.6,3.5-3.7c0-0.6-0.1-1.2-0.4-1.7c0.1,0,0.3,0,0.4,0
			c2.5,0,4.5-2.1,4.5-4.8S201.8,240.5,199.3,240.5z M191.2,245c0.7,0.6,1.5,0.9,2.5,0.9c0.4,0,0.8-0.1,1.1-0.2
			c0.1,0.9,0.4,1.7,0.8,2.4c-1,0.1-1.9,0.6-2.5,1.4c-0.3-0.5-0.8-0.8-1.3-1.1c0.5-0.7,0.8-1.7,0.7-2.7l-3.8,0.3L191.2,245z"/>
	</g>
	<g>
		<path class="st13" d="M171.5,281.1c1,0.5,1.8,1.1,2.5,2c1.1-1.5,2.9-2.5,4.8-2.6c-0.9-1.2-1.5-2.7-1.6-4.4
			c-0.7,0.2-1.4,0.3-2.2,0.3c-1.8,0-3.4-0.6-4.7-1.7l-4.6,2l7.2-0.6C173,278,172.5,279.8,171.5,281.1z"/>
		<path class="st13" d="M185.8,266.6c-1.2,0-2.3,0.3-3.4,0.7c-0.7-3.5-3.7-6.1-7.4-6.1c-4.2,0-7.5,3.4-7.5,7.7c0,0.3,0,0.6,0.1,0.9
			c-0.8-0.2-1.6-0.3-2.4-0.2c-4,0.3-7,3.9-6.7,7.9c0.2,2.9,2.1,5.3,4.7,6.3c-0.3,0.6-0.6,1.2-0.8,1.8c-0.9,3.6,1.2,7.3,4.7,8.2
			c2.6,0.7,5.3-0.3,6.9-2.4c1.2,1.6,3.1,2.6,5.2,2.6c3.7,0,6.6-3,6.6-6.7c0-1.1-0.3-2.2-0.8-3.1c0.2,0,0.5,0,0.8,0
			c4.8,0,8.6-3.9,8.6-8.8C194.4,270.5,190.5,266.6,185.8,266.6z M170.3,274.8c1.3,1.1,2.9,1.7,4.7,1.7c0.8,0,1.5-0.1,2.2-0.3
			c0.1,1.6,0.7,3.1,1.6,4.4c-2,0.1-3.7,1.1-4.8,2.6c-0.6-0.8-1.5-1.5-2.5-2c1-1.4,1.5-3.1,1.4-4.9l-7.2,0.6L170.3,274.8z"/>
	</g>
	<g>
		<path class="st13" d="M201,268.5c0.5,0.3,1,0.6,1.3,1.1c0.6-0.8,1.5-1.3,2.5-1.4c-0.5-0.7-0.8-1.5-0.8-2.4
			c-0.4,0.1-0.7,0.2-1.1,0.2c-0.9,0-1.8-0.3-2.5-0.9l-2.4,1.1l3.8-0.3C201.8,266.8,201.5,267.7,201,268.5z"/>
		<path class="st13" d="M208.5,260.5c-0.6,0-1.2,0.1-1.8,0.4c-0.4-1.9-2-3.4-3.9-3.4c-2.2,0-3.9,1.9-3.9,4.2c0,0.2,0,0.3,0,0.5
			c-0.4-0.1-0.8-0.2-1.3-0.1c-2.1,0.2-3.6,2.1-3.5,4.3c0.1,1.6,1.1,2.9,2.4,3.4c-0.2,0.3-0.3,0.6-0.4,1c-0.5,2,0.6,4,2.5,4.5
			c1.4,0.4,2.8-0.2,3.6-1.3c0.6,0.9,1.6,1.4,2.7,1.4c1.9,0,3.5-1.6,3.5-3.7c0-0.6-0.1-1.2-0.4-1.7c0.1,0,0.3,0,0.4,0
			c2.5,0,4.5-2.1,4.5-4.8C213,262.7,211,260.5,208.5,260.5z M200.4,265c0.7,0.6,1.5,0.9,2.5,0.9c0.4,0,0.8-0.1,1.1-0.2
			c0.1,0.9,0.4,1.7,0.8,2.4c-1,0.1-1.9,0.6-2.5,1.4c-0.3-0.5-0.8-0.8-1.3-1.1c0.5-0.7,0.8-1.7,0.7-2.7l-3.8,0.3L200.4,265z"/>
	</g>
	<g>
		<path class="st13" d="M218.5,256.6c0.3,0.1,0.5,0.4,0.7,0.6c0.3-0.5,0.8-0.8,1.4-0.8c-0.3-0.4-0.4-0.9-0.5-1.4
			c-0.2,0.1-0.4,0.1-0.6,0.1c-0.5,0-1-0.2-1.4-0.5l-1.4,0.6l2.1-0.2C218.9,255.6,218.8,256.1,218.5,256.6z"/>
		<path class="st13" d="M222.7,251.9c-0.4,0-0.7,0.1-1,0.2c-0.2-1.1-1.1-2-2.2-2c-1.2,0-2.2,1.1-2.2,2.5c0,0.1,0,0.2,0,0.3
			c-0.2-0.1-0.5-0.1-0.7-0.1c-1.2,0.1-2.1,1.3-2,2.6c0.1,0.9,0.6,1.7,1.4,2c-0.1,0.2-0.2,0.4-0.2,0.6c-0.3,1.2,0.3,2.3,1.4,2.7
			c0.8,0.2,1.6-0.1,2.1-0.8c0.4,0.5,0.9,0.8,1.5,0.8c1.1,0,2-1,2-2.2c0-0.4-0.1-0.7-0.2-1c0.1,0,0.1,0,0.2,0c1.4,0,2.6-1.3,2.6-2.8
			C225.3,253.2,224.1,251.9,222.7,251.9z M218.1,254.5c0.4,0.3,0.9,0.5,1.4,0.5c0.2,0,0.4,0,0.6-0.1c0,0.5,0.2,1,0.5,1.4
			c-0.6,0-1.1,0.4-1.4,0.8c-0.2-0.3-0.4-0.5-0.7-0.6c0.3-0.4,0.5-1,0.4-1.6l-2.1,0.2L218.1,254.5z"/>
	</g>
	<g>
		<path class="st13" d="M144.8,149.4c0.5,0.3,1,0.6,1.3,1.1c0.6-0.8,1.5-1.3,2.5-1.4c-0.5-0.7-0.8-1.5-0.8-2.4
			c-0.4,0.1-0.7,0.2-1.1,0.2c-0.9,0-1.8-0.3-2.5-0.9l-2.4,1.1l3.8-0.3C145.6,147.7,145.3,148.7,144.8,149.4z"/>
		<path class="st13" d="M152.3,141.5c-0.6,0-1.2,0.1-1.8,0.4c-0.4-1.9-2-3.4-3.9-3.4c-2.2,0-3.9,1.9-3.9,4.2c0,0.2,0,0.3,0,0.5
			c-0.4-0.1-0.8-0.2-1.3-0.1c-2.1,0.2-3.6,2.1-3.5,4.3c0.1,1.6,1.1,2.9,2.4,3.4c-0.2,0.3-0.3,0.6-0.4,1c-0.5,2,0.6,4,2.5,4.5
			c1.4,0.4,2.8-0.2,3.6-1.3c0.6,0.9,1.6,1.4,2.7,1.4c1.9,0,3.5-1.6,3.5-3.7c0-0.6-0.1-1.2-0.4-1.7c0.1,0,0.3,0,0.4,0
			c2.5,0,4.5-2.1,4.5-4.8C156.8,143.6,154.8,141.5,152.3,141.5z M144.2,146c0.7,0.6,1.5,0.9,2.5,0.9c0.4,0,0.8-0.1,1.1-0.2
			c0.1,0.9,0.4,1.7,0.8,2.4c-1,0.1-1.9,0.6-2.5,1.4c-0.3-0.5-0.8-0.8-1.3-1.1c0.5-0.7,0.8-1.7,0.7-2.7l-3.8,0.3L144.2,146z"/>
	</g>
	<g>
		<path class="st13" d="M183,107.5c1.5,0.7,2.8,1.7,3.7,3c1.7-2.3,4.3-3.7,7.3-3.9c-1.4-1.9-2.2-4.2-2.4-6.6c-1,0.3-2.1,0.5-3.3,0.5
			c-2.7,0-5.2-1-7.1-2.6l-7,3l10.9-0.9C185.4,102.8,184.5,105.4,183,107.5z"/>
		<path class="st13" d="M204.7,85.5c-1.8,0-3.6,0.4-5.1,1.1c-1.1-5.3-5.7-9.3-11.2-9.3c-6.3,0-11.4,5.2-11.4,11.6
			c0,0.4,0,0.9,0.1,1.3c-1.2-0.3-2.4-0.5-3.7-0.4c-6,0.5-10.6,5.9-10.1,12c0.3,4.4,3.2,8.1,7.1,9.6c-0.5,0.8-0.9,1.8-1.2,2.8
			c-1.4,5.5,1.8,11,7.1,12.5c4,1.1,8.1-0.5,10.5-3.6c1.8,2.4,4.7,3.9,7.9,3.9c5.5,0,10-4.6,10-10.2c0-1.7-0.4-3.3-1.1-4.7
			c0.4,0,0.8,0.1,1.1,0.1c7.2,0,13.1-6,13.1-13.3C217.8,91.4,211.9,85.5,204.7,85.5z M181.2,97.9c2,1.6,4.4,2.6,7.1,2.6
			c1.1,0,2.2-0.2,3.3-0.5c0.2,2.5,1.1,4.7,2.4,6.6c-3,0.2-5.6,1.7-7.3,3.9c-1-1.3-2.2-2.3-3.7-3c1.5-2.1,2.3-4.7,2.1-7.4l-10.9,0.9
			L181.2,97.9z"/>
	</g>
	<g>
		<path class="st13" d="M55.6,99.2c1.2,0.6,2.3,1.5,3.1,2.6c1.4-1.9,3.6-3.2,6.1-3.4c-1.1-1.6-1.9-3.6-2-5.7
			C61.9,93,61,93.1,60,93.1c-2.3,0-4.3-0.8-6-2.2l-5.9,2.6l9.1-0.8C57.6,95.2,56.9,97.4,55.6,99.2z"/>
		<path class="st13" d="M73.7,80.2c-1.5,0-3,0.3-4.3,0.9C68.5,76.5,64.7,73,60,73c-5.3,0-9.5,4.5-9.5,10.1c0,0.4,0,0.8,0.1,1.1
			c-1-0.3-2-0.4-3.1-0.3c-5,0.4-8.8,5.1-8.4,10.4c0.3,3.8,2.7,7,5.9,8.3c-0.4,0.7-0.8,1.5-1,2.4c-1.2,4.7,1.5,9.6,6,10.8
			c3.4,0.9,6.8-0.4,8.8-3.1c1.5,2.1,3.9,3.4,6.6,3.4c4.6,0,8.4-4,8.4-8.8c0-1.5-0.3-2.9-1-4.1c0.3,0,0.6,0.1,1,0.1
			c6,0,10.9-5.2,10.9-11.5C84.7,85.3,79.8,80.2,73.7,80.2z M54.1,90.9c1.6,1.4,3.7,2.2,6,2.2c1,0,1.9-0.2,2.8-0.4
			c0.2,2.1,0.9,4.1,2,5.7c-2.5,0.1-4.7,1.4-6.1,3.4c-0.8-1.1-1.9-2-3.1-2.6c1.3-1.8,1.9-4.1,1.8-6.4l-9.1,0.8L54.1,90.9z"/>
	</g>
	<g>
		<path class="st13" d="M105.1,97.1c1.5,0.7,2.8,1.7,3.7,3c1.7-2.3,4.3-3.7,7.3-3.9c-1.4-1.9-2.2-4.2-2.4-6.6
			c-1,0.3-2.1,0.5-3.3,0.5c-2.7,0-5.2-1-7.1-2.6l-7,3l10.9-0.9C107.4,92.4,106.6,95,105.1,97.1z"/>
		<path class="st13" d="M126.7,75.1c-1.8,0-3.6,0.4-5.1,1.1c-1.1-5.3-5.7-9.3-11.2-9.3c-6.3,0-11.4,5.2-11.4,11.6
			c0,0.4,0,0.9,0.1,1.3c-1.2-0.3-2.4-0.5-3.7-0.4c-6,0.5-10.6,5.9-10.1,12c0.3,4.4,3.2,8.1,7.1,9.6c-0.5,0.8-0.9,1.8-1.2,2.8
			c-1.4,5.5,1.8,11,7.1,12.5c4,1.1,8.1-0.5,10.5-3.6c1.8,2.4,4.7,3.9,7.9,3.9c5.5,0,10-4.6,10-10.2c0-1.7-0.4-3.3-1.1-4.7
			c0.4,0,0.8,0.1,1.1,0.1c7.2,0,13.1-6,13.1-13.3C139.8,81,134,75.1,126.7,75.1z M103.3,87.5c2,1.6,4.4,2.6,7.1,2.6
			c1.1,0,2.2-0.2,3.3-0.5c0.2,2.5,1.1,4.7,2.4,6.6c-3,0.2-5.6,1.7-7.3,3.9c-1-1.3-2.2-2.3-3.7-3c1.5-2.1,2.3-4.7,2.1-7.4l-10.9,0.9
			L103.3,87.5z"/>
	</g>
	<g>
		<path class="st13" d="M242.3,119.9c1.1,0.5,2,1.2,2.8,2.1c1.3-1.6,3.2-2.6,5.4-2.7c-1-1.3-1.6-2.9-1.8-4.6
			c-0.8,0.2-1.6,0.3-2.4,0.3c-2,0-3.8-0.7-5.3-1.8l-5.2,2.1l8.1-0.6C244,116.6,243.4,118.4,242.3,119.9z"/>
		<path class="st13" d="M258.3,104.5c-1.3,0-2.6,0.3-3.8,0.7c-0.8-3.7-4.2-6.5-8.3-6.5c-4.7,0-8.4,3.6-8.4,8.1c0,0.3,0,0.6,0.1,0.9
			c-0.9-0.2-1.8-0.3-2.7-0.3c-4.4,0.3-7.8,4.1-7.5,8.4c0.3,3.1,2.4,5.7,5.2,6.7c-0.4,0.6-0.7,1.2-0.9,1.9c-1,3.8,1.3,7.7,5.3,8.7
			c3,0.8,6-0.3,7.8-2.5c1.4,1.7,3.5,2.8,5.8,2.8c4.1,0,7.4-3.2,7.4-7.1c0-1.2-0.3-2.3-0.8-3.3c0.3,0,0.6,0,0.8,0
			c5.3,0,9.7-4.2,9.7-9.3C268,108.6,263.7,104.5,258.3,104.5z M241,113.2c1.4,1.1,3.3,1.8,5.3,1.8c0.8,0,1.7-0.1,2.4-0.3
			c0.2,1.7,0.8,3.3,1.8,4.6c-2.2,0.1-4.1,1.2-5.4,2.7c-0.7-0.9-1.6-1.6-2.8-2.1c1.1-1.5,1.7-3.3,1.6-5.2l-8.1,0.6L241,113.2z"/>
	</g>
	<g>
		<path class="st13" d="M73.7,265.6c0.3,0.1,0.5,0.3,0.7,0.5c0.3-0.4,0.8-0.7,1.4-0.7c-0.3-0.3-0.4-0.8-0.5-1.2
			c-0.2,0.1-0.4,0.1-0.6,0.1c-0.5,0-1-0.2-1.4-0.5l-1.4,0.6l2.1-0.2C74.1,264.7,74,265.2,73.7,265.6z"/>
		<path class="st13" d="M77.9,261.6c-0.4,0-0.7,0.1-1,0.2c-0.2-1-1.1-1.7-2.2-1.7c-1.2,0-2.2,0.9-2.2,2.1c0,0.1,0,0.2,0,0.2
			c-0.2-0.1-0.5-0.1-0.7-0.1c-1.2,0.1-2,1.1-1.9,2.2c0.1,0.8,0.6,1.5,1.4,1.7c-0.1,0.2-0.2,0.3-0.2,0.5c-0.3,1,0.3,2,1.4,2.3
			c0.8,0.2,1.6-0.1,2-0.7c0.4,0.4,0.9,0.7,1.5,0.7c1.1,0,1.9-0.8,1.9-1.9c0-0.3-0.1-0.6-0.2-0.9c0.1,0,0.1,0,0.2,0
			c1.4,0,2.5-1.1,2.5-2.4C80.4,262.7,79.3,261.6,77.9,261.6z M73.4,263.8c0.4,0.3,0.9,0.5,1.4,0.5c0.2,0,0.4,0,0.6-0.1
			c0,0.4,0.2,0.9,0.5,1.2c-0.6,0-1.1,0.3-1.4,0.7c-0.2-0.2-0.4-0.4-0.7-0.5c0.3-0.4,0.4-0.9,0.4-1.4l-2.1,0.2L73.4,263.8z"/>
	</g>
	<g>
		<path class="st13" d="M88.6,276.5c0.3,0.1,0.5,0.3,0.7,0.5c0.3-0.4,0.8-0.7,1.4-0.7c-0.3-0.3-0.4-0.8-0.5-1.2
			c-0.2,0.1-0.4,0.1-0.6,0.1c-0.5,0-1-0.2-1.4-0.5l-1.4,0.6l2.1-0.2C89.1,275.6,88.9,276.1,88.6,276.5z"/>
		<path class="st13" d="M92.8,272.5c-0.4,0-0.7,0.1-1,0.2c-0.2-1-1.1-1.7-2.2-1.7c-1.2,0-2.2,0.9-2.2,2.1c0,0.1,0,0.2,0,0.2
			c-0.2-0.1-0.5-0.1-0.7-0.1c-1.2,0.1-2,1.1-1.9,2.2c0.1,0.8,0.6,1.5,1.4,1.7c-0.1,0.2-0.2,0.3-0.2,0.5c-0.3,1,0.3,2,1.4,2.3
			c0.8,0.2,1.6-0.1,2-0.7c0.4,0.4,0.9,0.7,1.5,0.7c1.1,0,1.9-0.8,1.9-1.9c0-0.3-0.1-0.6-0.2-0.9c0.1,0,0.1,0,0.2,0
			c1.4,0,2.5-1.1,2.5-2.4C95.3,273.5,94.2,272.5,92.8,272.5z M88.3,274.7c0.4,0.3,0.9,0.5,1.4,0.5c0.2,0,0.4,0,0.6-0.1
			c0,0.4,0.2,0.9,0.5,1.2c-0.6,0-1.1,0.3-1.4,0.7c-0.2-0.2-0.4-0.4-0.7-0.5c0.3-0.4,0.4-0.9,0.4-1.4l-2.1,0.2L88.3,274.7z"/>
	</g>
	<g>
		<path class="st13" d="M48.4,215c0.3,0.1,0.5,0.3,0.7,0.5c0.3-0.4,0.8-0.7,1.4-0.7c-0.3-0.3-0.4-0.8-0.5-1.2
			c-0.2,0.1-0.4,0.1-0.6,0.1c-0.5,0-1-0.2-1.4-0.5l-1.4,0.6l2.1-0.2C48.9,214.2,48.7,214.7,48.4,215z"/>
		<path class="st13" d="M52.6,211c-0.4,0-0.7,0.1-1,0.2c-0.2-1-1.1-1.7-2.2-1.7c-1.2,0-2.2,0.9-2.2,2.1c0,0.1,0,0.2,0,0.2
			c-0.2-0.1-0.5-0.1-0.7-0.1c-1.2,0.1-2,1.1-1.9,2.2c0.1,0.8,0.6,1.5,1.4,1.7c-0.1,0.2-0.2,0.3-0.2,0.5c-0.3,1,0.3,2,1.4,2.3
			c0.8,0.2,1.6-0.1,2-0.7c0.4,0.4,0.9,0.7,1.5,0.7c1.1,0,1.9-0.8,1.9-1.9c0-0.3-0.1-0.6-0.2-0.9c0.1,0,0.1,0,0.2,0
			c1.4,0,2.5-1.1,2.5-2.4C55.1,212.1,54,211,52.6,211z M48.1,213.3c0.4,0.3,0.9,0.5,1.4,0.5c0.2,0,0.4,0,0.6-0.1
			c0,0.4,0.2,0.9,0.5,1.2c-0.6,0-1.1,0.3-1.4,0.7c-0.2-0.2-0.4-0.4-0.7-0.5c0.3-0.4,0.4-0.9,0.4-1.4l-2.1,0.2L48.1,213.3z"/>
	</g>
	<g>
		<path class="st13" d="M185,223.3c0.3,0.1,0.5,0.3,0.7,0.5c0.3-0.4,0.8-0.7,1.4-0.7c-0.3-0.3-0.4-0.8-0.5-1.2
			c-0.2,0.1-0.4,0.1-0.6,0.1c-0.5,0-1-0.2-1.4-0.5l-1.4,0.6l2.1-0.2C185.5,222.5,185.3,222.9,185,223.3z"/>
		<path class="st13" d="M189.2,219.3c-0.4,0-0.7,0.1-1,0.2c-0.2-1-1.1-1.7-2.2-1.7c-1.2,0-2.2,0.9-2.2,2.1c0,0.1,0,0.2,0,0.2
			c-0.2-0.1-0.5-0.1-0.7-0.1c-1.2,0.1-2,1.1-1.9,2.2c0.1,0.8,0.6,1.5,1.4,1.7c-0.1,0.2-0.2,0.3-0.2,0.5c-0.3,1,0.3,2,1.4,2.3
			c0.8,0.2,1.6-0.1,2-0.7c0.4,0.4,0.9,0.7,1.5,0.7c1.1,0,1.9-0.8,1.9-1.9c0-0.3-0.1-0.6-0.2-0.9c0.1,0,0.1,0,0.2,0
			c1.4,0,2.5-1.1,2.5-2.4C191.7,220.4,190.6,219.3,189.2,219.3z M184.7,221.6c0.4,0.3,0.9,0.5,1.4,0.5c0.2,0,0.4,0,0.6-0.1
			c0,0.4,0.2,0.9,0.5,1.2c-0.6,0-1.1,0.3-1.4,0.7c-0.2-0.2-0.4-0.4-0.7-0.5c0.3-0.4,0.4-0.9,0.4-1.4l-2.1,0.2L184.7,221.6z"/>
	</g>
	<g>
		<path class="st13" d="M229.4,235.8c0.3,0.1,0.5,0.3,0.7,0.5c0.3-0.4,0.8-0.7,1.4-0.7c-0.3-0.3-0.4-0.8-0.5-1.2
			c-0.2,0.1-0.4,0.1-0.6,0.1c-0.5,0-1-0.2-1.4-0.5l-1.4,0.6l2.1-0.2C229.8,235,229.6,235.4,229.4,235.8z"/>
		<path class="st13" d="M233.5,231.8c-0.4,0-0.7,0.1-1,0.2c-0.2-1-1.1-1.7-2.2-1.7c-1.2,0-2.2,0.9-2.2,2.1c0,0.1,0,0.2,0,0.2
			c-0.2-0.1-0.5-0.1-0.7-0.1c-1.2,0.1-2,1.1-1.9,2.2c0.1,0.8,0.6,1.5,1.4,1.7c-0.1,0.2-0.2,0.3-0.2,0.5c-0.3,1,0.3,2,1.4,2.3
			c0.8,0.2,1.6-0.1,2-0.7c0.4,0.4,0.9,0.7,1.5,0.7c1.1,0,1.9-0.8,1.9-1.9c0-0.3-0.1-0.6-0.2-0.9c0.1,0,0.1,0,0.2,0
			c1.4,0,2.5-1.1,2.5-2.4C236,232.9,234.9,231.8,233.5,231.8z M229,234.1c0.4,0.3,0.9,0.5,1.4,0.5c0.2,0,0.4,0,0.6-0.1
			c0,0.4,0.2,0.9,0.5,1.2c-0.6,0-1.1,0.3-1.4,0.7c-0.2-0.2-0.4-0.4-0.7-0.5c0.3-0.4,0.4-0.9,0.4-1.4l-2.1,0.2L229,234.1z"/>
	</g>
	<g>
		<path class="st13" d="M242.2,239.9c0.3,0.1,0.5,0.3,0.7,0.5c0.3-0.4,0.8-0.7,1.4-0.7c-0.3-0.3-0.4-0.8-0.5-1.2
			c-0.2,0.1-0.4,0.1-0.6,0.1c-0.5,0-1-0.2-1.4-0.5l-1.4,0.6l2.1-0.2C242.6,239.1,242.5,239.5,242.2,239.9z"/>
		<path class="st13" d="M246.4,235.9c-0.4,0-0.7,0.1-1,0.2c-0.2-1-1.1-1.7-2.2-1.7c-1.2,0-2.2,0.9-2.2,2.1c0,0.1,0,0.2,0,0.2
			c-0.2-0.1-0.5-0.1-0.7-0.1c-1.2,0.1-2,1.1-1.9,2.2c0.1,0.8,0.6,1.5,1.4,1.7c-0.1,0.2-0.2,0.3-0.2,0.5c-0.3,1,0.3,2,1.4,2.3
			c0.8,0.2,1.6-0.1,2-0.7c0.4,0.4,0.9,0.7,1.5,0.7c1.1,0,1.9-0.8,1.9-1.9c0-0.3-0.1-0.6-0.2-0.9c0.1,0,0.1,0,0.2,0
			c1.4,0,2.5-1.1,2.5-2.4C248.9,237,247.8,235.9,246.4,235.9z M241.9,238.2c0.4,0.3,0.9,0.5,1.4,0.5c0.2,0,0.4,0,0.6-0.1
			c0,0.4,0.2,0.9,0.5,1.2c-0.6,0-1.1,0.3-1.4,0.7c-0.2-0.2-0.4-0.4-0.7-0.5c0.3-0.4,0.4-0.9,0.4-1.4l-2.1,0.2L241.9,238.2z"/>
	</g>
	<g>
		<path class="st13" d="M109.5,204.3c0.5,0.3,1,0.6,1.3,1.1c0.6-0.8,1.5-1.3,2.5-1.4c-0.5-0.7-0.8-1.5-0.8-2.4
			c-0.4,0.1-0.7,0.2-1.1,0.2c-0.9,0-1.8-0.3-2.5-0.9l-2.4,1.1l3.8-0.3C110.3,202.6,110,203.5,109.5,204.3z"/>
		<path class="st13" d="M116.9,196.3c-0.6,0-1.2,0.1-1.8,0.4c-0.4-1.9-2-3.4-3.9-3.4c-2.2,0-3.9,1.9-3.9,4.2c0,0.2,0,0.3,0,0.5
			c-0.4-0.1-0.8-0.2-1.3-0.1c-2.1,0.2-3.6,2.1-3.5,4.3c0.1,1.6,1.1,2.9,2.4,3.4c-0.2,0.3-0.3,0.6-0.4,1c-0.5,2,0.6,4,2.5,4.5
			c1.4,0.4,2.8-0.2,3.6-1.3c0.6,0.9,1.6,1.4,2.7,1.4c1.9,0,3.5-1.6,3.5-3.7c0-0.6-0.1-1.2-0.4-1.7c0.1,0,0.3,0,0.4,0
			c2.5,0,4.5-2.1,4.5-4.8C121.5,198.5,119.4,196.3,116.9,196.3z M108.8,200.8c0.7,0.6,1.5,0.9,2.5,0.9c0.4,0,0.8-0.1,1.1-0.2
			c0.1,0.9,0.4,1.7,0.8,2.4c-1,0.1-1.9,0.6-2.5,1.4c-0.3-0.5-0.8-0.8-1.3-1.1c0.5-0.7,0.8-1.7,0.7-2.7l-3.8,0.3L108.8,200.8z"/>
	</g>
	<g>
		<path class="st13" d="M191.5,184.5c0.5,0.3,1,0.6,1.3,1.1c0.6-0.8,1.5-1.3,2.5-1.4c-0.5-0.7-0.8-1.5-0.8-2.4
			c-0.4,0.1-0.7,0.2-1.1,0.2c-0.9,0-1.8-0.3-2.5-0.9l-2.4,1.1l3.8-0.3C192.3,182.8,192,183.7,191.5,184.5z"/>
		<path class="st13" d="M199,176.5c-0.6,0-1.2,0.1-1.8,0.4c-0.4-1.9-2-3.4-3.9-3.4c-2.2,0-3.9,1.9-3.9,4.2c0,0.2,0,0.3,0,0.5
			c-0.4-0.1-0.8-0.2-1.3-0.1c-2.1,0.2-3.6,2.1-3.5,4.3c0.1,1.6,1.1,2.9,2.4,3.4c-0.2,0.3-0.3,0.6-0.4,1c-0.5,2,0.6,4,2.5,4.5
			c1.4,0.4,2.8-0.2,3.6-1.3c0.6,0.9,1.6,1.4,2.7,1.4c1.9,0,3.5-1.6,3.5-3.7c0-0.6-0.1-1.2-0.4-1.7c0.1,0,0.3,0,0.4,0
			c2.5,0,4.5-2.1,4.5-4.8S201.5,176.5,199,176.5z M190.9,181c0.7,0.6,1.5,0.9,2.5,0.9c0.4,0,0.8-0.1,1.1-0.2
			c0.1,0.9,0.4,1.7,0.8,2.4c-1,0.1-1.9,0.6-2.5,1.4c-0.3-0.5-0.8-0.8-1.3-1.1c0.5-0.7,0.8-1.7,0.7-2.7l-3.8,0.3L190.9,181z"/>
	</g>
	<g>
		<path class="st13" d="M109.5,279.5c0.5,0.3,1,0.6,1.3,1.1c0.6-0.8,1.5-1.3,2.5-1.4c-0.5-0.7-0.8-1.5-0.8-2.4
			c-0.4,0.1-0.7,0.2-1.1,0.2c-0.9,0-1.8-0.3-2.5-0.9l-2.4,1.1l3.8-0.3C110.3,277.8,110,278.8,109.5,279.5z"/>
		<path class="st13" d="M116.9,271.6c-0.6,0-1.2,0.1-1.8,0.4c-0.4-1.9-2-3.4-3.9-3.4c-2.2,0-3.9,1.9-3.9,4.2c0,0.2,0,0.3,0,0.5
			c-0.4-0.1-0.8-0.2-1.3-0.1c-2.1,0.2-3.6,2.1-3.5,4.3c0.1,1.6,1.1,2.9,2.4,3.4c-0.2,0.3-0.3,0.6-0.4,1c-0.5,2,0.6,4,2.5,4.5
			c1.4,0.4,2.8-0.2,3.6-1.3c0.6,0.9,1.6,1.4,2.7,1.4c1.9,0,3.5-1.6,3.5-3.7c0-0.6-0.1-1.2-0.4-1.7c0.1,0,0.3,0,0.4,0
			c2.5,0,4.5-2.1,4.5-4.8S119.4,271.6,116.9,271.6z M108.8,276.1c0.7,0.6,1.5,0.9,2.5,0.9c0.4,0,0.8-0.1,1.1-0.2
			c0.1,0.9,0.4,1.7,0.8,2.4c-1,0.1-1.9,0.6-2.5,1.4c-0.3-0.5-0.8-0.8-1.3-1.1c0.5-0.7,0.8-1.7,0.7-2.7l-3.8,0.3L108.8,276.1z"/>
	</g>
	<line class="st15" x1="116.9" y1="222.7" x2="112" y2="211.3"/>
	<line class="st15" x1="63.9" y1="175.6" x2="68.2" y2="185.6"/>
	<line class="st15" x1="194.7" y1="190.6" x2="201.4" y2="204.4"/>
	<line class="st15" x1="210.9" y1="228.4" x2="207.9" y2="238.2"/>
	<line class="st15" x1="242.1" y1="207.4" x2="238.4" y2="214.9"/>
	<line class="st15" x1="225.3" y1="183.9" x2="219.9" y2="196.2"/>
	<line class="st15" x1="46.3" y1="191.5" x2="51.9" y2="204.4"/>
	<line class="st15" x1="80.4" y1="211.3" x2="82.9" y2="216.2"/>
	<line class="st15" x1="82.5" y1="242.6" x2="86.9" y2="250.9"/>
	<line class="st15" x1="193.1" y1="254" x2="194.1" y2="261.2"/>
	<line class="st15" x1="108.8" y1="112.6" x2="113.3" y2="133.5"/>
	<line class="st15" x1="61.9" y1="113.2" x2="68.2" y2="127"/>
	<line class="st15" x1="186.8" y1="123" x2="180.9" y2="138.5"/>
	<line class="st15" x1="245.1" y1="130.8" x2="242.1" y2="141.8"/>
	<g>
		<path class="st13" d="M193.2,141.9c0.3,0.1,0.5,0.3,0.7,0.5c0.3-0.4,0.8-0.7,1.4-0.7c-0.3-0.3-0.4-0.8-0.5-1.2
			c-0.2,0.1-0.4,0.1-0.6,0.1c-0.5,0-1-0.2-1.4-0.5l-1.4,0.6l2.1-0.2C193.6,141.1,193.5,141.5,193.2,141.9z"/>
		<path class="st13" d="M197.4,137.9c-0.4,0-0.7,0.1-1,0.2c-0.2-1-1.1-1.7-2.2-1.7c-1.2,0-2.2,0.9-2.2,2.1c0,0.1,0,0.2,0,0.2
			c-0.2-0.1-0.5-0.1-0.7-0.1c-1.2,0.1-2,1.1-1.9,2.2c0.1,0.8,0.6,1.5,1.4,1.7c-0.1,0.2-0.2,0.3-0.2,0.5c-0.3,1,0.3,2,1.4,2.3
			c0.8,0.2,1.6-0.1,2-0.7c0.4,0.4,0.9,0.7,1.5,0.7c1.1,0,1.9-0.8,1.9-1.9c0-0.3-0.1-0.6-0.2-0.9c0.1,0,0.1,0,0.2,0
			c1.4,0,2.5-1.1,2.5-2.4C199.9,139,198.8,137.9,197.4,137.9z M192.9,140.2c0.4,0.3,0.9,0.5,1.4,0.5c0.2,0,0.4,0,0.6-0.1
			c0,0.4,0.2,0.9,0.5,1.2c-0.6,0-1.1,0.3-1.4,0.7c-0.2-0.2-0.4-0.4-0.7-0.5c0.3-0.4,0.4-0.9,0.4-1.4l-2.1,0.2L192.9,140.2z"/>
	</g>
	<g>
		<path class="st13" d="M179.4,235c0.3,0.1,0.5,0.3,0.7,0.5c0.3-0.4,0.8-0.7,1.4-0.7c-0.3-0.3-0.4-0.8-0.5-1.2
			c-0.2,0.1-0.4,0.1-0.6,0.1c-0.5,0-1-0.2-1.4-0.5l-1.4,0.6l2.1-0.2C179.8,234.1,179.7,234.6,179.4,235z"/>
		<path class="st13" d="M183.6,231c-0.4,0-0.7,0.1-1,0.2c-0.2-1-1.1-1.7-2.2-1.7c-1.2,0-2.2,0.9-2.2,2.1c0,0.1,0,0.2,0,0.2
			c-0.2-0.1-0.5-0.1-0.7-0.1c-1.2,0.1-2,1.1-1.9,2.2c0.1,0.8,0.6,1.5,1.4,1.7c-0.1,0.2-0.2,0.3-0.2,0.5c-0.3,1,0.3,2,1.4,2.3
			c0.8,0.2,1.6-0.1,2-0.7c0.4,0.4,0.9,0.7,1.5,0.7c1.1,0,1.9-0.8,1.9-1.9c0-0.3-0.1-0.6-0.2-0.9c0.1,0,0.1,0,0.2,0
			c1.4,0,2.5-1.1,2.5-2.4C186.1,232.1,185,231,183.6,231z M179.1,233.2c0.4,0.3,0.9,0.5,1.4,0.5c0.2,0,0.4,0,0.6-0.1
			c0,0.4,0.2,0.9,0.5,1.2c-0.6,0-1.1,0.3-1.4,0.7c-0.2-0.2-0.4-0.4-0.7-0.5c0.3-0.4,0.4-0.9,0.4-1.4l-2.1,0.2L179.1,233.2z"/>
	</g>
	<line class="st15" x1="182.7" y1="233.6" x2="191.5" y2="234.8"/>
</g>
<g id="Layer_2">
	<g>
		<path class="st13" d="M70.7,203.6c0.8,0.4,1.5,0.9,2,1.6c0.9-1.2,2.4-2,4-2.1c-0.7-1-1.2-2.2-1.3-3.6c-0.6,0.2-1.2,0.3-1.8,0.3
			c-1.5,0-2.8-0.5-3.9-1.4l-3.8,1.7l6-0.5C72,201.1,71.6,202.5,70.7,203.6z"/>
		<path class="st13" d="M82.6,191.7c-1,0-1.9,0.2-2.8,0.6c-0.6-2.9-3.1-5-6.1-5c-3.5,0-6.3,2.8-6.3,6.3c0,0.2,0,0.5,0,0.7
			c-0.6-0.2-1.3-0.2-2-0.2c-3.3,0.3-5.8,3.2-5.5,6.5c0.2,2.4,1.8,4.3,3.9,5.1c-0.3,0.5-0.5,1-0.6,1.5c-0.8,2.9,1,5.9,3.9,6.7
			c2.2,0.6,4.4-0.3,5.7-1.9c1,1.3,2.6,2.1,4.3,2.1c3,0,5.5-2.5,5.5-5.5c0-0.9-0.2-1.8-0.6-2.5c0.2,0,0.4,0,0.6,0
			c4,0,7.2-3.2,7.2-7.2C89.7,194.9,86.5,191.7,82.6,191.7z M69.7,198.4c1.1,0.9,2.4,1.4,3.9,1.4c0.6,0,1.2-0.1,1.8-0.3
			c0.1,1.3,0.6,2.5,1.3,3.6c-1.6,0.1-3.1,0.9-4,2.1c-0.5-0.7-1.2-1.2-2-1.6c0.8-1.1,1.3-2.5,1.1-4l-6,0.5L69.7,198.4z"/>
	</g>
	<g class="st16">
		<path class="st13" d="M95.5,256.1c0.8,0.4,1.5,0.9,2,1.6c0.9-1.2,2.4-2,4-2.1c-0.7-1-1.2-2.2-1.3-3.6c-0.6,0.2-1.2,0.3-1.8,0.3
			c-1.5,0-2.8-0.5-3.9-1.4l-3.8,1.6l6-0.5C96.8,253.5,96.3,254.9,95.5,256.1z"/>
		<path class="st13" d="M107.3,244.2c-1,0-1.9,0.2-2.8,0.6c-0.6-2.9-3.1-5-6.1-5c-3.5,0-6.3,2.8-6.3,6.3c0,0.2,0,0.5,0,0.7
			c-0.6-0.2-1.3-0.2-2-0.2c-3.3,0.3-5.8,3.2-5.5,6.5c0.2,2.4,1.8,4.3,3.9,5.1c-0.3,0.5-0.5,1-0.6,1.5c-0.8,2.9,1,5.9,3.9,6.7
			c2.2,0.6,4.4-0.3,5.7-1.9c1,1.3,2.6,2.1,4.3,2.1c3,0,5.5-2.5,5.5-5.5c0-0.9-0.2-1.8-0.6-2.5c0.2,0,0.4,0,0.6,0
			c4,0,7.2-3.2,7.2-7.2C114.5,247.4,111.3,244.2,107.3,244.2z M94.5,250.9c1.1,0.9,2.4,1.4,3.9,1.4c0.6,0,1.2-0.1,1.8-0.3
			c0.1,1.3,0.6,2.5,1.3,3.6c-1.6,0.1-3.1,0.9-4,2.1c-0.5-0.7-1.2-1.2-2-1.6c0.8-1.1,1.3-2.5,1.1-4l-6,0.5L94.5,250.9z"/>
	</g>
	<g>
		<path class="st13" d="M65.5,238.9c1.2,0.6,2.2,1.4,2.9,2.4c1.4-1.8,3.4-2.9,5.8-3.1c-1.1-1.5-1.8-3.3-1.9-5.2
			c-0.8,0.3-1.7,0.4-2.6,0.4c-2.1,0-4.1-0.8-5.6-2l-5.5,2.4l8.6-0.7C67.3,235.2,66.7,237.3,65.5,238.9z"/>
		<path class="st13" d="M82.5,221.6c-1.4,0-2.8,0.3-4,0.8c-0.8-4.2-4.5-7.3-8.8-7.3c-5,0-9,4.1-9,9.2c0,0.3,0,0.7,0.1,1
			c-0.9-0.3-1.9-0.4-2.9-0.3c-4.7,0.4-8.3,4.7-7.9,9.5c0.3,3.5,2.5,6.4,5.6,7.5c-0.4,0.7-0.7,1.4-0.9,2.2c-1.1,4.3,1.4,8.7,5.6,9.8
			c3.2,0.9,6.4-0.4,8.3-2.8c1.4,1.9,3.7,3.1,6.2,3.1c4.4,0,7.9-3.6,7.9-8c0-1.3-0.3-2.6-0.9-3.7c0.3,0,0.6,0,0.9,0
			c5.7,0,10.3-4.7,10.3-10.5C92.8,226.3,88.2,221.6,82.5,221.6z M64,231.4c1.5,1.3,3.5,2,5.6,2c0.9,0,1.8-0.1,2.6-0.4
			c0.2,1.9,0.9,3.7,1.9,5.2c-2.3,0.1-4.4,1.3-5.8,3.1c-0.8-1-1.8-1.8-2.9-2.4c1.2-1.6,1.8-3.7,1.7-5.9l-8.6,0.7L64,231.4z"/>
	</g>
	<g>
		<path class="st13" d="M112.2,235.9c0.5,0.2,0.9,0.6,1.2,1c0.5-0.7,1.3-1.2,2.3-1.2c-0.4-0.6-0.7-1.3-0.8-2.1
			c-0.3,0.1-0.7,0.2-1,0.2c-0.8,0-1.6-0.3-2.2-0.8l-2.2,1l3.4-0.3C112.9,234.4,112.7,235.2,112.2,235.9z"/>
		<path class="st13" d="M118.9,228.9c-0.6,0-1.1,0.1-1.6,0.3c-0.3-1.7-1.8-3-3.5-3c-2,0-3.5,1.7-3.5,3.7c0,0.1,0,0.3,0,0.4
			c-0.4-0.1-0.7-0.1-1.1-0.1c-1.9,0.2-3.3,1.9-3.1,3.8c0.1,1.4,1,2.6,2.2,3c-0.2,0.3-0.3,0.6-0.4,0.9c-0.4,1.7,0.5,3.5,2.2,4
			c1.2,0.3,2.5-0.1,3.3-1.1c0.6,0.8,1.5,1.2,2.4,1.2c1.7,0,3.1-1.4,3.1-3.2c0-0.5-0.1-1-0.4-1.5c0.1,0,0.2,0,0.4,0
			c2.2,0,4.1-1.9,4.1-4.2C123,230.8,121.1,228.9,118.9,228.9z M111.6,232.8c0.6,0.5,1.4,0.8,2.2,0.8c0.4,0,0.7-0.1,1-0.2
			c0.1,0.8,0.3,1.5,0.8,2.1c-0.9,0.1-1.7,0.5-2.3,1.2c-0.3-0.4-0.7-0.7-1.2-1c0.5-0.7,0.7-1.5,0.6-2.4l-3.4,0.3L111.6,232.8z"/>
	</g>
</g>
</svg>
