<?xml version="1.0" encoding="utf-8"?>
<!-- Generator: Adobe Illustrator 21.1.0, SVG Export Plug-In . SVG Version: 6.00 Build 0)  -->
<svg version="1.1" id="Layer_1" xmlns="http://www.w3.org/2000/svg" xmlns:xlink="http://www.w3.org/1999/xlink" x="0px" y="0px"
	 viewBox="0 0 288 560" style="enable-background:new 0 0 288 560;" xml:space="preserve">
<style type="text/css">
	.st0{fill:#BA9BC9;stroke:#BA9BC9;stroke-miterlimit:10;}
	.st1{fill:#9D6AC9;stroke:#9D6AC9;stroke-miterlimit:10;}
	.st2{fill:#F2F2F2;}
	.st3{fill:#FFFFFF;stroke:#FFFFFF;stroke-miterlimit:10;}
	.st4{fill:#FFFFFF;}
	.st5{fill:#666666;stroke:#666666;stroke-miterlimit:10;}
	.st6{fill:#E6E6E6;}
	.st7{fill:#CCCCCC;stroke:#CCCCCC;stroke-miterlimit:10;}
	.st8{fill:#999999;}
	.st9{fill:#A3A3A3;stroke:#A3A3A3;stroke-miterlimit:10;}
	.st10{fill:#CCCCCC;}
	.st11{fill:#BA9BC9;}
	.st12{fill:#4D4D4D;stroke:#4D4D4D;stroke-miterlimit:10;}
	.st13{fill:#FCCD21;stroke:#FCCD21;stroke-miterlimit:10;}
	.st14{opacity:0.4;fill:#FFFF00;stroke:#FCE221;stroke-miterlimit:10;enable-background:new    ;}
	.st15{fill:#4D4D4D;}
	.st16{fill:#FFFF00;stroke:#FCE221;stroke-miterlimit:10;}
</style>
<g id="Layer_1_1_">
	<path class="st0" d="M145.3,290.1L145.3,290.1c-78.8,0-142.8-63.9-142.8-142.7v-4.5c0-78.8,64-142.8,142.8-142.8l0,0
		C224.1,0.1,288,64,288,142.8v4.5C288,226.2,224.1,290.1,145.3,290.1z"/>
	<path class="st1" d="M89.5,279.3c4.5,1.8,9.1,3.4,13.8,4.7h78.5c0.6-0.2,1.2-0.3,1.7-0.5V42.7h-94V279.3z"/>
	<g>
		<g>
			<path class="st2" d="M153.3,207c-3.2-2-6.3-4-9.5-6c-1.6-1-3.1,1.6-1.5,2.6c3.2,2,6.3,4,9.5,6C153.4,210.6,154.9,208,153.3,207
				L153.3,207z"/>
		</g>
	</g>
	<path class="st1" d="M158.6,287.2h20.7c21-6,40.1-16.7,55.9-30.9V73.8h-76.7L158.6,287.2L158.6,287.2z"/>
	<path class="st3" d="M150.8,217.7h-5.9c-13.6,0-24.7-11.1-24.7-24.7v-12.4c0-13.6,11.1-24.7,24.7-24.7h5.9
		c13.6,0,24.7,11.1,24.7,24.7V193C175.5,206.6,164.4,217.7,150.8,217.7z"/>
	<g>
		<g>
			<path class="st4" d="M142,158.8c1.9,0,1.9-3,0-3S140.1,158.8,142,158.8L142,158.8z"/>
		</g>
	</g>
	<g>
		<g>
			<path class="st4" d="M140.7,159c-3.5,5.7-3.8,12.1-3,18.6c0.6,4.8,2.5,8.6-1.2,12.6c-1,1.1-2.1,1.6-2.5,3.2
				c-0.4,1.9,0.7,2.8,1.6,4.2c1.3,0.7,1.8,1.9,1.5,3.5c-0.1,0.2-0.2,0.4-0.2,0.6c0.2,0.8,0.1,1.2,0.7,2c2.8,3.6,12.4,2,16.2,1.3
				c1.9-0.3,1.1-3.2-0.8-2.9c-1.8,0.3-11.2,1.7-12.4-0.1c-0.5-0.7,0.3-2,0.1-2.8c-0.3-1.5-1.7-2-2.4-3.2c-1.7-2.9,0.9-3.5,2.4-5.2
				c2.4-2.9,1.1-6.5,0.6-9.8c-1.1-7-1.8-14,2-20.4C144.2,158.9,141.7,157.4,140.7,159L140.7,159z"/>
		</g>
	</g>
	<g>
		<g>
			<path class="st4" d="M144.2,169.8c-0.3-4.1,1.3-8.1,4.6-10.7c1.5-1.2,0-3.8-1.5-2.6c-4.2,3.2-6.5,8-6.1,13.3
				C141.3,171.7,144.3,171.7,144.2,169.8L144.2,169.8z"/>
		</g>
	</g>
	<g>
		<g>
			<path class="st4" d="M142.3,162.6c-2.8,5.4-3.5,11.2-2.3,17.1c0.4,1.9,3.3,1.1,2.9-0.8c-1-5.1-0.3-10.2,2-14.8
				C145.8,162.4,143.2,160.9,142.3,162.6L142.3,162.6z"/>
		</g>
	</g>
	<g>
		<g>
			<path class="st4" d="M-8.5,30.3c1.9,0,1.9-3,0-3S-10.4,30.3-8.5,30.3L-8.5,30.3z"/>
		</g>
	</g>
	<path class="st5" d="M170,226.4h-40.5c-13,0-23.5,10.5-23.5,23.5v18.5c0,7.3,3.4,13.9,8.6,18.2c10.4,2.4,21.2,3.7,32.3,3.7l0,0
		c14,0,27.5-2,40.3-5.8c3.9-4.2,6.4-9.9,6.4-16.1v-18.5C193.5,237,183,226.4,170,226.4z"/>
	<path class="st3" d="M148.2,237.6L148.2,237.6c-4,0-7.3-3.3-7.3-7.3v-12.4c0-4,3.3-7.3,7.3-7.3l0,0c4,0,7.3,3.3,7.3,7.3v12.4
		C155.5,234.4,152.2,237.6,148.2,237.6z"/>
	<g>
		<path class="st2" d="M140.8,180.4c0.7,5.1,0.4,10.4-1.1,15.4c-0.2,0.6-0.4,1.2-0.2,1.8c0.1,0.7,0.7,1.3,1.2,1.8
			c1.9,1.8,3.9,3.4,6,4.9c0.4,0.3,0.9,0.6,1.1,1.1c0.3,0.7-0.1,1.4-0.3,2.2c-0.3,1.1-0.1,2.2,0.1,3.3c1.1,8.1,1.4,16.3,0.7,24.4"/>
		<g>
			<path class="st2" d="M139.3,180.4c0.3,2.6,0.5,5.1,0.3,7.7c-0.2,2.8-1.7,6.2-1.5,9c0.2,3,3.3,4.5,5.3,6.4c3.6,3.4,3.1,9,3.5,13.9
				c0.5,6,0.4,11.9,0,17.9c-0.1,1.9,2.9,1.9,3,0c0.4-6,0.5-11.9,0-17.9c-0.2-2.7-1-5.5-0.9-8.2c0-1.5,0.9-3.1,0.2-4.6
				c-1.6-3.5-7.8-4-7.9-8.4c-0.1-2.2,1.1-4.9,1.3-7.2c0.3-2.9,0.1-5.7-0.2-8.6C142.1,178.5,139.1,178.5,139.3,180.4L139.3,180.4z"/>
		</g>
	</g>
	<g>
		<g>
			<path class="st6" d="M147.8,238.3c1.9,0,1.9-3,0-3C145.9,235.3,145.9,238.3,147.8,238.3L147.8,238.3z"/>
		</g>
	</g>
	<g>
		<g>
			<path class="st2" d="M140,180.6c1.9,0,1.9-3,0-3S138.1,180.6,140,180.6L140,180.6z"/>
		</g>
	</g>
	<rect x="120.3" y="178.1" class="st7" width="19.5" height="21.5"/>
	<path class="st7" d="M141,217.1h-2.1c-3.7,0-6.6-3-6.6-6.6v-1.6c0-3.7,3-6.6,6.6-6.6h2.1c3.7,0,6.6,3,6.6,6.6v1.6
		C147.7,214.1,144.7,217.1,141,217.1z"/>
	<path class="st7" d="M132.7,205.3h-5.2c-3.7,0-6.6-3-6.6-6.6v-0.1c0-3.7,3-6.6,6.6-6.6h5.2c3.7,0,6.6,3,6.6,6.6v0.1
		C139.3,202.3,136.4,205.3,132.7,205.3z"/>
	<path class="st7" d="M134.4,205.2h-2.3c-3.7,0-6.6-3-6.6-6.6v-2.9c0-3.7,3-6.6,6.6-6.6h2.3c3.7,0,6.6,3,6.6,6.6v2.9
		C141,202.2,138.1,205.2,134.4,205.2z"/>
	<path class="st7" d="M135.6,212.8H132c-3.7,0-6.6-3-6.6-6.6v-2.1c0-3.7,3-6.6,6.6-6.6h3.6c3.7,0,6.6,3,6.6,6.6v2.1
		C142.2,209.8,139.2,212.8,135.6,212.8z"/>
	<rect x="141" y="212.8" class="st7" width="6.5" height="19.2"/>
	<path class="st7" d="M147.5,237.3L147.5,237.3c-3.7,0-6.6-3-6.6-6.6l0,0c0-3.7,3-6.6,6.6-6.6l0,0c3.7,0,6.6,3,6.6,6.6l0,0
		C154.1,234.4,151.2,237.3,147.5,237.3z"/>
	<g>
		<g>
			<path class="st8" d="M154.8,169c1.9,0,1.9-3,0-3C152.9,166,152.9,169,154.8,169L154.8,169z"/>
		</g>
	</g>
	<g>
		<g>
			<path class="st8" d="M153.7,167.5c-2.2,6.6-5.9,12-11.2,16.5c0.8,0.6,1.6,1.2,2.4,1.8c2.1-4.6,2.7-9,1.9-13.9
				c-0.2-1.4-2.1-1.3-2.7-0.4c-5.7,8.3-19,10.5-28,13.6c0.6,0.5,1.3,1,1.9,1.4c-0.1-10.1-2.3-21.9,4.8-30.1
				c7.1-8.2,15-14.2,26.4-13.6c9.5,0.5,20.8,3.9,27,11.5c7.3,8.9,6.9,21.3,0.2,30.3c0.6-0.2,1.1-0.5,1.7-0.7
				c-9.6-3.8-18.2-9.2-25.9-16.1c-1.4-1.3-3.6,0.8-2.1,2.1c8.1,7.2,17.1,12.9,27.2,16.9c0.7,0.3,1.3-0.2,1.7-0.7
				c6.8-9.2,7.6-21.5,1.4-31.2c-6-9.3-17.3-13.5-27.9-14.8c-12.7-1.6-21.7,3.5-30.2,12.5c-3.6,3.9-6.4,7.7-7.2,13.1
				c-0.9,6.8-0.2,14-0.2,20.9c0,0.9,1,1.8,1.9,1.4c9.9-3.4,23.4-5.8,29.7-15c-0.9-0.1-1.8-0.2-2.7-0.4c0.7,4.1,0.1,7.9-1.6,11.6
				c-0.7,1.6,1,2.9,2.4,1.8c5.7-4.8,9.7-10.7,12-17.8C157.2,166.4,154.3,165.7,153.7,167.5L153.7,167.5z"/>
		</g>
	</g>
	<g>
		<g>
			<path class="st8" d="M147.8,163.5c1.1,2.2,2.3,3.9,4,5.7c1,1,3.1,0,2.5-1.5c-1.1-2.6-2.4-4.6-4.4-6.5c-1.2-1.1-3.4,0.4-2.4,1.8
				c2.2,2.8,4.6,4.9,7.9,6.3c1.6,0.7,3-1,1.8-2.4c-2.4-2.8-4.7-5.6-7.1-8.4c-1.1-1.3-3.4,0.5-2.4,1.8c4.6,6.1,10.5,10.5,17.7,13.1
				c1.7,0.6,2.4-1.8,1.2-2.7c-5-3.6-10-7.2-14.9-10.7c-1.5-1.1-2.9,1.1-1.8,2.4c3.9,4.6,8.6,7.8,14.2,9.9c0.3-1,0.5-1.9,0.8-2.9
				c-3.9-0.9-7.5-2.3-11-4.3c-1.2-0.7-3,0.8-2.1,2.1c3.7,4.8,8.4,8,14.3,9.3c1.6,0.4,2.7-1.9,1.2-2.7c-3.8-2.2-7.6-4.4-11.4-6.6
				c-1.4-0.8-3.2,1.2-1.8,2.4c4.2,3.5,8.7,5.9,14.1,7.1c1.7,0.4,2.5-1.7,1.2-2.7c-4.4-3.3-8.7-6.6-13.1-9.9c-0.5,0.9-1,1.7-1.5,2.6
				c4.6,3.2,9.3,6,14.3,8.5c1.3,0.7,2.8-0.7,2.1-2.1c-3-5.4-9.9-9.7-14.4-13.8c-1.4-1.3-3.5,0.8-2.1,2.1c5.2,4.9,10.9,9.1,17.2,12.4
				c1.4,0.8,3.1-1.2,1.8-2.4c-4.2-3.8-8.4-7.4-12.8-11c-1.5-1.2-3.5,0.7-2.1,2.1c4.2,4.2,8.9,7.6,14.1,10.5c1.7,0.9,3.1-1.5,1.5-2.6
				c-4.5-3.2-9.1-6.5-13.6-9.7c-1.4-1-3.1,1.2-1.8,2.4c3.7,3.2,7.6,5.9,11.9,8c1.4,0.7,3.2-1.2,1.8-2.4c-1.3-1-4.1-2.5-4.9-4
				c-0.3,0.7-0.6,1.5-0.9,2.2c0.1,0,0.1,0,0.2,0c-0.6-0.3-1.2-0.7-1.8-1c0,0.1,0,0.1,0,0.2c0.4,1.9,3.2,1.1,2.9-0.8
				c0-0.1,0-0.1,0-0.2c-0.2-0.9-1.1-1.2-1.8-1c-0.1,0-0.1,0-0.2,0c-1,0.2-1.3,1.4-0.9,2.2c1,1.9,3.7,3.4,5.3,4.6
				c0.6-0.8,1.2-1.6,1.8-2.4c-4.1-2.1-7.9-4.5-11.3-7.5c-0.6,0.8-1.2,1.6-1.8,2.4c4.5,3.2,9.1,6.5,13.6,9.7c0.5-0.9,1-1.7,1.5-2.6
				c-5-2.7-9.5-6-13.5-10c-0.7,0.7-1.4,1.4-2.1,2.1c4.4,3.6,8.6,7.2,12.8,11c0.6-0.8,1.2-1.6,1.8-2.4c-6.1-3.3-11.6-7.2-16.6-12
				c-0.7,0.7-1.4,1.4-2.1,2.1c2.3,2.1,4.6,4.1,6.9,6.2c2.4,2.1,5.5,4.2,7.1,7.1c0.7-0.7,1.4-1.4,2.1-2.1c-5-2.5-9.7-5.4-14.3-8.5
				c-1.6-1.1-3,1.5-1.5,2.6c4.4,3.3,8.7,6.6,13.1,9.9c0.4-0.9,0.8-1.8,1.2-2.7c-4.8-1.1-9-3.1-12.7-6.3c-0.6,0.8-1.2,1.6-1.8,2.4
				c3.8,2.2,7.6,4.4,11.4,6.6c0.4-0.9,0.8-1.8,1.2-2.7c-5.1-1.2-9.3-3.8-12.5-7.9c-0.7,0.7-1.4,1.4-2.1,2.1
				c3.7,2.2,7.5,3.7,11.7,4.6c1.9,0.4,2.6-2.2,0.8-2.9c-5.1-1.9-9.4-5-12.9-9.1c-0.6,0.8-1.2,1.6-1.8,2.4c5,3.6,10,7.2,14.9,10.7
				c0.4-0.9,0.8-1.8,1.2-2.7c-6.4-2.4-11.8-6.3-15.9-11.8c-0.8,0.6-1.6,1.2-2.4,1.8c2.4,2.8,4.7,5.6,7.1,8.4
				c0.6-0.8,1.2-1.6,1.8-2.4c-2.8-1.2-4.9-2.8-6.8-5.3c-0.8,0.6-1.6,1.2-2.4,1.8c1.6,1.5,2.8,3.1,3.6,5.2c0.8-0.5,1.7-1,2.5-1.5
				c-1.5-1.5-2.6-3.2-3.6-5.1C149.5,160.2,146.9,161.7,147.8,163.5L147.8,163.5z"/>
		</g>
	</g>
	<g>
		<g>
			<path class="st8" d="M134.6,151.6c-0.1,0.1-0.3,0.2-0.4,0.3c0.8-0.6,1.6-1.3,2.4-1.9c-1.5,1.1-3.1,2-4.8,2.8
				C132.8,152.4,133.8,152,134.6,151.6c-0.7,0.3-1.5,0.6-2.3,0.8c-2.9,0.9-5.6,2.9-7.2,5.5c-1.5,2.6-2.1,6.4-1.2,9.2
				c2,6.1,8.3,10.3,14.8,8.4c5-1.5,8.8-3.8,12.9-7c2.3-1.8,3.5-5.8,3.5-8.5c0-2.9-1.3-6.5-3.5-8.5c-2.3-2.1-5.3-3.7-8.5-3.5
				c-1.1,0.1-2.1,0.3-3.2,0.4C137.9,149.1,136.1,150.1,134.6,151.6L134.6,151.6z"/>
		</g>
	</g>
	<g>
		<g>
			<path class="st8" d="M126.3,155.9c-2.1,1.8-4.2,3.6-6.2,5.4c6.3,4.8,12.6,9.7,18.8,14.5c1.1-2.4,2.6-6.2,4.1-7.8
				c1.1-1.2,2-1.4,3.4-1.3c6.5,0.6,11.6,6.3,15.7,10.8c6.8,7.5,21.1,1.8,20.5-8.5c-0.5-7.8-4.4-14.3-11.5-17.9
				c-5.3-2.7-10.4-4.4-15.2-8c-3.1,7.3-6.2,14.6-9.2,21.9c6.4,2,12.2,5,17.8,8.7c4.9,3.3,12.1,1.4,15.5-3.1
				c3.8-5.1,2.9-10.9-0.9-15.8c-2.8-3.5-6.5-6.4-10.6-8.3c-5.9-2.7-12.9-1.7-16.4,4.3c-3,5.2-1.6,13.7,4.3,16.4
				c2.6,1.2,3.9,2.2,5.8,4.6c4.8-6.3,9.7-12.6,14.5-18.8c-7.3-4.9-15.2-8.5-23.5-11.2c-5.6-1.8-12,1.6-14.2,6.9
				c-2.4,6,0,11.3,4.9,15c3,2.2,6.1,4.1,9.5,5.6c1.3,0.6,3.7,2.2,5.1,2.1c2.7-0.3,0.7,3.9,0.2-2.5c6.8-2.8,13.7-5.7,20.5-8.5
				c-8.4-9.4-19.5-17.3-32.5-17.8c-13.9-0.5-23.1,9-28.3,20.9c-5.5,12.3,8.1,23.8,18.8,14.5c2.1-1.8,4.2-3.6,6.2-5.4
				c4.9-4.2,4.3-12.6,0-17C138.4,151,131.2,151.6,126.3,155.9L126.3,155.9z"/>
		</g>
	</g>
	<g>
		<g>
			<path class="st8" d="M119,172.8c-0.1,1.1-0.1,2.2-0.2,3.3c-0.1,0.8-0.3,1.7,0,2.5c0.6,1.8,3.5,1.5,3.3-0.6
				c-0.1-0.6-0.4-1.3-1.1-1.4h-0.1c-1.9-0.3-2.7,2.6-0.8,2.9h0.1c-0.4-0.5-0.7-1-1.1-1.4c0-0.2,0.1-0.3,0.1-0.5
				c0.3-0.2,0.6-0.5,0.9-0.7H120c0.5,0.1,1,0.3,1.5,0.4c0.2,0.6,0.3,0.6,0.2,0c0-0.1,0-0.3,0-0.4c0-0.5,0.1-1,0.1-1.4
				c0.1-0.9,0.1-1.8,0.2-2.7C122.2,170.9,119.2,170.9,119,172.8L119,172.8z"/>
		</g>
	</g>
	<g>
		<g>
			<path class="st8" d="M121.7,174.4c-0.3-1-0.6-2-0.8-3c-0.4-1.4-2.6-1.5-2.9,0c-0.3,1.6-0.5,3.1-0.4,4.7c0.1,1.5,1.1,3.7,0.4,5.1
				c0.9,0.3,1.9,0.5,2.8,0.8c0.1-3.9-0.1-7.7-0.5-11.5c-0.2-1.9-2.9-2-3,0c-0.3,4.3-0.9,8.8-0.5,13.2c0.1,1.2,1.6,2.1,2.6,1.1
				c1.9-2.2,4.2-3.8,7-4.7c-0.6-0.7-1.1-1.5-1.7-2.2c-1.5,2.1-5.6,1.9-5.6,5c0,1,0.9,1.7,1.9,1.4c2.8-0.8,5.2-2.1,7.4-4
				c1.5-1.3-0.7-3.4-2.1-2.1c-1.8,1.6-3.8,2.6-6.1,3.2c0.6,0.5,1.3,1,1.9,1.4c0,0.2,2.5-0.9,2.8-1.1c1-0.6,1.7-1.5,2.3-2.4
				c0.7-1.1-0.5-2.6-1.7-2.2c-3.3,1.1-6.1,2.9-8.3,5.5c0.9,0.4,1.7,0.7,2.6,1.1c-0.4-4.3,0.2-8.8,0.5-13.2c-1,0-2,0-3,0
				c0.5,3.8,0.7,7.7,0.5,11.5c0,1.4,2.1,2.1,2.8,0.8c1.6-3.3-0.4-7,0.3-10.6c-1,0-1.9,0-2.9,0c0.3,1,0.6,2,0.8,3
				C119.3,177,122.2,176.3,121.7,174.4L121.7,174.4z"/>
		</g>
	</g>
	<g>
		<g>
			<path class="st8" d="M147.7,166.4c-0.7,4.4-1.2,8.8-1.4,13.3c-0.1,1.7,2.6,2.1,2.9,0.4c0.8-4.1,1.7-8.2,3-12.2
				c-1-0.1-2-0.3-2.9-0.4c0.1,2.5-0.3,4.7-1.2,7c-0.6,1.5,1.5,2.3,2.5,1.5c2-1.7,2.8-4.3,2-6.8c-0.2-0.8-1-1.3-1.8-1
				c-1.8,0.5-3.4,1.2-5,2.2c0.7,0.2,1.4,0.4,2.1,0.5c-0.1-0.1-0.1-0.2-0.2-0.3c0,0.5,0,1,0,1.5c0.1-0.1,0.1-0.2,0.2-0.3
				c1.1-1.6-1.5-3.1-2.6-1.5c-0.1,0.1-0.1,0.2-0.2,0.3c-0.3,0.4-0.3,1.1,0,1.5c0.1,0.1,0.1,0.2,0.2,0.3c0.4,0.7,1.4,1,2.1,0.5
				c1.4-0.8,2.8-1.4,4.3-1.9c-0.6-0.3-1.2-0.7-1.8-1c0.5,1.6,0,2.8-1.2,3.9c0.8,0.5,1.7,1,2.5,1.5c1-2.5,1.4-5.1,1.3-7.8
				c-0.1-1.7-2.4-2-2.9-0.4c-1.2,4-2.2,8.1-3,12.2c1,0.1,2,0.3,2.9,0.4c0.2-4.2,0.7-8.3,1.3-12.5C150.9,165.3,148,164.5,147.7,166.4
				L147.7,166.4z"/>
		</g>
	</g>
	<g>
		<g>
			<path class="st8" d="M165.4,176.2c2.3,4.3,7.5,4.3,10.7,7.5c0.8,0.8,2.2,0.4,2.5-0.7c1.1-3.5,1.3-6.9,0.7-10.5
				c-0.3-1.7-2.9-1.2-2.9,0.4c-0.1,2.6,0.2,5,0.9,7.5c0.4,1.5,2.4,1.3,2.9,0c0.9-2.3,1.2-4.7,1.1-7.2c-0.1-1.9-2.9-1.9-3,0
				c-0.1,2.3-0.7,4.2-1.9,6.2c-1,1.7,1.6,3.2,2.6,1.5c1.4-2.4,2.2-4.9,2.3-7.7c-1,0-2,0-3,0c0.1,2.2-0.2,4.3-1,6.4c1,0,1.9,0,2.9,0
				c-0.6-2.2-0.9-4.4-0.8-6.7c-1,0.1-2,0.3-2.9,0.4c0.5,3,0.3,5.9-0.7,8.9c0.8-0.2,1.7-0.4,2.5-0.7c-2.9-2.9-8.3-3.2-10.2-6.9
				C167,172.9,164.4,174.5,165.4,176.2L165.4,176.2z"/>
		</g>
	</g>
	<g>
		<g>
			<path class="st8" d="M171.8,178.2c-0.8,0-1.5-0.4-2.1-1c-1.3-1.4-3.4,0.7-2.1,2.1c1.1,1.2,2.6,1.8,4.2,1.8
				C173.8,181.2,173.8,178.2,171.8,178.2L171.8,178.2z"/>
		</g>
	</g>
	<g>
		<g>
			<path class="st8" d="M171.9,180.9c0.5,0.7,1.1,1.5,1.6,2.2c0.4-0.8,0.9-1.5,1.3-2.3c-1,0-1.7-0.8-2.4-1.5
				c-0.8-0.8-1.7-1.6-2.7-2.1c-1.7-0.9-3.2,1.7-1.5,2.6c2.4,1.3,3.6,3.9,6.6,4c1.1,0,2-1.3,1.3-2.3c-0.5-0.7-1.1-1.5-1.6-2.2
				C173.3,177.8,170.7,179.3,171.9,180.9L171.9,180.9z"/>
		</g>
	</g>
	<g>
		<g>
			<path class="st8" d="M127.2,180.6c0.8-0.3,1.7-0.6,2.5-1c-0.4-0.9-0.8-1.8-1.2-2.7c-1.3,1-2.6,1.8-4.1,2.6
				c0.7,0.6,1.5,1.1,2.2,1.7c-0.1,0.1-0.1,0.1,0.1-0.1c0.6-0.5,0.5-1.6,0-2.1c-0.6-0.6-1.5-0.5-2.1,0c-0.4,0.4-0.7,0.8-0.9,1.4
				c-0.4,1.3,1.1,2.3,2.2,1.7c1.4-0.8,2.8-1.7,4.1-2.6c0.6-0.4,0.9-1.1,0.6-1.9c-0.3-0.6-1.1-1.1-1.8-0.9c-0.8,0.3-1.7,0.6-2.5,1
				c-0.8,0.3-1.3,1-1,1.8C125.6,180.3,126.5,180.9,127.2,180.6L127.2,180.6z"/>
		</g>
	</g>
	<path class="st9" d="M149.7,144.1L149.7,144.1c-18.5,0-33.7,13.6-34.9,30.7c-0.1-0.7-0.1-1.5-0.1-2.2l0,0c0-18.2,15.7-33,35-33l0,0
		c19.3,0,35,14.8,35,33l0,0c0,0.8,0,1.5-0.1,2.2C183.3,157.7,168.2,144.1,149.7,144.1z"/>
	<g>
		<g>
			<path class="st10" d="M120.1,200.4c2.1,4.5,4.5,8.9,8.3,12.2c3.6,3.1,8.1,4.8,12.4,6.5c1.8,0.7,2.6-2.2,0.8-2.9
				c-4.3-1.7-8.7-3.4-12.1-6.6c-3.1-3-5.1-6.9-6.8-10.7C121.9,197.2,119.3,198.7,120.1,200.4L120.1,200.4z"/>
		</g>
	</g>
	<g>
		<g>
			<path class="st11" d="M47.8,139.5c1.9,0,1.9-3,0-3C45.9,136.5,45.9,139.5,47.8,139.5L47.8,139.5z"/>
		</g>
	</g>
	<path class="st1" d="M94.1,280.3V97.8H8.5c-4.6,14-7,28.8-7,44.3v4.5C1.5,207.8,40,260,94.1,280.3z"/>
	<path class="st1" d="M210.8,273.8c42.4-21.9,72.3-64.5,76.7-114.4V130c-0.6-6.8-1.7-13.5-3.2-20.1h-73.5L210.8,273.8L210.8,273.8z"
		/>
</g>
<g id="Layer_2">
	<path class="st12" d="M66.2,37.1h-16c-6.5,0-11.8,5.3-11.8,11.8v2.4c0,6.5,5.3,11.8,11.8,11.8h16c6.5,0,11.8-5.3,11.8-11.8v-2.4
		C78,42.4,72.7,37.1,66.2,37.1z"/>
	<path class="st13" d="M66.6,66.3L66.6,66.3c-7,0-12.6-5.6-12.6-12.6l0,0c0-7,5.6-12.6,12.6-12.6l0,0c7,0,12.6,5.6,12.6,12.6l0,0
		C79.2,60.7,73.6,66.3,66.6,66.3z"/>
	<path class="st14" d="M72.2,69.5h-2.7c-6.2,0-11.2-5-11.2-11.2v-2.7c0-6.2,5-11.2,11.2-11.2h2.7c6.2,0,11.2,5,11.2,11.2v2.7
		C83.4,64.4,78.4,69.5,72.2,69.5z"/>
	<g>
		<g>
			<path class="st15" d="M145.2,202.3c-1.6-2.8-2.9-5.6-3.7-8.7c-1-3.7,0.2-6.7-0.2-10.2c-0.2-1.9-3.2-1.9-3,0
				c0.4,3.9-0.8,7.1,0.3,11c0.9,3.3,2.3,6.5,4,9.4C143.6,205.5,146.2,203.9,145.2,202.3L145.2,202.3z"/>
		</g>
	</g>
	<g>
		<g>
			<path class="st10" d="M138.1,182.3c-0.2,4.5-0.4,9.2,0.7,13.6c1,3.9,3.1,6.3,5.5,9.4c2.7,3.4,0.9,9.5,1.1,13.7
				c0.1,3.3,0.8,6.2,3.3,8.5c1.3,1.2,3.1-0.3,2.4-1.8c-2.1-4.5-2.2-8.7-3.1-13.5c-0.6-3.4-5-6.3-5-9.5c-0.9,0.4-1.7,0.7-2.6,1.1
				c0.8,0.6,1.6,1.3,2.4,1.9c1,0.9,3.1,0.1,2.5-1.5c-0.5-1.3-0.5-3-1-4.4c-0.7-2-1.2-3.9-1.6-6c-0.7-4.1-2.4-12,1-15.2
				c-0.9-0.4-1.7-0.7-2.6-1.1c-0.4,3.2-1.1,6.2-2.3,9.3c-0.4,1,0.6,1.8,1.4,1.9c0.7,0.1,1.4,0.1,2.2,0.2c-0.5-0.5-1-1-1.5-1.5
				c0,6.2,1.3,12,3.8,17.6c0.8,1.8,3.4,0.2,2.6-1.5c-2.3-5.2-3.4-10.4-3.4-16.1c0-0.9-0.7-1.4-1.5-1.5c-0.7-0.1-1.4-0.1-2.2-0.2
				c0.5,0.6,1,1.3,1.4,1.9c1.3-3.3,2-6.5,2.4-10c0.2-1.4-1.7-1.9-2.6-1.1c-3.7,3.4-3,7.7-2.5,12.4c0.5,5.4,1.5,11,3.3,16.1
				c0.8-0.5,1.7-1,2.5-1.5c-0.8-0.6-1.6-1.3-2.4-1.9c-0.9-0.8-2.6-0.3-2.6,1.1c0,1.5,0.3,2.6,1.1,3.9c1.9,2.9,3.5,3.4,4.1,7.6
				c0.7,4.6,1.2,8.6,3.3,12.9c0.8-0.6,1.6-1.2,2.4-1.8c-3.3-3-2.5-8-2.4-12.1c0-2.5,0.8-6.1-0.5-8.5c-0.6-1.1-1.8-1.7-2.6-2.6
				c-1.7-1.8-2.7-4-3.4-6.4c-1.3-4.4-1-9-0.8-13.5C141.2,180.4,138.2,180.4,138.1,182.3L138.1,182.3z"/>
		</g>
	</g>
	<g>
		<g>
			<path class="st10" d="M142.6,175.1c-2.6,2.7-4.9,5.5-8.2,7.4c-2.9,1.6-6.1,2.8-8.8,4.8c-1.6,1.1-0.1,3.7,1.5,2.6
				c3-2.1,6.6-3.3,9.7-5.3c3.1-1.9,5.4-4.7,7.9-7.3C146.1,175.8,144,173.7,142.6,175.1L142.6,175.1z"/>
		</g>
	</g>
	<g>
		<g>
			<path class="st10" d="M143,175.7c-0.7,3.4-1.9,6.5-3.8,9.4c-1.1,1.6,1.5,3.1,2.6,1.5c2-3.1,3.4-6.5,4.1-10.2
				C146.2,174.7,143.3,173.9,143,175.7L143,175.7z"/>
		</g>
	</g>
	<g>
		<g>
			<path class="st10" d="M143,177.7c-0.6,2.7-1.3,5.4-2,8c-0.5,1.9,2.4,2.6,2.9,0.8c0.8-2.7,1.5-5.3,2-8
				C146.3,176.6,143.4,175.8,143,177.7L143,177.7z"/>
		</g>
	</g>
	<g>
		<g>
			<path class="st4" d="M151.5,206.3c-2.7-3.4-3.8-7.1-3.9-11.4c-0.1-2.4-0.1-4.6-1-6.9c-0.6-1.5-2.9-1.4-2.9,0.4
				c-0.2,5.9,0.1,11.8,1,17.6c0.7,4.3,1.3,8.6,4.5,11.7c1.1,1.1,2.8,0,2.5-1.5c-0.9-4.1-1.8-8.2-2.7-12.3c-0.4-1.9-3.2-1.1-2.9,0.8
				c1.9,10.1,3.7,20.1,4.3,30.4c0.1,1.6,2.6,2.1,2.9,0.4c1.6-7.3,2.3-14.2-3.9-19.2c-2.5-2.1-3.6-3.5-3.8-7
				c-0.1-2.9-0.2-5.9-0.3-8.8c-0.1-2.6-0.2-5.2-0.1-7.8c0.1-2.1-0.2-3.4,1.3-4.7c1-0.9,3.2-1.5,4.4-2c1.7-0.8,0.2-3.4-1.5-2.6
				c-3,1.4-6.4,2-7.2,5.4c-0.6,2.9,0,6.8,0.1,9.8c0.1,3.3,0.1,6.5,0.3,9.8c0.1,3.2-0.4,6.9,2.5,9.1c2.6,2,4.9,2.7,6.1,6.2
				c1.2,3.5,0.1,7.7-0.7,11.1c1,0.1,2,0.3,2.9,0.4c-0.6-10.5-2.5-20.8-4.4-31.2c-1,0.3-1.9,0.5-2.9,0.8c0.9,4.1,1.8,8.2,2.7,12.3
				c0.8-0.5,1.7-1,2.5-1.5c-3.4-3.2-3.7-9.4-4.2-13.8c-0.5-4.5-0.6-8.9-0.5-13.4c-1,0.1-2,0.3-2.9,0.4c1.3,3.6,0.6,7.4,1.4,11.1
				c0.7,3.2,2.3,5.9,4.3,8.5C150.5,210,152.6,207.8,151.5,206.3L151.5,206.3z"/>
		</g>
	</g>
	<rect x="122.7" y="69.5" class="st16" width="5.8" height="15.3"/>
	<rect x="143.8" y="98.6" class="st16" width="8.7" height="15.6"/>
	<rect x="202.2" y="98.6" class="st16" width="11.8" height="11.8"/>
	<rect x="266.5" y="145.1" class="st16" width="3.3" height="12.2"/>
	<rect x="66.6" y="139.6" class="st16" width="4.2" height="11.6"/>
	<rect x="75.9" y="145.4" class="st16" width="4.2" height="11.6"/>
	<path class="st12" d="M40.1,61.7v179.5c3.8,5.2,7.9,10.2,12.2,14.8h3.4V61.7H40.1z"/>
	<path class="st12" d="M157.9,290.8c6-0.7,11.9-1.7,17.6-3.1V3.1c-5.7-1.4-11.6-2.4-17.6-3.1V290.8z"/>
</g>
</svg>
