<?xml version="1.0" encoding="utf-8"?>
<!-- Generator: Adobe Illustrator 21.1.0, SVG Export Plug-In . SVG Version: 6.00 Build 0)  -->
<svg version="1.1" xmlns="http://www.w3.org/2000/svg" xmlns:xlink="http://www.w3.org/1999/xlink" x="0px" y="0px"
	 viewBox="0 0 288 560" style="enable-background:new 0 0 288 560;" xml:space="preserve">
<style type="text/css">
	.st0{fill:#36C373;stroke:#FFFFFF;stroke-miterlimit:10;}
	.st1{fill:#48AB73;stroke:#48AB73;stroke-linecap:round;stroke-miterlimit:10;}
	.st2{fill:#807680;stroke:#807680;stroke-miterlimit:10;}
	.st3{fill:#F2F2F2;}
	.st4{fill:#FFFFFF;stroke:#FFFFFF;stroke-miterlimit:10;}
	.st5{fill:#FFFFFF;}
	.st6{fill:#666666;stroke:#666666;stroke-miterlimit:10;}
	.st7{fill:#8D8080;stroke:#8D8080;stroke-miterlimit:10;}
	.st8{fill:#E6E6E6;}
	.st9{fill:#D5D7D8;stroke:#D5D7D8;stroke-miterlimit:10;}
	.st10{fill:#CCCCCC;}
	.st11{fill:#999999;}
	.st12{fill:#898599;}
	.st13{fill:#621FEA;stroke:#621FEA;stroke-miterlimit:10;}
	.st14{opacity:0.63;}
	.st15{fill:none;stroke:#621FEA;stroke-miterlimit:10;}
	.st16{opacity:0.6;}
</style>
<g id="Layer_1">
	<path class="st0" d="M144.3,381L144.3,381C65.5,381,1.6,317.1,1.6,238.2v-4.5C1.6,154.9,65.5,91,144.3,91h0
		c78.8,0,142.7,63.9,142.7,142.7v4.5C287.1,317.1,223.2,381,144.3,381z"/>
	<path class="st1" d="M147.4,342.9L135,355.3c-17.6,17.6-46,17.6-63.6,0l-9.2-9.2c-17.6-17.6-17.6-46,0-63.6l12.4-12.4
		c17.6-17.6,46-17.6,63.6,0l9.2,9.2C165,296.8,165,325.3,147.4,342.9z"/>
	<rect x="114.6" y="258.5" class="st2" width="66.3" height="47.2"/>
	<g>
		<g>
			<path class="st3" d="M154,295c-3.2-2-6.3-4-9.5-6c-1.6-1-3.1,1.6-1.5,2.6c3.2,2,6.3,4,9.5,6C154.1,298.7,155.7,296.1,154,295
				L154,295z"/>
		</g>
	</g>
	<path class="st4" d="M148.5,305.8L148.5,305.8c-13.6,0-24.7-11.1-24.7-24.7v-12.4c0-13.6,11.1-24.7,24.7-24.7h0
		c13.6,0,24.7,11.1,24.7,24.7V281C173.2,294.7,162.2,305.8,148.5,305.8z"/>
	<g>
		<g>
			<path class="st5" d="M142.8,246.8c1.9,0,1.9-3,0-3C140.8,243.8,140.8,246.8,142.8,246.8L142.8,246.8z"/>
		</g>
	</g>
	<g>
		<g>
			<path class="st5" d="M141.4,247.1c-3.5,5.7-3.8,12.1-3,18.6c0.6,4.8,2.5,8.6-1.2,12.6c-1,1.1-2.1,1.6-2.5,3.2
				c-0.4,1.9,0.7,2.8,1.6,4.2c1.3,0.7,1.8,1.9,1.5,3.5c-0.1,0.2-0.2,0.4-0.2,0.6c0.2,0.8,0.1,1.2,0.7,2c2.8,3.6,12.4,2,16.2,1.3
				c1.9-0.3,1.1-3.2-0.8-2.9c-1.8,0.3-11.2,1.7-12.4-0.1c-0.5-0.7,0.3-2,0.1-2.8c-0.3-1.5-1.7-2-2.4-3.2c-1.7-2.9,0.9-3.5,2.4-5.2
				c2.4-2.9,1.1-6.5,0.6-9.8c-1.1-7-1.8-14,2-20.4C145,246.9,142.4,245.4,141.4,247.1L141.4,247.1z"/>
		</g>
	</g>
	<g>
		<g>
			<path class="st5" d="M144.9,257.8c-0.3-4.1,1.3-8.1,4.6-10.7c1.5-1.2,0-3.8-1.5-2.6c-4.2,3.2-6.5,8-6.1,13.3
				C142.1,259.7,145.1,259.8,144.9,257.8L144.9,257.8z"/>
		</g>
	</g>
	<g>
		<g>
			<path class="st5" d="M143.1,250.6c-2.8,5.4-3.5,11.2-2.3,17.1c0.4,1.9,3.3,1.1,2.9-0.8c-1-5.1-0.3-10.2,2-14.8
				C146.5,250.4,143.9,248.9,143.1,250.6L143.1,250.6z"/>
		</g>
	</g>
	<g>
		<g>
			<path class="st5" d="M-7.7,118.3c1.9,0,1.9-3,0-3C-9.7,115.3-9.7,118.3-7.7,118.3L-7.7,118.3z"/>
		</g>
	</g>
	<path class="st6" d="M169.2,379.8h-40.5c-13,0-23.5-10.5-23.5-23.5v-18.5c0-13,10.5-23.5,23.5-23.5h40.5c13,0,23.5,10.5,23.5,23.5
		v18.5C192.7,369.3,182.2,379.8,169.2,379.8z"/>
	<rect x="121.3" y="245.8" class="st7" width="54" height="19.5"/>
	<path class="st7" d="M163.8,236.3h-31c-6.4,0-11.5,5.1-11.5,11.5v0c0,6.4,5.1,11.5,11.5,11.5h31c6.4,0,11.5-5.1,11.5-11.5v0
		C175.3,241.5,170.1,236.3,163.8,236.3z"/>
	<path class="st4" d="M148.9,325.7L148.9,325.7c-4,0-7.3-3.3-7.3-7.3v-12.4c0-4,3.3-7.3,7.3-7.3h0c4,0,7.3,3.3,7.3,7.3v12.4
		C156.3,322.4,153,325.7,148.9,325.7z"/>
	<g>
		<path class="st3" d="M141.6,268.5c0.7,5.1,0.4,10.4-1.1,15.4c-0.2,0.6-0.4,1.2-0.2,1.8c0.1,0.7,0.7,1.3,1.2,1.8
			c1.9,1.8,3.9,3.4,6,4.9c0.4,0.3,0.9,0.6,1.1,1.1c0.3,0.7-0.1,1.4-0.3,2.2c-0.3,1.1-0.1,2.2,0.1,3.3c1.1,8.1,1.4,16.3,0.7,24.4"/>
		<g>
			<path class="st3" d="M140.1,268.5c0.3,2.6,0.5,5.1,0.3,7.7c-0.2,2.8-1.7,6.2-1.5,9c0.2,3,3.3,4.5,5.3,6.4c3.6,3.4,3.1,9,3.5,13.9
				c0.5,6,0.4,11.9,0,17.9c-0.1,1.9,2.9,1.9,3,0c0.4-6,0.5-11.9,0-17.9c-0.2-2.7-1-5.5-0.9-8.2c0-1.5,0.9-3.1,0.2-4.6
				c-1.6-3.5-7.8-4-7.9-8.4c-0.1-2.2,1.1-4.9,1.3-7.2c0.3-2.9,0.1-5.7-0.2-8.6C142.9,266.6,139.9,266.5,140.1,268.5L140.1,268.5z"/>
		</g>
	</g>
	<g>
		<g>
			<path class="st8" d="M148.6,326.3c1.9,0,1.9-3,0-3C146.7,323.3,146.7,326.3,148.6,326.3L148.6,326.3z"/>
		</g>
	</g>
	<g>
		<g>
			<path class="st3" d="M140.8,268.7c1.9,0,1.9-3,0-3C138.8,265.7,138.8,268.7,140.8,268.7L140.8,268.7z"/>
		</g>
	</g>
	<rect x="124.8" y="266.2" class="st9" width="16" height="20.4"/>
	<path class="st9" d="M141.8,303.6h-2.1c-3.7,0-6.6-3-6.6-6.6v0c0-3.7,3-6.6,6.6-6.6h2.1c3.7,0,6.6,3,6.6,6.6v0
		C148.4,300.6,145.5,303.6,141.8,303.6z"/>
	<path class="st9" d="M133.5,293.2h-2.1c-3.7,0-6.6-3-6.6-6.6v0c0-3.7,3-6.6,6.6-6.6h2.1c3.7,0,6.6,3,6.6,6.6v0
		C140.1,290.2,137.1,293.2,133.5,293.2z"/>
	<path class="st9" d="M135.2,293.2h-2.3c-3.7,0-6.6-3-6.6-6.6v-2.9c0-3.7,3-6.6,6.6-6.6h2.3c3.7,0,6.6,3,6.6,6.6v2.9
		C141.8,290.2,138.8,293.2,135.2,293.2z"/>
	<path class="st9" d="M136.1,298.8h-1.9c-3.7,0-6.6-3-6.6-6.6l0,0c0-3.7,3-6.6,6.6-6.6h1.9c3.7,0,6.6,3,6.6,6.6l0,0
		C142.7,295.8,139.8,298.8,136.1,298.8z"/>
	<rect x="141.8" y="300.8" class="st9" width="6.5" height="19.2"/>
	<path class="st9" d="M148.3,325.4L148.3,325.4c-3.7,0-6.6-3-6.6-6.6l0,0c0-3.7,3-6.6,6.6-6.6h0c3.7,0,6.6,3,6.6,6.6l0,0
		C154.9,322.4,151.9,325.4,148.3,325.4z"/>
	<path class="st2" d="M125.1,265.3h12.7c2.1,0,3.8-1.7,3.8-3.8v-16c0-2.1-1.7-3.8-3.8-3.8h-12.7c-2.1,0-3.8,1.7-3.8,3.8v16
		C121.3,263.6,123,265.3,125.1,265.3z"/>
	<path class="st2" d="M132.4,259.6h0.5c4.9,0,8.9-4,8.9-8.9v-5.9c0-4.9-4-8.9-8.9-8.9h-0.5c-4.9,0-8.9,4-8.9,8.9v5.9
		C123.5,255.7,127.5,259.6,132.4,259.6z"/>
	<g>
		<g>
			<path class="st10" d="M80.3,473.3c1.9,0,1.9-3,0-3C78.3,470.3,78.3,473.3,80.3,473.3L80.3,473.3z"/>
		</g>
	</g>
	<g>
		<g>
			<path class="st11" d="M122.3,248.8c1.9,0,1.9-3,0-3C120.4,245.8,120.4,248.8,122.3,248.8L122.3,248.8z"/>
		</g>
	</g>
	<g>
		<g>
			<path class="st12" d="M120.9,247.7c0.1,0.7,0.2,1.5,0.3,2.2c0.9-0.4,1.8-0.8,2.7-1.2c0,0.1-0.1-0.3-0.1-0.3c0,0-0.1-0.4-0.1-0.3
				c0-0.2,0-0.4,0-0.5c0,0,0-0.5,0-0.3c0.1-0.8-0.2-1.6-1-1.8c-0.7-0.2-1.7,0.2-1.8,1c-0.2,1.3-0.1,2.5,0.5,3.7
				c0.3,0.7,1.3,0.9,1.9,0.6c0.7-0.3,1-1,0.9-1.8c-0.1-0.7-0.2-1.5-0.3-2.2c-0.1-0.8-1.1-1.2-1.8-1
				C121.1,246.1,120.8,246.9,120.9,247.7L120.9,247.7z"/>
		</g>
	</g>
	<g>
		<g>
			<path class="st5" d="M143.9,267.4c2.8-1.2,4.9-2.9,6.3-5.7c-0.9-0.3-1.9-0.5-2.8-0.8c0.2,2.2,0.6,4.5,2.4,5.9
				c2.2,1.7,5.8,2.1,8.3,2.9c1.6,0.5,2.7-2.1,1.2-2.7c-1.9-0.8-3.7-1.9-5.1-3.5c-1-1.1-1.6-3-2.7-3.8c-2-1.4-3.6,0.5-4.3,2.2
				c1,0.3,1.9,0.5,2.9,0.8c0.2-0.7,0.5-1.4,0.7-2.1c0.5-1.4-1.5-2.5-2.5-1.5c-1.9,1.9-3.7,4.3-6.1,5.4c-1.4,0.7-0.6,2.8,0.8,2.8
				c2.7,0,8.4,1,7.5-3.4c-0.4-1.8-2.7-1.1-2.9,0.4c-0.3,2.3,0.1,4.2,1.1,6.2c0.8,1.7,3.4,0.2,2.6-1.5c-0.8-1.6-0.9-3-0.7-4.7
				c-1,0.1-2,0.3-2.9,0.4c-0.1-0.7-4-0.4-4.6-0.4c0.3,0.9,0.5,1.9,0.8,2.8c2.7-1.3,4.7-3.8,6.7-5.9c-0.8-0.5-1.7-1-2.5-1.5
				c-0.2,0.7-0.5,1.4-0.7,2.1c-0.6,1.9,2.2,2.5,2.9,0.8c-0.5-0.7-0.4-0.6,0.1,0.4c0.3,0.5,0.7,1.1,1.1,1.5c0.5,0.6,1,1.2,1.5,1.7
				c1.5,1.4,3.2,2.5,5,3.3c0.4-0.9,0.8-1.8,1.2-2.7c-1.7-0.5-3.5-1-5.2-1.6c-2.4-0.9-3.1-1.8-3.4-4.3c-0.1-1.3-2.1-2.2-2.8-0.8
				c-1,2-2.4,3.5-4.5,4.3C141.3,265.2,142.1,268.1,143.9,267.4L143.9,267.4z"/>
		</g>
	</g>
	<g>
		<g>
			<path class="st5" d="M156.8,281.6c1.9,0,1.9-3,0-3C154.8,278.6,154.8,281.6,156.8,281.6L156.8,281.6z"/>
		</g>
	</g>
	<g>
		<g>
			<path class="st5" d="M157.9,280.1c1.9,0,1.9-3,0-3C155.9,277.1,155.9,280.1,157.9,280.1L157.9,280.1z"/>
		</g>
	</g>
	<path class="st2" d="M104.2,281.7l-9-5.2c-3.9-2.2-5.2-7.2-3-11l6.4-11c2.2-3.9,7.2-5.2,11-3l9,5.2c3.9,2.2,5.2,7.2,3,11l-6.4,11
		C113,282.6,108.1,283.9,104.2,281.7z"/>
	<path class="st2" d="M108.7,307.1L108.7,307.1c-7.4,0-13.4-6-13.4-13.4V279c0-7.4,6-13.4,13.4-13.4h0c7.4,0,13.4,6,13.4,13.4v14.7
		C122.1,301.1,116.1,307.1,108.7,307.1z"/>
	<path class="st2" d="M188.4,305.8h-3.8c-5.9,0-10.7-4.8-10.7-10.7v-22.2c0-5.9,4.8-10.7,10.7-10.7h3.8c5.9,0,10.7,4.8,10.7,10.7
		V295C199.2,300.9,194.4,305.8,188.4,305.8z"/>
	<path class="st2" d="M134.4,257.4l-19.2,8.1c-4.7,2-10.1-0.2-12.1-4.9l-1.1-2.6c-2-4.7,0.2-10.1,4.9-12.1l19.2-8.1
		c4.7-2,10.1,0.2,12.1,4.9l1.1,2.6C141.3,250,139.1,255.4,134.4,257.4z"/>
	<path class="st7" d="M166.1,259.1l14.6,6.2c4.7,2,10.1-0.2,12.1-4.9l1.1-2.6c2-4.7-0.2-10.1-4.9-12.1l-14.6-6.2
		c-4.7-2-10.1,0.2-12.1,4.9l-1.1,2.6C159.2,251.7,161.4,257.1,166.1,259.1z"/>
	<path class="st7" d="M183.8,279.5l-9-5.2c-3.9-2.2-5.2-7.2-3-11l6.4-11c2.2-3.9,7.2-5.2,11-3l9,5.2c3.9,2.2,5.2,7.2,3,11l-6.4,11
		C192.6,280.4,187.7,281.7,183.8,279.5z"/>
	<path class="st2" d="M98.9,297.2l-9-5.2c-3.9-2.2-5.2-7.2-3-11l6.4-11c2.2-3.9,7.2-5.2,11-3l9,5.2c3.9,2.2,5.2,7.2,3,11l-6.4,11
		C107.7,298.2,102.8,299.5,98.9,297.2z"/>
	<path class="st7" d="M200.4,290.4l3.6-3.1c4.3-3.8,4.8-10.4,0.9-14.8l-5.7-6.5c-3.8-4.3-10.4-4.8-14.8-0.9l-3.6,3.1
		c-4.3,3.8-4.8,10.4-0.9,14.8l5.7,6.5C189.4,293.8,196.1,294.3,200.4,290.4z"/>
	<g>
		<path class="st13" d="M62.3,247.5c1.2,0.6,2.2,1.4,3,2.5c1.4-1.8,3.5-3,5.9-3.2c-1.1-1.5-1.8-3.4-2-5.4c-0.8,0.3-1.7,0.4-2.6,0.4
			c-2.2,0-4.2-0.8-5.7-2.1l-5.6,2.5l8.8-0.7C64.2,243.6,63.5,245.8,62.3,247.5z"/>
		<path class="st13" d="M79.7,229.5c-1.5,0-2.8,0.3-4.1,0.9c-0.8-4.3-4.5-7.6-9-7.6c-5.1,0-9.2,4.2-9.2,9.5c0,0.4,0,0.7,0.1,1.1
			c-0.9-0.3-1.9-0.4-2.9-0.3c-4.8,0.4-8.5,4.8-8.1,9.8c0.3,3.6,2.6,6.6,5.7,7.8c-0.4,0.7-0.7,1.4-0.9,2.3c-1.1,4.4,1.4,9,5.7,10.2
			c3.2,0.9,6.5-0.4,8.4-2.9c1.5,1.9,3.8,3.2,6.3,3.2c4.4,0,8-3.7,8-8.3c0-1.4-0.3-2.7-0.9-3.8c0.3,0,0.6,0,0.9,0
			c5.8,0,10.5-4.9,10.5-10.8C90.2,234.4,85.5,229.5,79.7,229.5z M60.9,239.7c1.6,1.3,3.6,2.1,5.7,2.1c0.9,0,1.8-0.1,2.6-0.4
			c0.2,2,0.9,3.9,2,5.4c-2.4,0.1-4.5,1.4-5.9,3.2c-0.8-1-1.8-1.9-3-2.5c1.2-1.7,1.9-3.8,1.7-6.1l-8.8,0.7L60.9,239.7z"/>
	</g>
	<g>
		<path class="st13" d="M36.2,277.7c0.8,0.4,1.5,0.9,2,1.6c0.9-1.2,2.4-2,4-2.1c-0.7-1-1.2-2.2-1.3-3.6c-0.6,0.2-1.2,0.3-1.8,0.3
			c-1.5,0-2.8-0.5-3.9-1.4l-3.8,1.6l6-0.5C37.5,275.2,37.1,276.6,36.2,277.7z"/>
		<path class="st13" d="M48.1,265.9c-1,0-1.9,0.2-2.8,0.6c-0.6-2.9-3.1-5-6.1-5c-3.5,0-6.3,2.8-6.3,6.3c0,0.2,0,0.5,0,0.7
			c-0.6-0.2-1.3-0.2-2-0.2c-3.3,0.3-5.8,3.2-5.5,6.5c0.2,2.4,1.8,4.3,3.9,5.1c-0.3,0.5-0.5,1-0.6,1.5c-0.8,2.9,1,5.9,3.9,6.7
			c2.2,0.6,4.4-0.3,5.7-1.9c1,1.3,2.6,2.1,4.3,2.1c3,0,5.5-2.5,5.5-5.5c0-0.9-0.2-1.8-0.6-2.5c0.2,0,0.4,0,0.6,0
			c4,0,7.2-3.2,7.2-7.2C55.2,269.1,52,265.9,48.1,265.9z M35.2,272.6c1.1,0.9,2.4,1.4,3.9,1.4c0.6,0,1.2-0.1,1.8-0.3
			c0.1,1.3,0.6,2.5,1.3,3.6c-1.6,0.1-3.1,0.9-4,2.1c-0.5-0.7-1.2-1.2-2-1.6c0.8-1.1,1.3-2.5,1.1-4l-6,0.5L35.2,272.6z"/>
	</g>
	<g class="st14">
		<path class="st13" d="M219.8,252.4c1.5,0.7,2.8,1.7,3.7,3c1.7-2.3,4.3-3.7,7.3-3.9c-1.4-1.9-2.2-4.2-2.4-6.6
			c-1,0.3-2.1,0.5-3.3,0.5c-2.7,0-5.2-1-7.1-2.6l-7,3l10.9-0.9C222.2,247.7,221.3,250.3,219.8,252.4z"/>
		<path class="st13" d="M241.5,230.4c-1.8,0-3.6,0.4-5.1,1.1c-1.1-5.3-5.7-9.3-11.2-9.3c-6.3,0-11.4,5.2-11.4,11.6
			c0,0.4,0,0.9,0.1,1.3c-1.2-0.3-2.4-0.5-3.7-0.4c-6,0.5-10.6,5.9-10.1,12c0.3,4.4,3.2,8.1,7.1,9.6c-0.5,0.8-0.9,1.8-1.2,2.8
			c-1.4,5.5,1.8,11,7.1,12.5c4,1.1,8.1-0.5,10.5-3.6c1.8,2.4,4.7,3.9,7.9,3.9c5.5,0,10-4.6,10-10.2c0-1.7-0.4-3.3-1.1-4.7
			c0.4,0,0.8,0.1,1.1,0.1c7.2,0,13.1-6,13.1-13.3C254.6,236.3,248.7,230.4,241.5,230.4z M218,242.8c2,1.6,4.4,2.6,7.1,2.6
			c1.1,0,2.2-0.2,3.3-0.5c0.2,2.5,1.1,4.7,2.4,6.6c-3,0.2-5.6,1.7-7.3,3.9c-1-1.3-2.2-2.3-3.7-3c1.5-2.1,2.3-4.7,2.1-7.4l-10.9,0.9
			L218,242.8z"/>
	</g>
	<g>
		<path class="st13" d="M208.8,303.9c0.8,0.4,1.5,0.9,2,1.6c0.9-1.2,2.4-2,4-2.1c-0.7-1-1.2-2.2-1.3-3.6c-0.6,0.2-1.2,0.3-1.8,0.3
			c-1.5,0-2.8-0.5-3.9-1.4l-3.8,1.6l6-0.5C210,301.3,209.6,302.8,208.8,303.9z"/>
		<path class="st13" d="M220.6,292c-1,0-1.9,0.2-2.8,0.6c-0.6-2.9-3.1-5-6.1-5c-3.5,0-6.3,2.8-6.3,6.3c0,0.2,0,0.5,0,0.7
			c-0.6-0.2-1.3-0.2-2-0.2c-3.3,0.3-5.8,3.2-5.5,6.5c0.2,2.4,1.8,4.3,3.9,5.1c-0.3,0.5-0.5,1-0.6,1.5c-0.8,2.9,1,5.9,3.9,6.7
			c2.2,0.6,4.4-0.3,5.7-1.9c1,1.3,2.6,2.1,4.3,2.1c3,0,5.5-2.5,5.5-5.5c0-0.9-0.2-1.8-0.6-2.5c0.2,0,0.4,0,0.6,0
			c4,0,7.2-3.2,7.2-7.2C227.8,295.2,224.6,292,220.6,292z M207.8,298.7c1.1,0.9,2.4,1.4,3.9,1.4c0.6,0,1.2-0.1,1.8-0.3
			c0.1,1.3,0.6,2.5,1.3,3.6c-1.6,0.1-3.1,0.9-4,2.1c-0.5-0.7-1.2-1.2-2-1.6c0.8-1.1,1.3-2.5,1.1-4l-6,0.5L207.8,298.7z"/>
	</g>
	<g>
		<path class="st13" d="M239.1,287.2c0.6,0.3,1.1,0.7,1.5,1.3c0.7-1,1.8-1.6,3-1.7c-0.6-0.8-0.9-1.8-1-2.8c-0.4,0.1-0.9,0.2-1.4,0.2
			c-1.1,0-2.2-0.4-3-1.1l-2.9,1.3l4.6-0.4C240.1,285.2,239.8,286.3,239.1,287.2z"/>
		<path class="st13" d="M248.1,277.7c-0.8,0-1.5,0.2-2.1,0.5c-0.4-2.3-2.4-4-4.7-4c-2.6,0-4.8,2.2-4.8,5c0,0.2,0,0.4,0,0.6
			c-0.5-0.1-1-0.2-1.5-0.2c-2.5,0.2-4.4,2.5-4.2,5.1c0.1,1.9,1.3,3.4,2.9,4.1c-0.2,0.4-0.4,0.8-0.5,1.2c-0.6,2.3,0.7,4.7,3,5.3
			c1.7,0.5,3.4-0.2,4.4-1.5c0.8,1,1.9,1.7,3.3,1.7c2.3,0,4.2-2,4.2-4.4c0-0.7-0.2-1.4-0.5-2c0.2,0,0.3,0,0.5,0c3,0,5.4-2.5,5.4-5.7
			C253.6,280.3,251.1,277.7,248.1,277.7z M238.4,283.1c0.8,0.7,1.8,1.1,3,1.1c0.5,0,0.9-0.1,1.4-0.2c0.1,1.1,0.5,2,1,2.8
			c-1.2,0.1-2.3,0.7-3,1.7c-0.4-0.5-0.9-1-1.5-1.3c0.6-0.9,1-2,0.9-3.2l-4.6,0.4L238.4,283.1z"/>
	</g>
	<g>
		<path class="st13" d="M191.9,334.3c0.5,0.3,1,0.6,1.3,1.1c0.6-0.8,1.5-1.3,2.5-1.4c-0.5-0.7-0.8-1.5-0.8-2.4
			c-0.4,0.1-0.7,0.2-1.1,0.2c-0.9,0-1.8-0.3-2.5-0.9l-2.4,1.1l3.8-0.3C192.7,332.6,192.4,333.6,191.9,334.3z"/>
		<path class="st13" d="M199.4,326.4c-0.6,0-1.2,0.1-1.8,0.4c-0.4-1.9-2-3.4-3.9-3.4c-2.2,0-3.9,1.9-3.9,4.2c0,0.2,0,0.3,0,0.5
			c-0.4-0.1-0.8-0.2-1.3-0.1c-2.1,0.2-3.6,2.1-3.5,4.3c0.1,1.6,1.1,2.9,2.4,3.4c-0.2,0.3-0.3,0.6-0.4,1c-0.5,2,0.6,4,2.5,4.5
			c1.4,0.4,2.8-0.2,3.6-1.3c0.6,0.9,1.6,1.4,2.7,1.4c1.9,0,3.5-1.6,3.5-3.7c0-0.6-0.1-1.2-0.4-1.7c0.1,0,0.3,0,0.4,0
			c2.5,0,4.5-2.1,4.5-4.8S201.9,326.4,199.4,326.4z M191.3,330.9c0.7,0.6,1.5,0.9,2.5,0.9c0.4,0,0.8-0.1,1.1-0.2
			c0.1,0.9,0.4,1.7,0.8,2.4c-1,0.1-1.9,0.6-2.5,1.4c-0.3-0.5-0.8-0.8-1.3-1.1c0.5-0.7,0.8-1.7,0.7-2.7l-3.8,0.3L191.3,330.9z"/>
	</g>
	<g>
		<path class="st13" d="M171.6,367c1,0.5,1.8,1.1,2.5,2c1.1-1.5,2.9-2.5,4.8-2.6c-0.9-1.2-1.5-2.7-1.6-4.4c-0.7,0.2-1.4,0.3-2.2,0.3
			c-1.8,0-3.4-0.6-4.7-1.7l-4.6,2l7.2-0.6C173.1,363.9,172.6,365.7,171.6,367z"/>
		<path class="st13" d="M185.9,352.5c-1.2,0-2.3,0.3-3.4,0.7c-0.7-3.5-3.7-6.1-7.4-6.1c-4.2,0-7.5,3.4-7.5,7.7c0,0.3,0,0.6,0.1,0.9
			c-0.8-0.2-1.6-0.3-2.4-0.2c-4,0.3-7,3.9-6.7,7.9c0.2,2.9,2.1,5.3,4.7,6.3c-0.3,0.6-0.6,1.2-0.8,1.8c-0.9,3.6,1.2,7.3,4.7,8.2
			c2.6,0.7,5.3-0.3,6.9-2.4c1.2,1.6,3.1,2.6,5.2,2.6c3.7,0,6.6-3,6.6-6.7c0-1.1-0.3-2.2-0.8-3.1c0.2,0,0.5,0,0.8,0
			c4.8,0,8.6-3.9,8.6-8.8C194.5,356.4,190.6,352.5,185.9,352.5z M170.4,360.7c1.3,1.1,2.9,1.7,4.7,1.7c0.8,0,1.5-0.1,2.2-0.3
			c0.1,1.6,0.7,3.1,1.6,4.4c-2,0.1-3.7,1.1-4.8,2.6c-0.6-0.8-1.5-1.5-2.5-2c1-1.4,1.5-3.1,1.4-4.9l-7.2,0.6L170.4,360.7z"/>
	</g>
	<g>
		<path class="st13" d="M201.1,354.4c0.5,0.3,1,0.6,1.3,1.1c0.6-0.8,1.5-1.3,2.5-1.4c-0.5-0.7-0.8-1.5-0.8-2.4
			c-0.4,0.1-0.7,0.2-1.1,0.2c-0.9,0-1.8-0.3-2.5-0.9l-2.4,1.1l3.8-0.3C201.9,352.7,201.6,353.6,201.1,354.4z"/>
		<path class="st13" d="M208.6,346.4c-0.6,0-1.2,0.1-1.8,0.4c-0.4-1.9-2-3.4-3.9-3.4c-2.2,0-3.9,1.9-3.9,4.2c0,0.2,0,0.3,0,0.5
			c-0.4-0.1-0.8-0.2-1.3-0.1c-2.1,0.2-3.6,2.1-3.5,4.3c0.1,1.6,1.1,2.9,2.4,3.4c-0.2,0.3-0.3,0.6-0.4,1c-0.5,2,0.6,4,2.5,4.5
			c1.4,0.4,2.8-0.2,3.6-1.3c0.6,0.9,1.6,1.4,2.7,1.4c1.9,0,3.5-1.6,3.5-3.7c0-0.6-0.1-1.2-0.4-1.7c0.1,0,0.3,0,0.4,0
			c2.5,0,4.5-2.1,4.5-4.8C213.1,348.6,211.1,346.4,208.6,346.4z M200.5,350.9c0.7,0.6,1.5,0.9,2.5,0.9c0.4,0,0.8-0.1,1.1-0.2
			c0.1,0.9,0.4,1.7,0.8,2.4c-1,0.1-1.9,0.6-2.5,1.4c-0.3-0.5-0.8-0.8-1.3-1.1c0.5-0.7,0.8-1.7,0.7-2.7l-3.8,0.3L200.5,350.9z"/>
	</g>
	<g>
		<path class="st13" d="M218.6,342.5c0.3,0.1,0.5,0.4,0.7,0.6c0.3-0.5,0.8-0.8,1.4-0.8c-0.3-0.4-0.4-0.9-0.5-1.4
			c-0.2,0.1-0.4,0.1-0.6,0.1c-0.5,0-1-0.2-1.4-0.5l-1.4,0.6l2.1-0.2C219,341.5,218.9,342,218.6,342.5z"/>
		<path class="st13" d="M222.8,337.8c-0.4,0-0.7,0.1-1,0.2c-0.2-1.1-1.1-2-2.2-2c-1.2,0-2.2,1.1-2.2,2.5c0,0.1,0,0.2,0,0.3
			c-0.2-0.1-0.5-0.1-0.7-0.1c-1.2,0.1-2.1,1.3-2,2.6c0.1,0.9,0.6,1.7,1.4,2c-0.1,0.2-0.2,0.4-0.2,0.6c-0.3,1.2,0.3,2.3,1.4,2.7
			c0.8,0.2,1.6-0.1,2.1-0.8c0.4,0.5,0.9,0.8,1.5,0.8c1.1,0,2-1,2-2.2c0-0.4-0.1-0.7-0.2-1c0.1,0,0.1,0,0.2,0c1.4,0,2.6-1.3,2.6-2.8
			C225.4,339.1,224.2,337.8,222.8,337.8z M218.2,340.4c0.4,0.3,0.9,0.5,1.4,0.5c0.2,0,0.4,0,0.6-0.1c0,0.5,0.2,1,0.5,1.4
			c-0.6,0-1.1,0.4-1.4,0.8c-0.2-0.3-0.4-0.5-0.7-0.6c0.3-0.4,0.5-1,0.4-1.6l-2.1,0.2L218.2,340.4z"/>
	</g>
	<g>
		<path class="st13" d="M144.9,235.3c0.5,0.3,1,0.6,1.3,1.1c0.6-0.8,1.5-1.3,2.5-1.4c-0.5-0.7-0.8-1.5-0.8-2.4
			c-0.4,0.1-0.7,0.2-1.1,0.2c-0.9,0-1.8-0.3-2.5-0.9l-2.4,1.1l3.8-0.3C145.7,233.6,145.4,234.6,144.9,235.3z"/>
		<path class="st13" d="M152.4,227.4c-0.6,0-1.2,0.1-1.8,0.4c-0.4-1.9-2-3.4-3.9-3.4c-2.2,0-3.9,1.9-3.9,4.2c0,0.2,0,0.3,0,0.5
			c-0.4-0.1-0.8-0.2-1.3-0.1c-2.1,0.2-3.6,2.1-3.5,4.3c0.1,1.6,1.1,2.9,2.4,3.4c-0.2,0.3-0.3,0.6-0.4,1c-0.5,2,0.6,4,2.5,4.5
			c1.4,0.4,2.8-0.2,3.6-1.3c0.6,0.9,1.6,1.4,2.7,1.4c1.9,0,3.5-1.6,3.5-3.7c0-0.6-0.1-1.2-0.4-1.7c0.1,0,0.3,0,0.4,0
			c2.5,0,4.5-2.1,4.5-4.8C156.9,229.5,154.9,227.4,152.4,227.4z M144.3,231.9c0.7,0.6,1.5,0.9,2.5,0.9c0.4,0,0.8-0.1,1.1-0.2
			c0.1,0.9,0.4,1.7,0.8,2.4c-1,0.1-1.9,0.6-2.5,1.4c-0.3-0.5-0.8-0.8-1.3-1.1c0.5-0.7,0.8-1.7,0.7-2.7l-3.8,0.3L144.3,231.9z"/>
	</g>
	<g>
		<path class="st13" d="M183.1,193.4c1.5,0.7,2.8,1.7,3.7,3c1.7-2.3,4.3-3.7,7.3-3.9c-1.4-1.9-2.2-4.2-2.4-6.6
			c-1,0.3-2.1,0.5-3.3,0.5c-2.7,0-5.2-1-7.1-2.6l-7,3l10.9-0.9C185.5,188.7,184.6,191.3,183.1,193.4z"/>
		<path class="st13" d="M204.8,171.4c-1.8,0-3.6,0.4-5.1,1.1c-1.1-5.3-5.7-9.3-11.2-9.3c-6.3,0-11.4,5.2-11.4,11.6
			c0,0.4,0,0.9,0.1,1.3c-1.2-0.3-2.4-0.5-3.7-0.4c-6,0.5-10.6,5.9-10.1,12c0.3,4.4,3.2,8.1,7.1,9.6c-0.5,0.8-0.9,1.8-1.2,2.8
			c-1.4,5.5,1.8,11,7.1,12.5c4,1.1,8.1-0.5,10.5-3.6c1.8,2.4,4.7,3.9,7.9,3.9c5.5,0,10-4.6,10-10.2c0-1.7-0.4-3.3-1.1-4.7
			c0.4,0,0.8,0.1,1.1,0.1c7.2,0,13.1-6,13.1-13.3C217.9,177.3,212,171.4,204.8,171.4z M181.3,183.8c2,1.6,4.4,2.6,7.1,2.6
			c1.1,0,2.2-0.2,3.3-0.5c0.2,2.5,1.1,4.7,2.4,6.6c-3,0.2-5.6,1.7-7.3,3.9c-1-1.3-2.2-2.3-3.7-3c1.5-2.1,2.3-4.7,2.1-7.4l-10.9,0.9
			L181.3,183.8z"/>
	</g>
	<g>
		<path class="st13" d="M55.7,185.1c1.2,0.6,2.3,1.5,3.1,2.6c1.4-1.9,3.6-3.2,6.1-3.4c-1.1-1.6-1.9-3.6-2-5.7
			c-0.9,0.3-1.8,0.4-2.8,0.4c-2.3,0-4.3-0.8-6-2.2l-5.9,2.6l9.1-0.8C57.7,181.1,57,183.3,55.7,185.1z"/>
		<path class="st13" d="M73.8,166.1c-1.5,0-3,0.3-4.3,0.9c-0.9-4.6-4.7-8.1-9.4-8.1c-5.3,0-9.5,4.5-9.5,10.1c0,0.4,0,0.8,0.1,1.1
			c-1-0.3-2-0.4-3.1-0.3c-5,0.4-8.8,5.1-8.4,10.4c0.3,3.8,2.7,7,5.9,8.3c-0.4,0.7-0.8,1.5-1,2.4c-1.2,4.7,1.5,9.6,6,10.8
			c3.4,0.9,6.8-0.4,8.8-3.1c1.5,2.1,3.9,3.4,6.6,3.4c4.6,0,8.4-4,8.4-8.8c0-1.5-0.3-2.9-1-4.1c0.3,0,0.6,0.1,1,0.1
			c6,0,10.9-5.2,10.9-11.5C84.8,171.2,79.9,166.1,73.8,166.1z M54.2,176.8c1.6,1.4,3.7,2.2,6,2.2c1,0,1.9-0.2,2.8-0.4
			c0.2,2.1,0.9,4.1,2,5.7c-2.5,0.1-4.7,1.4-6.1,3.4c-0.8-1.1-1.9-2-3.1-2.6c1.3-1.8,1.9-4.1,1.8-6.4l-9.1,0.8L54.2,176.8z"/>
	</g>
	<g>
		<path class="st13" d="M105.2,183c1.5,0.7,2.8,1.7,3.7,3c1.7-2.3,4.3-3.7,7.3-3.9c-1.4-1.9-2.2-4.2-2.4-6.6c-1,0.3-2.1,0.5-3.3,0.5
			c-2.7,0-5.2-1-7.1-2.6l-7,3l10.9-0.9C107.5,178.3,106.7,180.9,105.2,183z"/>
		<path class="st13" d="M126.8,161c-1.8,0-3.6,0.4-5.1,1.1c-1.1-5.3-5.7-9.3-11.2-9.3c-6.3,0-11.4,5.2-11.4,11.6
			c0,0.4,0,0.9,0.1,1.3c-1.2-0.3-2.4-0.5-3.7-0.4c-6,0.5-10.6,5.9-10.1,12c0.3,4.4,3.2,8.1,7.1,9.6c-0.5,0.8-0.9,1.8-1.2,2.8
			c-1.4,5.5,1.8,11,7.1,12.5c4,1.1,8.1-0.5,10.5-3.6c1.8,2.4,4.7,3.9,7.9,3.9c5.5,0,10-4.6,10-10.2c0-1.7-0.4-3.3-1.1-4.7
			c0.4,0,0.8,0.1,1.1,0.1c7.2,0,13.1-6,13.1-13.3C139.9,166.9,134.1,161,126.8,161z M103.4,173.4c2,1.6,4.4,2.6,7.1,2.6
			c1.1,0,2.2-0.2,3.3-0.5c0.2,2.5,1.1,4.7,2.4,6.6c-3,0.2-5.6,1.7-7.3,3.9c-1-1.3-2.2-2.3-3.7-3c1.5-2.1,2.3-4.7,2.1-7.4l-10.9,0.9
			L103.4,173.4z"/>
	</g>
	<g>
		<path class="st13" d="M242.4,205.8c1.1,0.5,2,1.2,2.8,2.1c1.3-1.6,3.2-2.6,5.4-2.7c-1-1.3-1.6-2.9-1.8-4.6
			c-0.8,0.2-1.6,0.3-2.4,0.3c-2,0-3.8-0.7-5.3-1.8l-5.2,2.1l8.1-0.6C244.1,202.5,243.5,204.3,242.4,205.8z"/>
		<path class="st13" d="M258.4,190.4c-1.3,0-2.6,0.3-3.8,0.7c-0.8-3.7-4.2-6.5-8.3-6.5c-4.7,0-8.4,3.6-8.4,8.1c0,0.3,0,0.6,0.1,0.9
			c-0.9-0.2-1.8-0.3-2.7-0.3c-4.4,0.3-7.8,4.1-7.5,8.4c0.3,3.1,2.4,5.7,5.2,6.7c-0.4,0.6-0.7,1.2-0.9,1.9c-1,3.8,1.3,7.7,5.3,8.7
			c3,0.8,6-0.3,7.8-2.5c1.4,1.7,3.5,2.8,5.8,2.8c4.1,0,7.4-3.2,7.4-7.1c0-1.2-0.3-2.3-0.8-3.3c0.3,0,0.6,0,0.8,0
			c5.3,0,9.7-4.2,9.7-9.3C268.1,194.5,263.8,190.4,258.4,190.4z M241.1,199.1c1.4,1.1,3.3,1.8,5.3,1.8c0.8,0,1.7-0.1,2.4-0.3
			c0.2,1.7,0.8,3.3,1.8,4.6c-2.2,0.1-4.1,1.2-5.4,2.7c-0.7-0.9-1.6-1.6-2.8-2.1c1.1-1.5,1.7-3.3,1.6-5.2l-8.1,0.6L241.1,199.1z"/>
	</g>
	<g>
		<path class="st13" d="M73.8,351.5c0.3,0.1,0.5,0.3,0.7,0.5c0.3-0.4,0.8-0.7,1.4-0.7c-0.3-0.3-0.4-0.8-0.5-1.2
			c-0.2,0.1-0.4,0.1-0.6,0.1c-0.5,0-1-0.2-1.4-0.5l-1.4,0.6l2.1-0.2C74.2,350.6,74.1,351.1,73.8,351.5z"/>
		<path class="st13" d="M78,347.5c-0.4,0-0.7,0.1-1,0.2c-0.2-1-1.1-1.7-2.2-1.7c-1.2,0-2.2,0.9-2.2,2.1c0,0.1,0,0.2,0,0.2
			c-0.2-0.1-0.5-0.1-0.7-0.1c-1.2,0.1-2,1.1-1.9,2.2c0.1,0.8,0.6,1.5,1.4,1.7c-0.1,0.2-0.2,0.3-0.2,0.5c-0.3,1,0.3,2,1.4,2.3
			c0.8,0.2,1.6-0.1,2-0.7c0.4,0.4,0.9,0.7,1.5,0.7c1.1,0,1.9-0.8,1.9-1.9c0-0.3-0.1-0.6-0.2-0.9c0.1,0,0.1,0,0.2,0
			c1.4,0,2.5-1.1,2.5-2.4C80.5,348.6,79.4,347.5,78,347.5z M73.5,349.7c0.4,0.3,0.9,0.5,1.4,0.5c0.2,0,0.4,0,0.6-0.1
			c0,0.4,0.2,0.9,0.5,1.2c-0.6,0-1.1,0.3-1.4,0.7c-0.2-0.2-0.4-0.4-0.7-0.5c0.3-0.4,0.4-0.9,0.4-1.4l-2.1,0.2L73.5,349.7z"/>
	</g>
	<g>
		<path class="st13" d="M88.7,362.4c0.3,0.1,0.5,0.3,0.7,0.5c0.3-0.4,0.8-0.7,1.4-0.7c-0.3-0.3-0.4-0.8-0.5-1.2
			c-0.2,0.1-0.4,0.1-0.6,0.1c-0.5,0-1-0.2-1.4-0.5l-1.4,0.6l2.1-0.2C89.2,361.5,89,362,88.7,362.4z"/>
		<path class="st13" d="M92.9,358.4c-0.4,0-0.7,0.1-1,0.2c-0.2-1-1.1-1.7-2.2-1.7c-1.2,0-2.2,0.9-2.2,2.1c0,0.1,0,0.2,0,0.2
			c-0.2-0.1-0.5-0.1-0.7-0.1c-1.2,0.1-2,1.1-1.9,2.2c0.1,0.8,0.6,1.5,1.4,1.7c-0.1,0.2-0.2,0.3-0.2,0.5c-0.3,1,0.3,2,1.4,2.3
			c0.8,0.2,1.6-0.1,2-0.7c0.4,0.4,0.9,0.7,1.5,0.7c1.1,0,1.9-0.8,1.9-1.9c0-0.3-0.1-0.6-0.2-0.9c0.1,0,0.1,0,0.2,0
			c1.4,0,2.5-1.1,2.5-2.4C95.4,359.4,94.3,358.4,92.9,358.4z M88.4,360.6c0.4,0.3,0.9,0.5,1.4,0.5c0.2,0,0.4,0,0.6-0.1
			c0,0.4,0.2,0.9,0.5,1.2c-0.6,0-1.1,0.3-1.4,0.7c-0.2-0.2-0.4-0.4-0.7-0.5c0.3-0.4,0.4-0.9,0.4-1.4l-2.1,0.2L88.4,360.6z"/>
	</g>
	<g>
		<path class="st13" d="M48.5,300.9c0.3,0.1,0.5,0.3,0.7,0.5c0.3-0.4,0.8-0.7,1.4-0.7c-0.3-0.3-0.4-0.8-0.5-1.2
			c-0.2,0.1-0.4,0.1-0.6,0.1c-0.5,0-1-0.2-1.4-0.5l-1.4,0.6l2.1-0.2C49,300.1,48.8,300.6,48.5,300.9z"/>
		<path class="st13" d="M52.7,296.9c-0.4,0-0.7,0.1-1,0.2c-0.2-1-1.1-1.7-2.2-1.7c-1.2,0-2.2,0.9-2.2,2.1c0,0.1,0,0.2,0,0.2
			c-0.2-0.1-0.5-0.1-0.7-0.1c-1.2,0.1-2,1.1-1.9,2.2c0.1,0.8,0.6,1.5,1.4,1.7c-0.1,0.2-0.2,0.3-0.2,0.5c-0.3,1,0.3,2,1.4,2.3
			c0.8,0.2,1.6-0.1,2-0.7c0.4,0.4,0.9,0.7,1.5,0.7c1.1,0,1.9-0.8,1.9-1.9c0-0.3-0.1-0.6-0.2-0.9c0.1,0,0.1,0,0.2,0
			c1.4,0,2.5-1.1,2.5-2.4C55.2,298,54.1,296.9,52.7,296.9z M48.2,299.2c0.4,0.3,0.9,0.5,1.4,0.5c0.2,0,0.4,0,0.6-0.1
			c0,0.4,0.2,0.9,0.5,1.2c-0.6,0-1.1,0.3-1.4,0.7c-0.2-0.2-0.4-0.4-0.7-0.5c0.3-0.4,0.4-0.9,0.4-1.4l-2.1,0.2L48.2,299.2z"/>
	</g>
	<g>
		<path class="st13" d="M185.1,309.2c0.3,0.1,0.5,0.3,0.7,0.5c0.3-0.4,0.8-0.7,1.4-0.7c-0.3-0.3-0.4-0.8-0.5-1.2
			c-0.2,0.1-0.4,0.1-0.6,0.1c-0.5,0-1-0.2-1.4-0.5l-1.4,0.6l2.1-0.2C185.6,308.4,185.4,308.8,185.1,309.2z"/>
		<path class="st13" d="M189.3,305.2c-0.4,0-0.7,0.1-1,0.2c-0.2-1-1.1-1.7-2.2-1.7c-1.2,0-2.2,0.9-2.2,2.1c0,0.1,0,0.2,0,0.2
			c-0.2-0.1-0.5-0.1-0.7-0.1c-1.2,0.1-2,1.1-1.9,2.2c0.1,0.8,0.6,1.5,1.4,1.7c-0.1,0.2-0.2,0.3-0.2,0.5c-0.3,1,0.3,2,1.4,2.3
			c0.8,0.2,1.6-0.1,2-0.7c0.4,0.4,0.9,0.7,1.5,0.7c1.1,0,1.9-0.8,1.9-1.9c0-0.3-0.1-0.6-0.2-0.9c0.1,0,0.1,0,0.2,0
			c1.4,0,2.5-1.1,2.5-2.4C191.8,306.3,190.7,305.2,189.3,305.2z M184.8,307.5c0.4,0.3,0.9,0.5,1.4,0.5c0.2,0,0.4,0,0.6-0.1
			c0,0.4,0.2,0.9,0.5,1.2c-0.6,0-1.1,0.3-1.4,0.7c-0.2-0.2-0.4-0.4-0.7-0.5c0.3-0.4,0.4-0.9,0.4-1.4l-2.1,0.2L184.8,307.5z"/>
	</g>
	<g>
		<path class="st13" d="M229.5,321.7c0.3,0.1,0.5,0.3,0.7,0.5c0.3-0.4,0.8-0.7,1.4-0.7c-0.3-0.3-0.4-0.8-0.5-1.2
			c-0.2,0.1-0.4,0.1-0.6,0.1c-0.5,0-1-0.2-1.4-0.5l-1.4,0.6l2.1-0.2C229.9,320.9,229.7,321.3,229.5,321.7z"/>
		<path class="st13" d="M233.6,317.7c-0.4,0-0.7,0.1-1,0.2c-0.2-1-1.1-1.7-2.2-1.7c-1.2,0-2.2,0.9-2.2,2.1c0,0.1,0,0.2,0,0.2
			c-0.2-0.1-0.5-0.1-0.7-0.1c-1.2,0.1-2,1.1-1.9,2.2c0.1,0.8,0.6,1.5,1.4,1.7c-0.1,0.2-0.2,0.3-0.2,0.5c-0.3,1,0.3,2,1.4,2.3
			c0.8,0.2,1.6-0.1,2-0.7c0.4,0.4,0.9,0.7,1.5,0.7c1.1,0,1.9-0.8,1.9-1.9c0-0.3-0.1-0.6-0.2-0.9c0.1,0,0.1,0,0.2,0
			c1.4,0,2.5-1.1,2.5-2.4C236.1,318.8,235,317.7,233.6,317.7z M229.1,320c0.4,0.3,0.9,0.5,1.4,0.5c0.2,0,0.4,0,0.6-0.1
			c0,0.4,0.2,0.9,0.5,1.2c-0.6,0-1.1,0.3-1.4,0.7c-0.2-0.2-0.4-0.4-0.7-0.5c0.3-0.4,0.4-0.9,0.4-1.4l-2.1,0.2L229.1,320z"/>
	</g>
	<g>
		<path class="st13" d="M242.3,325.8c0.3,0.1,0.5,0.3,0.7,0.5c0.3-0.4,0.8-0.7,1.4-0.7c-0.3-0.3-0.4-0.8-0.5-1.2
			c-0.2,0.1-0.4,0.1-0.6,0.1c-0.5,0-1-0.2-1.4-0.5l-1.4,0.6l2.1-0.2C242.7,325,242.6,325.4,242.3,325.8z"/>
		<path class="st13" d="M246.5,321.8c-0.4,0-0.7,0.1-1,0.2c-0.2-1-1.1-1.7-2.2-1.7c-1.2,0-2.2,0.9-2.2,2.1c0,0.1,0,0.2,0,0.2
			c-0.2-0.1-0.5-0.1-0.7-0.1c-1.2,0.1-2,1.1-1.9,2.2c0.1,0.8,0.6,1.5,1.4,1.7c-0.1,0.2-0.2,0.3-0.2,0.5c-0.3,1,0.3,2,1.4,2.3
			c0.8,0.2,1.6-0.1,2-0.7c0.4,0.4,0.9,0.7,1.5,0.7c1.1,0,1.9-0.8,1.9-1.9c0-0.3-0.1-0.6-0.2-0.9c0.1,0,0.1,0,0.2,0
			c1.4,0,2.5-1.1,2.5-2.4C249,322.9,247.9,321.8,246.5,321.8z M242,324.1c0.4,0.3,0.9,0.5,1.4,0.5c0.2,0,0.4,0,0.6-0.1
			c0,0.4,0.2,0.9,0.5,1.2c-0.6,0-1.1,0.3-1.4,0.7c-0.2-0.2-0.4-0.4-0.7-0.5c0.3-0.4,0.4-0.9,0.4-1.4l-2.1,0.2L242,324.1z"/>
	</g>
	<g>
		<path class="st13" d="M109.6,290.2c0.5,0.3,1,0.6,1.3,1.1c0.6-0.8,1.5-1.3,2.5-1.4c-0.5-0.7-0.8-1.5-0.8-2.4
			c-0.4,0.1-0.7,0.2-1.1,0.2c-0.9,0-1.8-0.3-2.5-0.9l-2.4,1.1l3.8-0.3C110.4,288.5,110.1,289.4,109.6,290.2z"/>
		<path class="st13" d="M117,282.2c-0.6,0-1.2,0.1-1.8,0.4c-0.4-1.9-2-3.4-3.9-3.4c-2.2,0-3.9,1.9-3.9,4.2c0,0.2,0,0.3,0,0.5
			c-0.4-0.1-0.8-0.2-1.3-0.1c-2.1,0.2-3.6,2.1-3.5,4.3c0.1,1.6,1.1,2.9,2.4,3.4c-0.2,0.3-0.3,0.6-0.4,1c-0.5,2,0.6,4,2.5,4.5
			c1.4,0.4,2.8-0.2,3.6-1.3c0.6,0.9,1.6,1.4,2.7,1.4c1.9,0,3.5-1.6,3.5-3.7c0-0.6-0.1-1.2-0.4-1.7c0.1,0,0.3,0,0.4,0
			c2.5,0,4.5-2.1,4.5-4.8C121.6,284.4,119.5,282.2,117,282.2z M108.9,286.7c0.7,0.6,1.5,0.9,2.5,0.9c0.4,0,0.8-0.1,1.1-0.2
			c0.1,0.9,0.4,1.7,0.8,2.4c-1,0.1-1.9,0.6-2.5,1.4c-0.3-0.5-0.8-0.8-1.3-1.1c0.5-0.7,0.8-1.7,0.7-2.7l-3.8,0.3L108.9,286.7z"/>
	</g>
	<g>
		<path class="st13" d="M191.6,270.4c0.5,0.3,1,0.6,1.3,1.1c0.6-0.8,1.5-1.3,2.5-1.4c-0.5-0.7-0.8-1.5-0.8-2.4
			c-0.4,0.1-0.7,0.2-1.1,0.2c-0.9,0-1.8-0.3-2.5-0.9l-2.4,1.1l3.8-0.3C192.4,268.7,192.1,269.6,191.6,270.4z"/>
		<path class="st13" d="M199.1,262.4c-0.6,0-1.2,0.1-1.8,0.4c-0.4-1.9-2-3.4-3.9-3.4c-2.2,0-3.9,1.9-3.9,4.2c0,0.2,0,0.3,0,0.5
			c-0.4-0.1-0.8-0.2-1.3-0.1c-2.1,0.2-3.6,2.1-3.5,4.3c0.1,1.6,1.1,2.9,2.4,3.4c-0.2,0.3-0.3,0.6-0.4,1c-0.5,2,0.6,4,2.5,4.5
			c1.4,0.4,2.8-0.2,3.6-1.3c0.6,0.9,1.6,1.4,2.7,1.4c1.9,0,3.5-1.6,3.5-3.7c0-0.6-0.1-1.2-0.4-1.7c0.1,0,0.3,0,0.4,0
			c2.5,0,4.5-2.1,4.5-4.8S201.6,262.4,199.1,262.4z M191,266.9c0.7,0.6,1.5,0.9,2.5,0.9c0.4,0,0.8-0.1,1.1-0.2
			c0.1,0.9,0.4,1.7,0.8,2.4c-1,0.1-1.9,0.6-2.5,1.4c-0.3-0.5-0.8-0.8-1.3-1.1c0.5-0.7,0.8-1.7,0.7-2.7l-3.8,0.3L191,266.9z"/>
	</g>
	<g>
		<path class="st13" d="M109.6,365.4c0.5,0.3,1,0.6,1.3,1.1c0.6-0.8,1.5-1.3,2.5-1.4c-0.5-0.7-0.8-1.5-0.8-2.4
			c-0.4,0.1-0.7,0.2-1.1,0.2c-0.9,0-1.8-0.3-2.5-0.9l-2.4,1.1l3.8-0.3C110.4,363.7,110.1,364.7,109.6,365.4z"/>
		<path class="st13" d="M117,357.5c-0.6,0-1.2,0.1-1.8,0.4c-0.4-1.9-2-3.4-3.9-3.4c-2.2,0-3.9,1.9-3.9,4.2c0,0.2,0,0.3,0,0.5
			c-0.4-0.1-0.8-0.2-1.3-0.1c-2.1,0.2-3.6,2.1-3.5,4.3c0.1,1.6,1.1,2.9,2.4,3.4c-0.2,0.3-0.3,0.6-0.4,1c-0.5,2,0.6,4,2.5,4.5
			c1.4,0.4,2.8-0.2,3.6-1.3c0.6,0.9,1.6,1.4,2.7,1.4c1.9,0,3.5-1.6,3.5-3.7c0-0.6-0.1-1.2-0.4-1.7c0.1,0,0.3,0,0.4,0
			c2.5,0,4.5-2.1,4.5-4.8S119.5,357.5,117,357.5z M108.9,362c0.7,0.6,1.5,0.9,2.5,0.9c0.4,0,0.8-0.1,1.1-0.2
			c0.1,0.9,0.4,1.7,0.8,2.4c-1,0.1-1.9,0.6-2.5,1.4c-0.3-0.5-0.8-0.8-1.3-1.1c0.5-0.7,0.8-1.7,0.7-2.7l-3.8,0.3L108.9,362z"/>
	</g>
	<line class="st15" x1="117" y1="308.6" x2="112.1" y2="297.2"/>
	<line class="st15" x1="64" y1="261.5" x2="68.3" y2="271.5"/>
	<line class="st15" x1="194.8" y1="276.5" x2="201.5" y2="290.3"/>
	<line class="st15" x1="211" y1="314.3" x2="208" y2="324.1"/>
	<line class="st15" x1="242.2" y1="293.3" x2="238.5" y2="300.8"/>
	<line class="st15" x1="225.4" y1="269.8" x2="220" y2="282.1"/>
	<line class="st15" x1="46.4" y1="277.4" x2="52" y2="290.3"/>
	<line class="st15" x1="80.5" y1="297.2" x2="83" y2="302.1"/>
	<line class="st15" x1="82.6" y1="328.5" x2="87" y2="336.8"/>
	<line class="st15" x1="193.2" y1="339.9" x2="194.2" y2="347.1"/>
	<line class="st15" x1="108.9" y1="198.5" x2="113.4" y2="219.4"/>
	<line class="st15" x1="62" y1="199.1" x2="68.3" y2="212.9"/>
	<line class="st15" x1="186.9" y1="208.9" x2="181" y2="224.4"/>
	<line class="st15" x1="245.2" y1="216.7" x2="242.2" y2="227.7"/>
	<line class="st15" x1="-97.7" y1="243.1" x2="-100.6" y2="254.1"/>
	<g>
		<path class="st13" d="M193.3,227.8c0.3,0.1,0.5,0.3,0.7,0.5c0.3-0.4,0.8-0.7,1.4-0.7c-0.3-0.3-0.4-0.8-0.5-1.2
			c-0.2,0.1-0.4,0.1-0.6,0.1c-0.5,0-1-0.2-1.4-0.5l-1.4,0.6l2.1-0.2C193.7,227,193.6,227.4,193.3,227.8z"/>
		<path class="st13" d="M197.5,223.8c-0.4,0-0.7,0.1-1,0.2c-0.2-1-1.1-1.7-2.2-1.7c-1.2,0-2.2,0.9-2.2,2.1c0,0.1,0,0.2,0,0.2
			c-0.2-0.1-0.5-0.1-0.7-0.1c-1.2,0.1-2,1.1-1.9,2.2c0.1,0.8,0.6,1.5,1.4,1.7c-0.1,0.2-0.2,0.3-0.2,0.5c-0.3,1,0.3,2,1.4,2.3
			c0.8,0.2,1.6-0.1,2-0.7c0.4,0.4,0.9,0.7,1.5,0.7c1.1,0,1.9-0.8,1.9-1.9c0-0.3-0.1-0.6-0.2-0.9c0.1,0,0.1,0,0.2,0
			c1.4,0,2.5-1.1,2.5-2.4C200,224.9,198.9,223.8,197.5,223.8z M193,226.1c0.4,0.3,0.9,0.5,1.4,0.5c0.2,0,0.4,0,0.6-0.1
			c0,0.4,0.2,0.9,0.5,1.2c-0.6,0-1.1,0.3-1.4,0.7c-0.2-0.2-0.4-0.4-0.7-0.5c0.3-0.4,0.4-0.9,0.4-1.4l-2.1,0.2L193,226.1z"/>
	</g>
	<g>
		<path class="st13" d="M179.5,320.9c0.3,0.1,0.5,0.3,0.7,0.5c0.3-0.4,0.8-0.7,1.4-0.7c-0.3-0.3-0.4-0.8-0.5-1.2
			c-0.2,0.1-0.4,0.1-0.6,0.1c-0.5,0-1-0.2-1.4-0.5l-1.4,0.6l2.1-0.2C179.9,320,179.8,320.5,179.5,320.9z"/>
		<path class="st13" d="M183.7,316.9c-0.4,0-0.7,0.1-1,0.2c-0.2-1-1.1-1.7-2.2-1.7c-1.2,0-2.2,0.9-2.2,2.1c0,0.1,0,0.2,0,0.2
			c-0.2-0.1-0.5-0.1-0.7-0.1c-1.2,0.1-2,1.1-1.9,2.2c0.1,0.8,0.6,1.5,1.4,1.7c-0.1,0.2-0.2,0.3-0.2,0.5c-0.3,1,0.3,2,1.4,2.3
			c0.8,0.2,1.6-0.1,2-0.7c0.4,0.4,0.9,0.7,1.5,0.7c1.1,0,1.9-0.8,1.9-1.9c0-0.3-0.1-0.6-0.2-0.9c0.1,0,0.1,0,0.2,0
			c1.4,0,2.5-1.1,2.5-2.4C186.2,318,185.1,316.9,183.7,316.9z M179.2,319.1c0.4,0.3,0.9,0.5,1.4,0.5c0.2,0,0.4,0,0.6-0.1
			c0,0.4,0.2,0.9,0.5,1.2c-0.6,0-1.1,0.3-1.4,0.7c-0.2-0.2-0.4-0.4-0.7-0.5c0.3-0.4,0.4-0.9,0.4-1.4l-2.1,0.2L179.2,319.1z"/>
	</g>
	<line class="st15" x1="182.8" y1="319.5" x2="191.6" y2="320.7"/>
</g>
<g id="Layer_2">
	<g>
		<path class="st13" d="M70.8,289.5c0.8,0.4,1.5,0.9,2,1.6c0.9-1.2,2.4-2,4-2.1c-0.7-1-1.2-2.2-1.3-3.6c-0.6,0.2-1.2,0.3-1.8,0.3
			c-1.5,0-2.8-0.5-3.9-1.4L66,286l6-0.5C72.1,287,71.7,288.4,70.8,289.5z"/>
		<path class="st13" d="M82.7,277.6c-1,0-1.9,0.2-2.8,0.6c-0.6-2.9-3.1-5-6.1-5c-3.5,0-6.3,2.8-6.3,6.3c0,0.2,0,0.5,0,0.7
			c-0.6-0.2-1.3-0.2-2-0.2c-3.3,0.3-5.8,3.2-5.5,6.5c0.2,2.4,1.8,4.3,3.9,5.1c-0.3,0.5-0.5,1-0.6,1.5c-0.8,2.9,1,5.9,3.9,6.7
			c2.2,0.6,4.4-0.3,5.7-1.9c1,1.3,2.6,2.1,4.3,2.1c3,0,5.5-2.5,5.5-5.5c0-0.9-0.2-1.8-0.6-2.5c0.2,0,0.4,0,0.6,0
			c4,0,7.2-3.2,7.2-7.2C89.8,280.8,86.6,277.6,82.7,277.6z M69.8,284.3c1.1,0.9,2.4,1.4,3.9,1.4c0.6,0,1.2-0.1,1.8-0.3
			c0.1,1.3,0.6,2.5,1.3,3.6c-1.6,0.1-3.1,0.9-4,2.1c-0.5-0.7-1.2-1.2-2-1.6c0.8-1.1,1.3-2.5,1.1-4l-6,0.5L69.8,284.3z"/>
	</g>
	<g class="st16">
		<path class="st13" d="M95.6,342c0.8,0.4,1.5,0.9,2,1.6c0.9-1.2,2.4-2,4-2.1c-0.7-1-1.2-2.2-1.3-3.6c-0.6,0.2-1.2,0.3-1.8,0.3
			c-1.5,0-2.8-0.5-3.9-1.4l-3.8,1.6l6-0.5C96.9,339.4,96.4,340.8,95.6,342z"/>
		<path class="st13" d="M107.4,330.1c-1,0-1.9,0.2-2.8,0.6c-0.6-2.9-3.1-5-6.1-5c-3.5,0-6.3,2.8-6.3,6.3c0,0.2,0,0.5,0,0.7
			c-0.6-0.2-1.3-0.2-2-0.2c-3.3,0.3-5.8,3.2-5.5,6.5c0.2,2.4,1.8,4.3,3.9,5.1c-0.3,0.5-0.5,1-0.6,1.5c-0.8,2.9,1,5.9,3.9,6.7
			c2.2,0.6,4.4-0.3,5.7-1.9c1,1.3,2.6,2.1,4.3,2.1c3,0,5.5-2.5,5.5-5.5c0-0.9-0.2-1.8-0.6-2.5c0.2,0,0.4,0,0.6,0
			c4,0,7.2-3.2,7.2-7.2C114.6,333.3,111.4,330.1,107.4,330.1z M94.6,336.8c1.1,0.9,2.4,1.4,3.9,1.4c0.6,0,1.2-0.1,1.8-0.3
			c0.1,1.3,0.6,2.5,1.3,3.6c-1.6,0.1-3.1,0.9-4,2.1c-0.5-0.7-1.2-1.2-2-1.6c0.8-1.1,1.3-2.5,1.1-4l-6,0.5L94.6,336.8z"/>
	</g>
	<g>
		<path class="st13" d="M65.6,324.8c1.2,0.6,2.2,1.4,2.9,2.4c1.4-1.8,3.4-2.9,5.8-3.1c-1.1-1.5-1.8-3.3-1.9-5.2
			c-0.8,0.3-1.7,0.4-2.6,0.4c-2.1,0-4.1-0.8-5.6-2l-5.5,2.4l8.6-0.7C67.4,321.1,66.8,323.2,65.6,324.8z"/>
		<path class="st13" d="M82.6,307.5c-1.4,0-2.8,0.3-4,0.8c-0.8-4.2-4.5-7.3-8.8-7.3c-5,0-9,4.1-9,9.2c0,0.3,0,0.7,0.1,1
			c-0.9-0.3-1.9-0.4-2.9-0.3c-4.7,0.4-8.3,4.7-7.9,9.5c0.3,3.5,2.5,6.4,5.6,7.5c-0.4,0.7-0.7,1.4-0.9,2.2c-1.1,4.3,1.4,8.7,5.6,9.8
			c3.2,0.9,6.4-0.4,8.3-2.8c1.4,1.9,3.7,3.1,6.2,3.1c4.4,0,7.9-3.6,7.9-8c0-1.3-0.3-2.6-0.9-3.7c0.3,0,0.6,0,0.9,0
			c5.7,0,10.3-4.7,10.3-10.5C92.9,312.2,88.3,307.5,82.6,307.5z M64.1,317.3c1.5,1.3,3.5,2,5.6,2c0.9,0,1.8-0.1,2.6-0.4
			c0.2,1.9,0.9,3.7,1.9,5.2c-2.3,0.1-4.4,1.3-5.8,3.1c-0.8-1-1.8-1.8-2.9-2.4c1.2-1.6,1.8-3.7,1.7-5.9l-8.6,0.7L64.1,317.3z"/>
	</g>
	<g>
		<path class="st13" d="M112.3,321.8c0.5,0.2,0.9,0.6,1.2,1c0.5-0.7,1.3-1.2,2.3-1.2c-0.4-0.6-0.7-1.3-0.8-2.1
			c-0.3,0.1-0.7,0.2-1,0.2c-0.8,0-1.6-0.3-2.2-0.8l-2.2,1l3.4-0.3C113,320.3,112.8,321.1,112.3,321.8z"/>
		<path class="st13" d="M119,314.8c-0.6,0-1.1,0.1-1.6,0.3c-0.3-1.7-1.8-3-3.5-3c-2,0-3.5,1.7-3.5,3.7c0,0.1,0,0.3,0,0.4
			c-0.4-0.1-0.7-0.1-1.1-0.1c-1.9,0.2-3.3,1.9-3.1,3.8c0.1,1.4,1,2.6,2.2,3c-0.2,0.3-0.3,0.6-0.4,0.9c-0.4,1.7,0.5,3.5,2.2,4
			c1.2,0.3,2.5-0.1,3.3-1.1c0.6,0.8,1.5,1.2,2.4,1.2c1.7,0,3.1-1.4,3.1-3.2c0-0.5-0.1-1-0.4-1.5c0.1,0,0.2,0,0.4,0
			c2.2,0,4.1-1.9,4.1-4.2C123.1,316.7,121.2,314.8,119,314.8z M111.7,318.7c0.6,0.5,1.4,0.8,2.2,0.8c0.4,0,0.7-0.1,1-0.2
			c0.1,0.8,0.3,1.5,0.8,2.1c-0.9,0.1-1.7,0.5-2.3,1.2c-0.3-0.4-0.7-0.7-1.2-1c0.5-0.7,0.7-1.5,0.6-2.4l-3.4,0.3L111.7,318.7z"/>
	</g>
</g>
</svg>
