<?xml version="1.0" encoding="utf-8"?>
<!-- Generator: Adobe Illustrator 21.1.0, SVG Export Plug-In . SVG Version: 6.00 Build 0)  -->
<svg version="1.1" xmlns="http://www.w3.org/2000/svg" xmlns:xlink="http://www.w3.org/1999/xlink" x="0px" y="0px"
	 viewBox="0 0 288 560" style="enable-background:new 0 0 288 560;" xml:space="preserve">
<style type="text/css">
	.st0{fill:#9BBBE2;stroke:#9BBBE2;stroke-miterlimit:10;}
	.st1{fill:#999999;stroke:#999999;stroke-miterlimit:10;}
	.st2{fill:#F2F2F2;}
	.st3{fill:#FFFFFF;stroke:#FFFFFF;stroke-miterlimit:10;}
	.st4{fill:#FFFFFF;}
	.st5{fill:#666666;stroke:#666666;stroke-miterlimit:10;}
	.st6{fill:#E6E6E6;}
	.st7{fill:#F2F2F2;stroke:#F2F2F2;stroke-miterlimit:10;}
	.st8{fill:#898599;stroke:#898599;stroke-miterlimit:10;}
	.st9{fill:#CCCCCC;}
	.st10{fill:none;stroke:#808080;stroke-width:5;stroke-miterlimit:10;}
	.st11{opacity:0.33;fill:#FFFFFF;stroke:#FFFFFF;stroke-linecap:round;stroke-miterlimit:10;}
	.st12{fill:#FE7A5C;}
</style>
<g id="Static">
	<path class="st0" d="M145.8,383.3L145.8,383.3C67,383.3,3,319.4,3,240.6v-4.5C3,157.3,67,93.3,145.8,93.3h0
		c78.8,0,142.7,63.9,142.7,142.7v4.5C288.5,319.4,224.6,383.3,145.8,383.3z"/>
	<rect x="121" y="270.5" class="st1" width="54" height="73.5"/>
	<g>
		<g>
			<path class="st2" d="M153.8,300.2c-3.2-2-6.3-4-9.5-6c-1.6-1-3.1,1.6-1.5,2.6c3.2,2,6.3,4,9.5,6
				C153.9,303.8,155.4,301.2,153.8,300.2L153.8,300.2z"/>
		</g>
	</g>
	<path class="st3" d="M148.3,310.9L148.3,310.9c-13.6,0-24.7-11.1-24.7-24.7v-12.4c0-13.6,11.1-24.7,24.7-24.7h0
		c13.6,0,24.7,11.1,24.7,24.7v12.4C173,299.8,161.9,310.9,148.3,310.9z"/>
	<g>
		<g>
			<path class="st4" d="M142.5,252c1.9,0,1.9-3,0-3C140.6,249,140.6,252,142.5,252L142.5,252z"/>
		</g>
	</g>
	<g>
		<g>
			<path class="st4" d="M141.2,252.2c-3.5,5.7-3.8,12.1-3,18.6c0.6,4.8,2.5,8.6-1.2,12.6c-1,1.1-2.1,1.6-2.5,3.2
				c-0.4,1.9,0.7,2.8,1.6,4.2c1.3,0.7,1.8,1.9,1.5,3.5c-0.1,0.2-0.2,0.4-0.2,0.6c0.2,0.8,0.1,1.2,0.7,2c2.8,3.6,12.4,2,16.2,1.3
				c1.9-0.3,1.1-3.2-0.8-2.9c-1.8,0.3-11.2,1.7-12.4-0.1c-0.5-0.7,0.3-2,0.1-2.8c-0.3-1.5-1.7-2-2.4-3.2c-1.7-2.9,0.9-3.5,2.4-5.2
				c2.4-2.9,1.1-6.5,0.6-9.8c-1.1-7-1.8-14,2-20.4C144.7,252.1,142.2,250.6,141.2,252.2L141.2,252.2z"/>
		</g>
	</g>
	<g>
		<g>
			<path class="st4" d="M144.7,263c-0.3-4.1,1.3-8.1,4.6-10.7c1.5-1.2,0-3.8-1.5-2.6c-4.2,3.2-6.5,8-6.1,13.3
				C141.8,264.9,144.8,264.9,144.7,263L144.7,263z"/>
		</g>
	</g>
	<g>
		<g>
			<path class="st4" d="M142.8,255.8c-2.8,5.4-3.5,11.2-2.3,17.1c0.4,1.9,3.3,1.1,2.9-0.8c-1-5.1-0.3-10.2,2-14.8
				C146.3,255.6,143.7,254.1,142.8,255.8L142.8,255.8z"/>
		</g>
	</g>
	<g>
		<g>
			<path class="st4" d="M-8,123.5c1.9,0,1.9-3,0-3C-9.9,120.5-9.9,123.5-8,123.5L-8,123.5z"/>
		</g>
	</g>
	<path class="st5" d="M168.9,385h-40.5c-13,0-23.5-10.5-23.5-23.5V343c0-13,10.5-23.5,23.5-23.5h40.5c13,0,23.5,10.5,23.5,23.5v18.5
		C192.4,374.5,181.9,385,168.9,385z"/>
	<rect x="121" y="251" class="st1" width="54" height="19.5"/>
	<path class="st1" d="M163.5,241.5h-31c-6.4,0-11.5,5.1-11.5,11.5v0c0,6.4,5.1,11.5,11.5,11.5h31c6.4,0,11.5-5.1,11.5-11.5v0
		C175,246.6,169.9,241.5,163.5,241.5z"/>
	<path class="st3" d="M148.7,330.8L148.7,330.8c-4,0-7.3-3.3-7.3-7.3v-12.4c0-4,3.3-7.3,7.3-7.3h0c4,0,7.3,3.3,7.3,7.3v12.4
		C156,327.6,152.7,330.8,148.7,330.8z"/>
	<g>
		<path class="st2" d="M141.3,273.6c0.7,5.1,0.4,10.4-1.1,15.4c-0.2,0.6-0.4,1.2-0.2,1.8c0.1,0.7,0.7,1.3,1.2,1.8
			c1.9,1.8,3.9,3.4,6,4.9c0.4,0.3,0.9,0.6,1.1,1.1c0.3,0.7-0.1,1.4-0.3,2.2c-0.3,1.1-0.1,2.2,0.1,3.3c1.1,8.1,1.4,16.3,0.7,24.4"/>
		<g>
			<path class="st2" d="M139.8,273.6c0.3,2.6,0.5,5.1,0.3,7.7c-0.2,2.8-1.7,6.2-1.5,9c0.2,3,3.3,4.5,5.3,6.4c3.6,3.4,3.1,9,3.5,13.9
				c0.5,6,0.4,11.9,0,17.9c-0.1,1.9,2.9,1.9,3,0c0.4-6,0.5-11.9,0-17.9c-0.2-2.7-1-5.5-0.9-8.2c0-1.5,0.9-3.1,0.2-4.6
				c-1.6-3.5-7.8-4-7.9-8.4c-0.1-2.2,1.1-4.9,1.3-7.2c0.3-2.9,0.1-5.7-0.2-8.6C142.6,271.7,139.6,271.7,139.8,273.6L139.8,273.6z"/>
		</g>
	</g>
	<g>
		<g>
			<path class="st6" d="M148.3,331.5c1.9,0,1.9-3,0-3C146.4,328.5,146.4,331.5,148.3,331.5L148.3,331.5z"/>
		</g>
	</g>
	<g>
		<g>
			<path class="st2" d="M140.5,273.8c1.9,0,1.9-3,0-3C138.6,270.8,138.6,273.8,140.5,273.8L140.5,273.8z"/>
		</g>
	</g>
	<rect x="124.5" y="271.3" class="st7" width="16" height="20.4"/>
	<path class="st7" d="M141.5,308.7h-2.1c-3.7,0-6.6-3-6.6-6.6v0c0-3.7,3-6.6,6.6-6.6h2.1c3.7,0,6.6,3,6.6,6.6v0
		C148.2,305.8,145.2,308.7,141.5,308.7z"/>
	<path class="st7" d="M133.2,298.4h-2.1c-3.7,0-6.6-3-6.6-6.6v0c0-3.7,3-6.6,6.6-6.6h2.1c3.7,0,6.6,3,6.6,6.6v0
		C139.8,295.4,136.9,298.4,133.2,298.4z"/>
	<path class="st7" d="M134.9,298.4h-2.3c-3.7,0-6.6-3-6.6-6.6v-2.9c0-3.7,3-6.6,6.6-6.6h2.3c3.7,0,6.6,3,6.6,6.6v2.9
		C141.5,295.4,138.6,298.4,134.9,298.4z"/>
	<path class="st7" d="M136.1,303.9H134c-3.7,0-6.6-3-6.6-6.6l0,0c0-3.7,3-6.6,6.6-6.6h2.1c3.7,0,6.6,3,6.6,6.6l0,0
		C142.7,301,139.7,303.9,136.1,303.9z"/>
	<rect x="141.5" y="306" class="st7" width="6.5" height="19.2"/>
	<path class="st7" d="M148,330.5L148,330.5c-3.7,0-6.6-3-6.6-6.6l0,0c0-3.7,3-6.6,6.6-6.6l0,0c3.7,0,6.6,3,6.6,6.6l0,0
		C154.6,327.6,151.7,330.5,148,330.5z"/>
	<path class="st8" d="M124.8,270.5h12.7c2.1,0,3.8-1.7,3.8-3.8v-16c0-2.1-1.7-3.8-3.8-3.8h-12.7c-2.1,0-3.8,1.7-3.8,3.8v16
		C121,268.8,122.7,270.5,124.8,270.5z"/>
	<path class="st8" d="M132.2,264.8h0.5c4.9,0,8.9-4,8.9-8.9V250c0-4.9-4-8.9-8.9-8.9h-0.5c-4.9,0-8.9,4-8.9,8.9v5.9
		C123.3,260.8,127.3,264.8,132.2,264.8z"/>
	<g>
		<g>
			<path class="st9" d="M80,478.5c1.9,0,1.9-3,0-3C78.1,475.5,78.1,478.5,80,478.5L80,478.5z"/>
		</g>
	</g>
	<path class="st10" d="M145.8,389L145.8,389C66.3,389,1.9,324.6,1.9,245.1v-6.7c0-79.5,64.4-143.9,143.9-143.9h0
		c79.5,0,143.9,64.4,143.9,143.9v6.7C289.7,324.6,225.3,389,145.8,389z"/>
</g>
<g id="Layer_4">
	<path class="st11" d="M223.7,120.1l8,8c6.7,6.7,6.7,17.5,0,24.1L59,325c-6.7,6.7-17.5,6.7-24.1,0l-8-8c-6.7-6.7-6.7-17.5,0-24.1
		l172.8-172.8C206.2,113.4,217,113.4,223.7,120.1z"/>
	<path class="st11" d="M269.5,174L269.5,174c3.2,3.2,3.2,8.5,0,11.7L88.2,367c-3.2,3.2-8.5,3.2-11.7,0h0c-3.2-3.2-3.2-8.5,0-11.7
		L257.8,174C261,170.7,266.3,170.7,269.5,174z"/>
</g>
<g id="Fish1">
	<g>
		<path class="st12" d="M195.5,354.9l-0.5,0.3l8.1,3.7l-1.2-8.1l-6.2,3.9c0,0,0,0.1,0,0.1H195.5z"/>
		<g>
			<path class="st12" d="M195.5,354.9h0.2c0,0,0-0.1,0-0.1c-0.2-2.3-6.6-4.1-14.3-4.1c-7.9,0-14.3,1.9-14.3,4.2
				c0,2.3,6.5,4.2,14.3,4.2c6.5,0,12.3-1.3,13.9-3.2l-13.9-1H195.5z"/>
			<path class="st12" d="M195.5,354.9l0.2,0l0,0c0-0.7-0.5-1.2-1-1.5c-0.5-0.4-1.1-0.6-1.7-0.9c-1.2-0.5-2.4-0.8-3.7-1
				c-2.5-0.5-5.1-0.7-7.6-0.6c-2.6,0-5.1,0.2-7.6,0.7c-1.2,0.2-2.5,0.5-3.7,1c-0.6,0.2-1.2,0.5-1.7,0.8c-0.5,0.3-1,0.7-1.2,1.2
				c-0.2,0.4,0,0.9,0.4,1.3c0.4,0.4,0.9,0.7,1.5,0.9c1.1,0.5,2.3,0.8,3.6,1.1c2.5,0.5,5,0.7,7.5,0.8c2.5,0.1,5.1-0.1,7.6-0.4
				c1.2-0.2,2.5-0.5,3.7-0.8c1.2-0.4,2.4-0.8,3.2-1.6l0.2,0.6l-13.9-1.3l0-0.2c2.4,0.1,4.7,0,7.1,0.1L195.5,354.9z M195.5,354.9
				l-7.1,0c-2.4,0-4.7,0-7.1,0.1l0-0.2l13.9,0.8l0.7,0l-0.5,0.5c-1,1.1-2.3,1.5-3.5,2c-1.2,0.4-2.5,0.7-3.8,0.9
				c-2.6,0.4-5.1,0.6-7.7,0.5c-2.6,0-5.2-0.3-7.7-0.9c-1.3-0.3-2.5-0.6-3.7-1.2c-0.6-0.3-1.2-0.6-1.7-1.1c-0.1-0.1-0.2-0.3-0.4-0.4
				c-0.1-0.2-0.2-0.3-0.3-0.5c-0.1-0.4-0.1-0.9,0.1-1.2c0.4-0.7,1-1.1,1.5-1.5c0.6-0.3,1.2-0.6,1.8-0.8c1.2-0.4,2.5-0.7,3.8-0.9
				c2.5-0.4,5.1-0.5,7.7-0.5c2.6,0.1,5.1,0.3,7.6,0.8c1.3,0.3,2.5,0.6,3.7,1.1c0.6,0.3,1.2,0.5,1.7,0.9c0.5,0.4,1,0.9,1,1.6l0,0
				L195.5,354.9z"/>
		</g>
	</g>
	<g>
		<path class="st12" d="M134.4,197.3l-0.9,0.6l14.8,6.8l-2.1-14.8l-11.4,7.2c0,0.1,0,0.1,0,0.2H134.4z"/>
		<g>
			<path class="st12" d="M134.4,197.3h0.3c0-0.1,0-0.1,0-0.2c-0.4-4.1-12-7.5-26.1-7.5c-14.4,0-26.2,3.5-26.2,7.7s11.8,7.7,26.2,7.7
				c11.9,0,22.4-2.4,25.4-5.8l-25.4-1.9H134.4z"/>
			<path class="st12" d="M134.4,197.3l0.3,0l0,0c0-1.2-1-2.1-1.9-2.8c-1-0.7-2-1.2-3.1-1.6c-2.2-0.9-4.4-1.4-6.7-1.9
				c-4.6-0.9-9.3-1.2-13.9-1.2c-4.7,0-9.3,0.4-13.9,1.2c-2.3,0.4-4.6,1-6.7,1.8c-1.1,0.4-2.1,0.9-3.1,1.4c-1,0.6-1.9,1.3-2.3,2.2
				c-0.5,0.9,0,2,0.8,2.7c0.8,0.8,1.8,1.3,2.8,1.8c2.1,0.9,4.3,1.6,6.6,2.1c4.5,1,9.2,1.3,13.8,1.4c4.6,0.1,9.3-0.2,13.9-0.9
				c2.3-0.4,4.6-0.8,6.8-1.5c1.1-0.4,2.2-0.7,3.2-1.2c1-0.5,2-1.1,2.8-1.9l0.2,0.6l-25.3-2.1l0-0.2L134.4,197.3z M134.4,197.3
				l-25.8,0.1l0-0.2l25.4,1.7l0.7,0l-0.5,0.5c-0.8,1-1.9,1.6-2.9,2.1c-1.1,0.6-2.2,1-3.3,1.3c-2.3,0.7-4.6,1.2-6.9,1.6
				c-4.7,0.7-9.4,1-14.1,1c-4.7-0.1-9.4-0.5-14-1.5c-2.3-0.5-4.6-1.2-6.8-2.2c-1.1-0.5-2.1-1.1-3-2c-0.4-0.4-0.8-1-1-1.6
				c-0.2-0.6-0.1-1.4,0.2-2c0.6-1.2,1.6-1.9,2.7-2.5c1-0.6,2.1-1.1,3.3-1.4c2.2-0.8,4.5-1.3,6.9-1.7c4.6-0.8,9.3-1,14-1
				c4.7,0.1,9.4,0.5,14,1.4c2.3,0.5,4.6,1.1,6.7,1.9c1.1,0.4,2.1,1,3.1,1.7c0.9,0.7,1.8,1.6,1.9,2.8l0,0L134.4,197.3z"/>
		</g>
	</g>
	<g>
		<path class="st12" d="M93.9,310.9l-0.9,0.6l14.8,6.8l-2.1-14.8l-11.4,7.2c0,0.1,0,0.1,0,0.2H93.9z"/>
		<g>
			<path class="st12" d="M93.9,310.9h0.3c0-0.1,0-0.1,0-0.2c-0.4-4.1-12-7.5-26.1-7.5c-14.4,0-26.2,3.5-26.2,7.7s11.8,7.7,26.2,7.7
				c11.9,0,22.4-2.4,25.4-5.8L68,310.9H93.9z"/>
			<path class="st12" d="M93.9,310.9l0.3,0l0,0c0-1.2-1-2.1-1.9-2.8c-1-0.7-2-1.2-3.1-1.6c-2.2-0.9-4.4-1.4-6.7-1.9
				c-4.6-0.9-9.3-1.2-13.9-1.2c-4.7,0-9.3,0.4-13.9,1.2c-2.3,0.4-4.6,1-6.7,1.8c-1.1,0.4-2.1,0.9-3.1,1.4c-1,0.6-1.9,1.3-2.3,2.2
				c-0.5,0.9,0,2,0.8,2.7c0.8,0.8,1.8,1.3,2.8,1.8c2.1,0.9,4.3,1.6,6.6,2.1c4.5,1,9.2,1.3,13.8,1.4c4.6,0.1,9.3-0.2,13.9-0.9
				c2.3-0.4,4.6-0.8,6.8-1.5c1.1-0.4,2.2-0.7,3.2-1.2c1-0.5,2-1.1,2.8-1.9l0.2,0.6L68,311l0-0.2L93.9,310.9z M93.9,310.9L68,311
				l0-0.2l25.4,1.7l0.7,0l-0.5,0.5c-0.8,1-1.9,1.6-2.9,2.1c-1.1,0.6-2.2,1-3.3,1.3c-2.3,0.7-4.6,1.2-6.9,1.6c-4.7,0.7-9.4,1-14.1,1
				c-4.7-0.1-9.4-0.5-14-1.5c-2.3-0.5-4.6-1.2-6.8-2.2c-1.1-0.5-2.1-1.1-3-2c-0.4-0.4-0.8-1-1-1.6c-0.2-0.6-0.1-1.4,0.2-2
				c0.6-1.2,1.6-1.9,2.7-2.5c1-0.6,2.1-1.1,3.3-1.4c2.2-0.8,4.5-1.3,6.9-1.7c4.6-0.8,9.3-1,14-1c4.7,0.1,9.4,0.5,14,1.4
				c2.3,0.5,4.6,1.1,6.7,1.9c1.1,0.4,2.1,1,3.1,1.7c0.9,0.7,1.8,1.6,1.9,2.8l0,0L93.9,310.9z"/>
		</g>
	</g>
	<g>
		<path class="st12" d="M227,340l-0.5,0.3l8.1,3.7l-1.2-8.1l-6.2,3.9c0,0,0,0.1,0,0.1H227z"/>
		<g>
			<path class="st12" d="M227,340h0.2c0,0,0-0.1,0-0.1c-0.2-2.3-6.6-4.1-14.3-4.1c-7.9,0-14.3,1.9-14.3,4.2c0,2.3,6.5,4.2,14.3,4.2
				c6.5,0,12.3-1.3,13.9-3.2l-13.9-1H227z"/>
			<path class="st12" d="M227,340l0.2,0l0,0c0-0.7-0.5-1.2-1-1.5c-0.5-0.4-1.1-0.6-1.7-0.9c-1.2-0.5-2.4-0.8-3.7-1
				c-2.5-0.5-5.1-0.7-7.6-0.6c-2.6,0-5.1,0.2-7.6,0.7c-1.2,0.2-2.5,0.5-3.7,1c-0.6,0.2-1.2,0.5-1.7,0.8c-0.5,0.3-1,0.7-1.2,1.2
				c-0.2,0.4,0,0.9,0.4,1.3c0.4,0.4,0.9,0.7,1.5,0.9c1.1,0.5,2.3,0.8,3.6,1.1c2.5,0.5,5,0.7,7.5,0.8c2.5,0.1,5.1-0.1,7.6-0.4
				c1.2-0.2,2.5-0.5,3.7-0.8c1.2-0.4,2.4-0.8,3.2-1.6l0.2,0.6l-13.9-1.3l0-0.2c2.4,0.1,4.7,0,7.1,0.1L227,340z M227,340l-7.1,0
				c-2.4,0-4.7,0-7.1,0.1l0-0.2l13.9,0.8l0.7,0l-0.5,0.5c-1,1.1-2.3,1.5-3.5,2c-1.2,0.4-2.5,0.7-3.8,0.9c-2.6,0.4-5.1,0.6-7.7,0.5
				c-2.6,0-5.2-0.3-7.7-0.9c-1.3-0.3-2.5-0.6-3.7-1.2c-0.6-0.3-1.2-0.6-1.7-1.1c-0.1-0.1-0.2-0.3-0.4-0.4c-0.1-0.2-0.2-0.3-0.3-0.5
				c-0.1-0.4-0.1-0.9,0.1-1.2c0.4-0.7,1-1.1,1.5-1.5c0.6-0.3,1.2-0.6,1.8-0.8c1.2-0.4,2.5-0.7,3.8-0.9c2.5-0.4,5.1-0.5,7.7-0.5
				c2.6,0.1,5.1,0.3,7.6,0.8c1.3,0.3,2.5,0.6,3.7,1.1c0.6,0.3,1.2,0.5,1.7,0.9c0.5,0.4,1,0.9,1,1.6l0,0L227,340z"/>
		</g>
	</g>
	<g>
		<path class="st12" d="M155.2,343.9l-0.5,0.3l8.1,3.7l-1.2-8.1l-6.2,3.9c0,0,0,0.1,0,0.1H155.2z"/>
		<g>
			<path class="st12" d="M155.2,343.9h0.2c0,0,0-0.1,0-0.1c-0.2-2.3-6.6-4.1-14.3-4.1c-7.9,0-14.3,1.9-14.3,4.2s6.5,4.2,14.3,4.2
				c6.5,0,12.3-1.3,13.9-3.2l-13.9-1H155.2z"/>
			<path class="st12" d="M155.2,343.9l0.2,0l0,0c0-0.7-0.5-1.2-1-1.5c-0.5-0.4-1.1-0.6-1.7-0.9c-1.2-0.5-2.4-0.8-3.7-1
				c-2.5-0.5-5.1-0.7-7.6-0.6c-2.6,0-5.1,0.2-7.6,0.7c-1.2,0.2-2.5,0.5-3.7,1c-0.6,0.2-1.2,0.5-1.7,0.8c-0.5,0.3-1,0.7-1.2,1.2
				c-0.2,0.4,0,0.9,0.4,1.3c0.4,0.4,0.9,0.7,1.5,0.9c1.1,0.5,2.3,0.8,3.6,1.1c2.5,0.5,5,0.7,7.5,0.8c2.5,0.1,5.1-0.1,7.6-0.4
				c1.2-0.2,2.5-0.5,3.7-0.8c1.2-0.4,2.4-0.8,3.2-1.6l0.2,0.6l-13.9-1.3l0-0.2c2.4,0.1,4.7,0,7.1,0.1L155.2,343.9z M155.2,343.9
				l-7.1,0c-2.4,0-4.7,0-7.1,0.1l0-0.2l13.9,0.8l0.7,0l-0.5,0.5c-1,1.1-2.3,1.5-3.5,2c-1.2,0.4-2.5,0.7-3.8,0.9
				c-2.6,0.4-5.1,0.6-7.7,0.5c-2.6,0-5.2-0.3-7.7-0.9c-1.3-0.3-2.5-0.6-3.7-1.2c-0.6-0.3-1.2-0.6-1.7-1.1c-0.1-0.1-0.2-0.3-0.4-0.4
				c-0.1-0.2-0.2-0.3-0.3-0.5c-0.1-0.4-0.1-0.9,0.1-1.2c0.4-0.7,1-1.1,1.5-1.5c0.6-0.3,1.2-0.6,1.8-0.8c1.2-0.4,2.5-0.7,3.8-0.9
				c2.5-0.4,5.1-0.5,7.7-0.5c2.6,0.1,5.1,0.3,7.6,0.8c1.3,0.3,2.5,0.6,3.7,1.1c0.6,0.3,1.2,0.5,1.7,0.9c0.5,0.4,1,0.9,1,1.6l0,0
				L155.2,343.9z"/>
		</g>
	</g>
	<g>
		<path class="st12" d="M159.4,366.1l-0.3,0.2l4.9,2.1l-0.7-4.6l-3.8,2.2c0,0,0,0,0,0.1H159.4z"/>
		<g>
			<path class="st12" d="M159.4,366.1h0.1c0,0,0,0,0-0.1c-0.1-1.3-4-2.3-8.8-2.3c-4.8,0-8.8,1.1-8.8,2.4s4,2.4,8.8,2.4
				c4,0,7.5-0.7,8.5-1.8l-8.5-0.6H159.4z"/>
			<path class="st12" d="M159.4,366.1l0.1,0l0,0c0-0.4-0.4-0.7-0.7-0.9c-0.3-0.2-0.7-0.4-1-0.5c-0.7-0.3-1.5-0.4-2.3-0.6
				c-1.5-0.2-3.1-0.3-4.6-0.3c-1.5,0-3.1,0.2-4.6,0.5c-0.8,0.1-1.5,0.3-2.2,0.6c-0.4,0.1-0.7,0.3-1,0.5c-0.3,0.2-0.6,0.4-0.7,0.6
				c-0.2,0.3,0.5,0.8,1.1,1c0.7,0.3,1.4,0.4,2.2,0.6c1.5,0.3,3,0.4,4.5,0.4c1.5,0,3.1,0,4.6-0.2c0.8-0.1,1.5-0.2,2.2-0.4
				c0.7-0.2,1.5-0.4,1.9-0.9l0.2,0.6l-8.5-0.8l0-0.2C153.6,366.1,156.5,366.1,159.4,366.1z M159.4,366.1c-2.9,0-5.8,0-8.7,0.1l0-0.2
				l8.5,0.4l0.8,0l-0.5,0.6c-0.7,0.7-1.4,0.9-2.2,1.2c-0.8,0.2-1.5,0.4-2.3,0.5c-1.6,0.3-3.1,0.3-4.7,0.3c-1.6,0-3.2-0.2-4.7-0.5
				c-0.8-0.2-1.6-0.4-2.3-0.7c-0.4-0.2-0.8-0.4-1.1-0.7c-0.2-0.2-0.3-0.4-0.5-0.6c-0.1-0.3-0.1-0.6,0.1-0.9c0.3-0.5,0.7-0.7,1-0.9
				c0.4-0.2,0.8-0.3,1.1-0.4c0.8-0.2,1.5-0.4,2.3-0.5c1.6-0.2,3.1-0.3,4.7-0.2c1.6,0.1,3.1,0.2,4.6,0.5c0.8,0.2,1.5,0.3,2.3,0.6
				c0.4,0.1,0.7,0.3,1,0.5c0.3,0.2,0.6,0.5,0.7,0.9l0,0L159.4,366.1z"/>
		</g>
	</g>
	<g>
		<path class="st12" d="M52.1,250.5l-0.5,0.3l8.1,3.7l-1.2-8.1l-6.2,3.9c0,0,0,0.1,0,0.1H52.1z"/>
		<g>
			<path class="st12" d="M52.1,250.5h0.2c0,0,0-0.1,0-0.1c-0.2-2.3-6.6-4.1-14.3-4.1c-7.9,0-14.3,1.9-14.3,4.2s6.5,4.2,14.3,4.2
				c6.5,0,12.3-1.3,13.9-3.2l-13.9-1H52.1z"/>
			<path class="st12" d="M52.1,250.5l0.2,0l0,0c0-0.7-0.5-1.2-1-1.5c-0.5-0.4-1.1-0.6-1.7-0.9c-1.2-0.5-2.4-0.8-3.7-1
				c-2.5-0.5-5.1-0.7-7.6-0.6c-2.6,0-5.1,0.2-7.6,0.7c-1.2,0.2-2.5,0.5-3.7,1c-0.6,0.2-1.2,0.5-1.7,0.8c-0.5,0.3-1,0.7-1.2,1.2
				c-0.2,0.4,0,0.9,0.4,1.3c0.4,0.4,0.9,0.7,1.5,0.9c1.1,0.5,2.3,0.8,3.6,1.1c2.5,0.5,5,0.7,7.5,0.8c2.5,0.1,5.1-0.1,7.6-0.4
				c1.2-0.2,2.5-0.5,3.7-0.8c1.2-0.4,2.4-0.8,3.2-1.6l0.2,0.6l-13.9-1.3l0-0.2c2.4,0.1,4.7,0,7.1,0.1L52.1,250.5z M52.1,250.5
				l-7.1,0c-2.4,0-4.7,0-7.1,0.1l0-0.2l13.9,0.8l0.7,0l-0.5,0.5c-1,1.1-2.3,1.5-3.5,2c-1.2,0.4-2.5,0.7-3.8,0.9
				c-2.6,0.4-5.1,0.6-7.7,0.5c-2.6,0-5.2-0.3-7.7-0.9c-1.3-0.3-2.5-0.6-3.7-1.2c-0.6-0.3-1.2-0.6-1.7-1.1c-0.1-0.1-0.2-0.3-0.4-0.4
				c-0.1-0.2-0.2-0.3-0.3-0.5c-0.1-0.4-0.1-0.9,0.1-1.2c0.4-0.7,1-1.1,1.5-1.5c0.6-0.3,1.2-0.6,1.8-0.8c1.2-0.4,2.5-0.7,3.8-0.9
				c2.5-0.4,5.1-0.5,7.7-0.5c2.6,0.1,5.1,0.3,7.6,0.8c1.3,0.3,2.5,0.6,3.7,1.1c0.6,0.3,1.2,0.5,1.7,0.9c0.5,0.4,1,0.9,1,1.6l0,0
				L52.1,250.5z"/>
		</g>
	</g>
	<g>
		<path class="st12" d="M22.4,260.5l-0.4,0.2l6.3,2.3l-0.9-5.1l-4.9,2.5c0,0,0,0,0,0.1H22.4z"/>
		<g>
			<path class="st12" d="M22.4,260.5h0.1c0,0,0,0,0-0.1c-0.2-1.4-5.2-2.5-11.2-2.5c-6.2,0-11.2,1.2-11.2,2.6c0,1.4,5.1,2.6,11.2,2.6
				c5.1,0,9.6-0.8,10.9-2l-10.9-0.6H22.4z"/>
			<path class="st12" d="M22.4,260.5l0.1,0l0,0c-0.1-0.5-0.5-0.8-1-1c-0.4-0.2-0.9-0.4-1.4-0.5c-0.9-0.3-1.9-0.5-2.9-0.6
				c-1.9-0.3-3.9-0.4-5.8-0.3c-2,0-3.9,0.2-5.8,0.5c-1,0.2-1.9,0.3-2.8,0.6c-0.5,0.1-0.9,0.3-1.3,0.5c-0.4,0.2-0.8,0.5-1,0.7
				c-0.1,0.1,0,0.1-0.1,0.2c0,0,0,0.1,0.1,0.1c0.1,0.1,0.2,0.3,0.4,0.4c0.3,0.2,0.8,0.4,1.2,0.6c0.9,0.3,1.8,0.5,2.8,0.6
				c1.9,0.3,3.8,0.4,5.8,0.4c1.9,0,3.9,0,5.8-0.3c1-0.1,1.9-0.3,2.8-0.5c0.9-0.2,1.9-0.5,2.5-1l0.2,0.6l-10.9-0.9l0-0.2
				C15.1,260.5,18.8,260.5,22.4,260.5z M22.4,260.5c-3.7,0-7.4,0-11.1,0.1l0-0.2l10.9,0.4l0.9,0l-0.6,0.6c-0.4,0.4-0.9,0.6-1.4,0.8
				c-0.5,0.2-1,0.3-1.4,0.5c-1,0.3-2,0.4-2.9,0.6c-2,0.3-3.9,0.4-5.9,0.4c-2,0-4-0.2-5.9-0.5c-1-0.2-2-0.4-2.9-0.7
				c-0.5-0.2-1-0.4-1.4-0.7c-0.2-0.2-0.5-0.3-0.6-0.7c-0.1-0.1-0.1-0.4-0.1-0.5c0-0.2,0.1-0.4,0.2-0.5c0.4-0.6,0.9-0.8,1.4-1
				c0.5-0.2,1-0.3,1.4-0.5c1-0.2,1.9-0.4,2.9-0.5c2-0.2,3.9-0.3,5.9-0.2c2,0.1,3.9,0.2,5.9,0.5c1,0.2,1.9,0.4,2.9,0.6
				c0.5,0.1,0.9,0.3,1.4,0.5c0.4,0.2,0.9,0.5,0.9,1.1l0,0L22.4,260.5z"/>
		</g>
	</g>
	<g>
		<path class="st12" d="M273.1,290.3l-0.5,0.3l8.1,3.7l-1.2-8.1l-6.2,3.9c0,0,0,0.1,0,0.1H273.1z"/>
		<g>
			<path class="st12" d="M273.1,290.3h0.2c0,0,0-0.1,0-0.1c-0.2-2.3-6.6-4.1-14.3-4.1c-7.9,0-14.3,1.9-14.3,4.2s6.5,4.2,14.3,4.2
				c6.5,0,12.3-1.3,13.9-3.2l-13.9-1H273.1z"/>
			<path class="st12" d="M273.1,290.3l0.2,0l0,0c0-0.7-0.5-1.2-1-1.5c-0.5-0.4-1.1-0.6-1.7-0.9c-1.2-0.5-2.4-0.8-3.7-1
				c-2.5-0.5-5.1-0.7-7.6-0.6c-2.6,0-5.1,0.2-7.6,0.7c-1.2,0.2-2.5,0.5-3.7,1c-0.6,0.2-1.2,0.5-1.7,0.8c-0.5,0.3-1,0.7-1.2,1.2
				c-0.2,0.4,0,0.9,0.4,1.3c0.4,0.4,0.9,0.7,1.5,0.9c1.1,0.5,2.3,0.8,3.6,1.1c2.5,0.5,5,0.7,7.5,0.8c2.5,0.1,5.1-0.1,7.6-0.4
				c1.2-0.2,2.5-0.5,3.7-0.8c1.2-0.4,2.4-0.8,3.2-1.6l0.2,0.6l-13.9-1.3l0-0.2c2.4,0.1,4.7,0,7.1,0.1L273.1,290.3z M273.1,290.3
				l-7.1,0c-2.4,0-4.7,0-7.1,0.1l0-0.2l13.9,0.8l0.7,0l-0.5,0.5c-1,1.1-2.3,1.5-3.5,2c-1.2,0.4-2.5,0.7-3.8,0.9
				c-2.6,0.4-5.1,0.6-7.7,0.5c-2.6,0-5.2-0.3-7.7-0.9c-1.3-0.3-2.5-0.6-3.7-1.2c-0.6-0.3-1.2-0.6-1.7-1.1c-0.1-0.1-0.2-0.3-0.4-0.4
				c-0.1-0.2-0.2-0.3-0.3-0.5c-0.1-0.4-0.1-0.9,0.1-1.2c0.4-0.7,1-1.1,1.5-1.5c0.6-0.3,1.2-0.6,1.8-0.8c1.2-0.4,2.5-0.7,3.8-0.9
				c2.5-0.4,5.1-0.5,7.7-0.5c2.6,0.1,5.1,0.3,7.6,0.8c1.3,0.3,2.5,0.6,3.7,1.1c0.6,0.3,1.2,0.5,1.7,0.9c0.5,0.4,1,0.9,1,1.6l0,0
				L273.1,290.3z"/>
		</g>
	</g>
	<g>
		<path class="st12" d="M115.6,268.2l0.6,0.4l-9.4,4.3l1.4-9.4l7.3,4.6c0,0,0,0.1,0,0.1H115.6z"/>
		<g>
			<path class="st12" d="M115.6,268.2h-0.2c0,0,0-0.1,0-0.1c0.2-2.6,7.7-4.7,16.7-4.7c9.2,0,16.7,2.2,16.7,4.9
				c0,2.7-7.5,4.9-16.7,4.9c-7.6,0-14.3-1.5-16.2-3.7l16.2-1.2H115.6z"/>
			<path class="st12" d="M115.6,268.2l-0.2,0l0,0c0-0.8,0.6-1.4,1.2-1.8c0.6-0.4,1.3-0.8,2-1.1c1.4-0.6,2.8-0.9,4.3-1.2
				c2.9-0.6,5.9-0.8,8.9-0.9c3-0.1,6,0.1,9,0.6c1.5,0.2,3,0.6,4.4,1c0.7,0.3,1.4,0.5,2.1,0.9c0.7,0.4,1.4,0.9,1.8,1.7
				c0.2,0.4,0.2,0.9,0.1,1.4c-0.1,0.2-0.2,0.4-0.3,0.6c-0.1,0.2-0.3,0.3-0.4,0.5c-0.6,0.6-1.3,1-2,1.3c-1.4,0.7-2.9,1.1-4.3,1.4
				c-3,0.6-6,1-9,1c-3,0-6-0.2-9-0.6c-1.5-0.2-3-0.6-4.4-1c-0.7-0.3-1.4-0.5-2.1-0.9c-0.7-0.4-1.4-0.8-1.9-1.4l-0.5-0.5l0.7,0
				l16.2-1l0,0.2C126.6,268.3,121.1,268.3,115.6,268.2z M115.6,268.2c5.5,0,11,0,16.5-0.1l0,0.2l-16.2,1.4l0.2-0.6
				c1,1,2.4,1.5,3.8,1.9c1.4,0.4,2.9,0.7,4.3,0.9c2.9,0.4,5.9,0.6,8.8,0.5c3-0.1,5.9-0.3,8.8-0.9c1.4-0.3,2.9-0.7,4.2-1.3
				c0.7-0.3,1.3-0.7,1.8-1.1c0.5-0.4,0.7-1,0.5-1.5c-0.2-0.5-0.8-1-1.4-1.4c-0.6-0.4-1.3-0.7-2-0.9c-1.4-0.5-2.8-0.9-4.3-1.1
				c-2.9-0.6-5.9-0.8-8.9-0.8c-3,0-6,0.2-8.9,0.7c-1.5,0.3-2.9,0.6-4.3,1.2c-0.7,0.3-1.4,0.6-2,1c-0.6,0.4-1.2,1-1.2,1.8l0,0
				L115.6,268.2z"/>
		</g>
	</g>
	<g>
		<path class="st12" d="M145.6,138.8l1.1,0.7l-17.2,7.9l2.5-17.1l13.3,8.3c0,0.1,0,0.2,0,0.2H145.6z"/>
		<g>
			<path class="st12" d="M145.6,138.8h-0.4c0-0.1,0-0.2,0-0.2c0.4-4.8,14-8.6,30.5-8.6c16.7,0,30.5,4,30.5,8.9
				c0,4.9-13.8,8.9-30.5,8.9c-13.9,0-26.2-2.8-29.6-6.7l29.6-2.2H145.6z"/>
			<path class="st12" d="M145.6,138.8l-0.4,0l0,0c0-1.4,1.1-2.5,2.2-3.3c1.1-0.8,2.3-1.4,3.6-1.9c2.5-1,5.2-1.7,7.9-2.2
				c5.4-1,10.8-1.5,16.3-1.6c5.5-0.1,10.9,0.3,16.3,1.1c2.7,0.5,5.4,1.1,8,1.9c1.3,0.5,2.6,1,3.8,1.7c1.2,0.7,2.4,1.5,3.1,2.9
				c0.3,0.7,0.4,1.5,0.2,2.3c-0.2,0.7-0.7,1.4-1.2,1.9c-1,1-2.3,1.7-3.5,2.3c-2.5,1.2-5.2,1.9-7.9,2.5c-5.4,1.1-10.8,1.7-16.3,1.8
				c-5.5,0.1-11-0.3-16.4-1.1c-2.7-0.4-5.4-1-8-1.8c-1.3-0.4-2.6-0.9-3.8-1.5c-1.2-0.6-2.5-1.3-3.4-2.4l-0.5-0.5l0.7,0l29.6-2l0,0.2
				L145.6,138.8z M145.6,138.8l30.1-0.1l0,0.2l-29.6,2.4l0.2-0.6c0.9,1,2.1,1.6,3.2,2.2c1.2,0.6,2.5,1,3.8,1.4
				c2.6,0.8,5.2,1.3,7.9,1.8c5.4,0.8,10.8,1.1,16.2,1c5.4-0.1,10.8-0.6,16.1-1.7c2.6-0.6,5.3-1.3,7.7-2.4c1.2-0.6,2.4-1.2,3.3-2.1
				c0.5-0.4,0.9-0.9,1-1.5c0.2-0.6,0.1-1.2-0.1-1.7c-0.5-1.1-1.6-1.9-2.8-2.6c-1.1-0.7-2.4-1.2-3.7-1.7c-2.5-0.9-5.2-1.5-7.9-2
				c-5.3-1-10.8-1.4-16.2-1.4c-5.4,0-10.9,0.4-16.3,1.4c-2.7,0.5-5.3,1.2-7.9,2.2c-1.3,0.5-2.5,1.1-3.6,1.9
				c-1.1,0.8-2.2,1.9-2.2,3.3l0,0L145.6,138.8z"/>
		</g>
	</g>
	<g>
		<path class="st12" d="M214.5,217.3l1.1,0.7l-17.2,7.9l2.5-17.1l13.3,8.3c0,0.1,0,0.2,0,0.2H214.5z"/>
		<g>
			<path class="st12" d="M214.5,217.3h-0.4c0-0.1,0-0.2,0-0.2c0.4-4.8,14-8.6,30.5-8.6c16.7,0,30.5,4,30.5,8.9
				c0,4.9-13.8,8.9-30.5,8.9c-13.9,0-26.2-2.8-29.6-6.7l29.6-2.2H214.5z"/>
			<path class="st12" d="M214.5,217.3l-0.4,0l0,0c0-1.4,1.1-2.5,2.2-3.3c1.1-0.8,2.3-1.4,3.6-1.9c2.5-1,5.2-1.7,7.9-2.2
				c5.4-1,10.8-1.5,16.3-1.6c5.5-0.1,10.9,0.3,16.3,1.1c2.7,0.5,5.4,1.1,8,1.9c1.3,0.5,2.6,1,3.8,1.7c1.2,0.7,2.4,1.5,3.1,2.9
				c0.3,0.7,0.4,1.5,0.2,2.3c-0.2,0.7-0.7,1.4-1.2,1.9c-1,1-2.3,1.7-3.5,2.3c-2.5,1.2-5.2,1.9-7.9,2.5c-5.4,1.1-10.8,1.7-16.3,1.8
				c-5.5,0.1-11-0.3-16.4-1.1c-2.7-0.4-5.4-1-8-1.8c-1.3-0.4-2.6-0.9-3.8-1.5c-1.2-0.6-2.5-1.3-3.4-2.4l-0.5-0.5l0.7,0l29.6-2l0,0.2
				L214.5,217.3z M214.5,217.3l30.1-0.1l0,0.2l-29.6,2.4l0.2-0.6c0.9,1,2.1,1.6,3.2,2.2c1.2,0.6,2.5,1,3.8,1.4
				c2.6,0.8,5.2,1.3,7.9,1.8c5.4,0.8,10.8,1.1,16.2,1c5.4-0.1,10.8-0.6,16.1-1.7c2.6-0.6,5.3-1.3,7.7-2.4c1.2-0.6,2.4-1.2,3.3-2.1
				c0.5-0.4,0.9-0.9,1-1.5c0.2-0.6,0.1-1.2-0.1-1.7c-0.5-1.1-1.6-1.9-2.8-2.6c-1.1-0.7-2.4-1.2-3.7-1.7c-2.5-0.9-5.2-1.5-7.9-2
				c-5.3-1-10.8-1.4-16.2-1.4c-5.4,0-10.9,0.4-16.3,1.4c-2.7,0.5-5.3,1.2-7.9,2.2c-1.3,0.5-2.5,1.1-3.6,1.9
				c-1.1,0.8-2.2,1.9-2.2,3.3l0,0L214.5,217.3z"/>
		</g>
	</g>
	<g>
		<path class="st12" d="M78.9,251l0.6,0.4l-9.4,4.3l1.4-9.4l7.3,4.6c0,0,0,0.1,0,0.1H78.9z"/>
		<g>
			<path class="st12" d="M78.9,251h-0.2c0,0,0-0.1,0-0.1c0.2-2.6,7.7-4.7,16.7-4.7c9.2,0,16.7,2.2,16.7,4.9c0,2.7-7.5,4.9-16.7,4.9
				c-7.6,0-14.3-1.5-16.2-3.7l16.2-1.2H78.9z"/>
			<path class="st12" d="M78.9,251l-0.2,0l0,0c0-0.8,0.6-1.4,1.2-1.8c0.6-0.4,1.3-0.8,2-1.1c1.4-0.6,2.8-0.9,4.3-1.2
				c2.9-0.6,5.9-0.8,8.9-0.9c3-0.1,6,0.1,9,0.6c1.5,0.2,3,0.6,4.4,1c0.7,0.3,1.4,0.5,2.1,0.9c0.7,0.4,1.4,0.9,1.8,1.7
				c0.2,0.4,0.2,0.9,0.1,1.4c-0.1,0.2-0.2,0.4-0.3,0.6c-0.1,0.2-0.3,0.3-0.4,0.5c-0.6,0.6-1.3,1-2,1.3c-1.4,0.7-2.9,1.1-4.3,1.4
				c-3,0.6-6,1-9,1c-3,0-6-0.2-9-0.6c-1.5-0.2-3-0.6-4.4-1c-0.7-0.3-1.4-0.5-2.1-0.9c-0.7-0.4-1.4-0.8-1.9-1.4l-0.5-0.5l0.7,0
				l16.2-1l0,0.2C89.9,251,84.4,251,78.9,251z M78.9,251c5.5,0,11,0,16.5-0.1l0,0.2l-16.2,1.4l0.2-0.6c1,1,2.4,1.5,3.8,1.9
				c1.4,0.4,2.9,0.7,4.3,0.9c2.9,0.4,5.9,0.6,8.8,0.5c3-0.1,5.9-0.3,8.8-0.9c1.4-0.3,2.9-0.7,4.2-1.3c0.7-0.3,1.3-0.7,1.8-1.1
				c0.5-0.4,0.7-1,0.5-1.5c-0.2-0.5-0.8-1-1.4-1.4c-0.6-0.4-1.3-0.7-2-0.9c-1.4-0.5-2.8-0.9-4.3-1.1c-2.9-0.6-5.9-0.8-8.9-0.8
				c-3,0-6,0.2-8.9,0.7c-1.5,0.3-2.9,0.6-4.3,1.2c-0.7,0.3-1.4,0.6-2,1c-0.6,0.4-1.2,1-1.2,1.8l0,0L78.9,251z"/>
		</g>
	</g>
	<g>
		<path class="st12" d="M162.6,255.4l0.6,0.4l-9.4,4.3l1.4-9.4l7.3,4.6c0,0,0,0.1,0,0.1H162.6z"/>
		<g>
			<path class="st12" d="M162.6,255.4h-0.2c0,0,0-0.1,0-0.1c0.2-2.6,7.7-4.7,16.7-4.7c9.2,0,16.7,2.2,16.7,4.9
				c0,2.7-7.5,4.9-16.7,4.9c-7.6,0-14.3-1.5-16.2-3.7l16.2-1.2H162.6z"/>
			<path class="st12" d="M162.6,255.4l-0.2,0l0,0c0-0.8,0.6-1.4,1.2-1.8c0.6-0.4,1.3-0.8,2-1.1c1.4-0.6,2.8-0.9,4.3-1.2
				c2.9-0.6,5.9-0.8,8.9-0.9c3-0.1,6,0.1,9,0.6c1.5,0.2,3,0.6,4.4,1c0.7,0.3,1.4,0.5,2.1,0.9c0.7,0.4,1.4,0.9,1.8,1.7
				c0.2,0.4,0.2,0.9,0.1,1.4c-0.1,0.2-0.2,0.4-0.3,0.6c-0.1,0.2-0.3,0.3-0.4,0.5c-0.6,0.6-1.3,1-2,1.3c-1.4,0.7-2.9,1.1-4.3,1.4
				c-3,0.6-6,1-9,1c-3,0-6-0.2-9-0.6c-1.5-0.2-3-0.6-4.4-1c-0.7-0.3-1.4-0.5-2.1-0.9c-0.7-0.4-1.4-0.8-1.9-1.4l-0.5-0.5l0.7,0
				l16.2-1l0,0.2C173.6,255.5,168.1,255.5,162.6,255.4z M162.6,255.4c5.5,0,11,0,16.5-0.1l0,0.2l-16.2,1.4l0.2-0.6
				c1,1,2.4,1.5,3.8,1.9c1.4,0.4,2.9,0.7,4.3,0.9c2.9,0.4,5.9,0.6,8.8,0.5c3-0.1,5.9-0.3,8.8-0.9c1.4-0.3,2.9-0.7,4.2-1.3
				c0.7-0.3,1.3-0.7,1.8-1.1c0.5-0.4,0.7-1,0.5-1.5c-0.2-0.5-0.8-1-1.4-1.4c-0.6-0.4-1.3-0.7-2-0.9c-1.4-0.5-2.8-0.9-4.3-1.1
				c-2.9-0.6-5.9-0.8-8.9-0.8c-3,0-6,0.2-8.9,0.7c-1.5,0.3-2.9,0.6-4.3,1.2c-0.7,0.3-1.4,0.6-2,1c-0.6,0.4-1.2,1-1.2,1.8l0,0
				L162.6,255.4z"/>
		</g>
	</g>
	<g>
		<path class="st12" d="M158.9,279.6l0.4,0.2l-6.9,2l1-4.3l5.4,2.1c0,0,0,0,0,0.1H158.9z"/>
		<g>
			<path class="st12" d="M158.9,279.6h-0.2c0,0,0,0,0-0.1c0.2-1.2,5.7-2.2,12.3-2.2c6.8,0,12.3,1,12.3,2.2c0,1.2-5.6,2.2-12.3,2.2
				c-5.6,0-10.5-0.7-11.9-1.7l11.9-0.6H158.9z"/>
			<path class="st12" d="M158.9,279.6l-0.2,0l0,0c0-0.3,0.2-0.5,0.5-0.6c0.2-0.2,0.5-0.2,0.7-0.4c0.5-0.2,1-0.3,1.5-0.5
				c1-0.2,2.1-0.4,3.1-0.5c2.1-0.3,4.2-0.4,6.3-0.4c2.1,0,4.2,0,6.3,0.2c1.1,0.1,2.1,0.2,3.2,0.4c0.5,0.1,1.1,0.2,1.6,0.4
				c0.5,0.2,1.1,0.3,1.6,0.8c0.1,0.1,0.2,0.4,0.2,0.6c0,0.3-0.2,0.4-0.3,0.6c-0.3,0.3-0.5,0.4-0.8,0.5c-0.5,0.3-1,0.4-1.6,0.5
				c-1.1,0.3-2.1,0.4-3.2,0.6c-2.1,0.3-4.2,0.4-6.4,0.4c-2.1,0-4.3-0.1-6.4-0.3c-1.1-0.1-2.1-0.3-3.2-0.5c-0.5-0.1-1-0.2-1.6-0.4
				c-0.5-0.2-1-0.3-1.5-0.7l-0.9-0.6l1.1,0l11.9-0.3l0,0.2c-2-0.1-4.1-0.1-6.1-0.1L158.9,279.6z M158.9,279.6l6.1,0
				c2,0,4.1,0,6.1-0.1l0,0.2l-11.9,0.8l0.2-0.6c0.8,0.5,1.9,0.7,2.9,0.9c1,0.2,2.1,0.3,3.1,0.4c2.1,0.2,4.2,0.2,6.3,0.2
				c2.1,0,4.2-0.1,6.3-0.3c1-0.1,2.1-0.3,3.1-0.5c0.5-0.1,1-0.3,1.4-0.5c0.2-0.1,0.4-0.2,0.6-0.3c0.1-0.1,0.1-0.1,0.1-0.1s0,0,0-0.1
				c-0.2-0.3-0.7-0.5-1.2-0.7c-0.5-0.2-1-0.3-1.5-0.4c-1-0.2-2.1-0.4-3.1-0.5c-2.1-0.3-4.2-0.4-6.3-0.4c-2.1,0-4.2,0-6.3,0.3
				c-1,0.1-2.1,0.3-3.1,0.5c-0.5,0.1-1,0.2-1.5,0.4c-0.2,0.1-0.5,0.2-0.7,0.3c-0.2,0.1-0.4,0.3-0.5,0.6l0,0L158.9,279.6z"/>
		</g>
	</g>
	<g>
		<path class="st12" d="M236,159.1l0.6,0.4l-9.4,4.3l1.4-9.4l7.3,4.6c0,0,0,0.1,0,0.1H236z"/>
		<g>
			<path class="st12" d="M236,159.1h-0.2c0,0,0-0.1,0-0.1c0.2-2.6,7.7-4.7,16.7-4.7c9.2,0,16.7,2.2,16.7,4.9c0,2.7-7.5,4.9-16.7,4.9
				c-7.6,0-14.3-1.5-16.2-3.7l16.2-1.2H236z"/>
			<path class="st12" d="M236,159.1l-0.2,0l0,0c0-0.8,0.6-1.4,1.2-1.8c0.6-0.4,1.3-0.8,2-1.1c1.4-0.6,2.8-0.9,4.3-1.2
				c2.9-0.6,5.9-0.8,8.9-0.9c3-0.1,6,0.1,9,0.6c1.5,0.2,3,0.6,4.4,1c0.7,0.3,1.4,0.5,2.1,0.9c0.7,0.4,1.4,0.9,1.8,1.7
				c0.2,0.4,0.2,0.9,0.1,1.4c-0.1,0.2-0.2,0.4-0.3,0.6c-0.1,0.2-0.3,0.3-0.4,0.5c-0.6,0.6-1.3,1-2,1.3c-1.4,0.7-2.9,1.1-4.3,1.4
				c-3,0.6-6,1-9,1c-3,0-6-0.2-9-0.6c-1.5-0.2-3-0.6-4.4-1c-0.7-0.3-1.4-0.5-2.1-0.9c-0.7-0.4-1.4-0.8-1.9-1.4l-0.5-0.5l0.7,0
				l16.2-1l0,0.2C247,159.1,241.5,159.1,236,159.1z M236,159.1c5.5,0,11,0,16.5-0.1l0,0.2l-16.2,1.4l0.2-0.6c1,1,2.4,1.5,3.8,1.9
				c1.4,0.4,2.9,0.7,4.3,0.9c2.9,0.4,5.9,0.6,8.8,0.5c3-0.1,5.9-0.3,8.8-0.9c1.4-0.3,2.9-0.7,4.2-1.3c0.7-0.3,1.3-0.7,1.8-1.1
				c0.5-0.4,0.7-1,0.5-1.5c-0.2-0.5-0.8-1-1.4-1.4c-0.6-0.4-1.3-0.7-2-0.9c-1.4-0.5-2.8-0.9-4.3-1.1c-2.9-0.6-5.9-0.8-8.9-0.8
				c-3,0-6,0.2-8.9,0.7c-1.5,0.3-2.9,0.6-4.3,1.2c-0.7,0.3-1.4,0.6-2,1c-0.6,0.4-1.2,1-1.2,1.8l0,0L236,159.1z"/>
		</g>
	</g>
	<g>
		<path class="st12" d="M182.9,179.9l0.5,0.2l-7.4,2.7l1.1-5.8l5.7,2.8c0,0,0,0.1,0,0.1H182.9z"/>
		<g>
			<path class="st12" d="M182.9,179.9h-0.2c0,0,0-0.1,0-0.1c0.2-1.6,6-2.9,13.1-2.9c7.2,0,13.1,1.4,13.1,3c0,1.7-5.9,3-13.1,3
				c-6,0-11.2-0.9-12.7-2.3l12.7-0.7H182.9z"/>
			<path class="st12" d="M182.9,179.9l-0.2,0l0,0c0.1-0.6,0.6-0.9,1.1-1.2c0.5-0.3,1-0.5,1.6-0.6c1.1-0.3,2.2-0.6,3.3-0.7
				c2.3-0.3,4.5-0.5,6.8-0.6c2.3,0,4.6,0,6.9,0.3c1.1,0.1,2.3,0.3,3.4,0.6c0.6,0.1,1.1,0.3,1.7,0.5c0.5,0.2,1.1,0.5,1.6,1.1
				c0.1,0.1,0.1,0.4,0.2,0.6c0,0.2-0.1,0.5-0.2,0.6c-0.1,0.2-0.2,0.3-0.3,0.4c-0.1,0.1-0.3,0.2-0.4,0.3c-0.5,0.4-1.1,0.6-1.6,0.8
				c-1.1,0.4-2.3,0.6-3.4,0.8c-2.3,0.4-4.6,0.6-6.9,0.6c-2.3,0-4.6-0.1-6.9-0.4c-1.1-0.2-2.3-0.3-3.4-0.6c-0.6-0.2-1.1-0.3-1.7-0.5
				c-0.5-0.2-1.1-0.5-1.6-0.9l-0.6-0.6l0.9,0l12.7-0.5l0,0.2C191.5,179.9,187.2,179.9,182.9,179.9z M182.9,179.9
				c4.3,0,8.6,0,12.9-0.1l0,0.2l-12.7,1l0.2-0.6c0.8,0.6,1.9,0.9,3,1.2c1.1,0.2,2.2,0.4,3.3,0.6c2.2,0.3,4.5,0.3,6.8,0.3
				c2.3,0,4.5-0.2,6.8-0.5c1.1-0.2,2.2-0.4,3.3-0.7c0.5-0.2,1-0.4,1.5-0.7c0.2-0.1,0.4-0.3,0.5-0.4c0.1-0.1,0-0.1,0.1-0.2
				c0-0.1,0-0.1-0.1-0.2c-0.2-0.3-0.7-0.6-1.2-0.9c-0.5-0.2-1-0.4-1.6-0.6c-1.1-0.3-2.2-0.5-3.3-0.7c-2.2-0.3-4.5-0.5-6.8-0.5
				c-2.3,0-4.6,0.1-6.8,0.4c-1.1,0.2-2.3,0.4-3.3,0.7c-0.5,0.2-1.1,0.4-1.6,0.6c-0.5,0.3-1.1,0.6-1.1,1.2l0,0L182.9,179.9z"/>
		</g>
	</g>
	<g>
		<path class="st12" d="M119.4,110.7l0.6,0.4l-9.4,4.3l1.4-9.4l7.3,4.6c0,0,0,0.1,0,0.1H119.4z"/>
		<g>
			<path class="st12" d="M119.4,110.7h-0.2c0,0,0-0.1,0-0.1c0.2-2.6,7.7-4.7,16.7-4.7c9.2,0,16.7,2.2,16.7,4.9
				c0,2.7-7.5,4.9-16.7,4.9c-7.6,0-14.3-1.5-16.2-3.7l16.2-1.2H119.4z"/>
			<path class="st12" d="M119.4,110.7l-0.2,0l0,0c0-0.8,0.6-1.4,1.2-1.8c0.6-0.4,1.3-0.8,2-1.1c1.4-0.6,2.8-0.9,4.3-1.2
				c2.9-0.6,5.9-0.8,8.9-0.9c3-0.1,6,0.1,9,0.6c1.5,0.2,3,0.6,4.4,1c0.7,0.3,1.4,0.5,2.1,0.9c0.7,0.4,1.4,0.9,1.8,1.7
				c0.2,0.4,0.2,0.9,0.1,1.4c-0.1,0.2-0.2,0.4-0.3,0.6c-0.1,0.2-0.3,0.3-0.4,0.5c-0.6,0.6-1.3,1-2,1.3c-1.4,0.7-2.9,1.1-4.3,1.4
				c-3,0.6-6,1-9,1c-3,0-6-0.2-9-0.6c-1.5-0.2-3-0.6-4.4-1c-0.7-0.3-1.4-0.5-2.1-0.9c-0.7-0.4-1.4-0.8-1.9-1.4l-0.5-0.5l0.7,0
				l16.2-1l0,0.2C130.4,110.8,124.9,110.8,119.4,110.7z M119.4,110.7c5.5,0,11,0,16.5-0.1l0,0.2l-16.2,1.4l0.2-0.6
				c1,1,2.4,1.5,3.8,1.9c1.4,0.4,2.9,0.7,4.3,0.9c2.9,0.4,5.9,0.6,8.8,0.5c3-0.1,5.9-0.3,8.8-0.9c1.4-0.3,2.9-0.7,4.2-1.3
				c0.7-0.3,1.3-0.7,1.8-1.1c0.5-0.4,0.7-1,0.5-1.5c-0.2-0.5-0.8-1-1.4-1.4c-0.6-0.4-1.3-0.7-2-0.9c-1.4-0.5-2.8-0.9-4.3-1.1
				c-2.9-0.6-5.9-0.8-8.9-0.8c-3,0-6,0.2-8.9,0.7c-1.5,0.3-2.9,0.6-4.3,1.2c-0.7,0.3-1.4,0.6-2,1c-0.6,0.4-1.2,1-1.2,1.8l0,0
				L119.4,110.7z"/>
		</g>
	</g>
	<g>
		<path class="st12" d="M219,253l0.4,0.2l-5.8,2.5l0.8-5.3l4.5,2.6c0,0,0,0,0,0.1H219z"/>
		<g>
			<path class="st12" d="M219,253h-0.1c0,0,0,0,0-0.1c0.1-1.5,4.7-2.7,10.2-2.7c5.6,0,10.2,1.2,10.2,2.8s-4.6,2.8-10.2,2.8
				c-4.7,0-8.8-0.9-9.9-2.1l9.9-0.7H219z"/>
			<path class="st12" d="M219,253l-0.1,0l0,0c0-0.5,0.4-0.8,0.8-1.1c0.4-0.2,0.8-0.4,1.2-0.6c0.9-0.3,1.7-0.5,2.6-0.7
				c1.8-0.3,3.6-0.5,5.4-0.6c1.8,0,3.6,0,5.5,0.3c0.9,0.1,1.8,0.3,2.7,0.6c0.4,0.1,0.9,0.3,1.3,0.5c0.4,0.2,0.9,0.5,1.2,1
				c0.2,0.3,0.2,0.7,0.1,1c-0.1,0.3-0.3,0.5-0.5,0.7c-0.4,0.3-0.8,0.6-1.3,0.8c-0.9,0.4-1.8,0.6-2.7,0.8c-1.8,0.4-3.7,0.5-5.5,0.5
				c-1.8,0-3.7-0.1-5.5-0.4c-0.9-0.1-1.8-0.3-2.7-0.6c-0.9-0.3-1.8-0.6-2.6-1.4l-0.6-0.6l0.8,0l9.9-0.5l0,0.2
				C225.7,253,222.4,253,219,253z M219,253c3.4,0,6.7,0,10.1-0.1l0,0.2l-9.9,0.9l0.2-0.6c0.6,0.5,1.4,0.8,2.3,1
				c0.9,0.2,1.7,0.4,2.6,0.5c1.8,0.2,3.6,0.3,5.3,0.3c1.8,0,3.6-0.2,5.3-0.5c0.9-0.2,1.7-0.4,2.5-0.7c0.7-0.3,1.7-0.9,1.4-1.3
				c-0.1-0.3-0.5-0.5-0.8-0.7c-0.4-0.2-0.8-0.4-1.2-0.5c-0.8-0.3-1.7-0.5-2.6-0.7c-1.8-0.3-3.6-0.5-5.4-0.5c-1.8,0-3.6,0.1-5.4,0.4
				c-0.9,0.1-1.8,0.4-2.6,0.7c-0.4,0.2-0.8,0.3-1.2,0.6c-0.4,0.2-0.8,0.6-0.8,1l0,0L219,253z"/>
		</g>
	</g>
	<g>
		<path class="st12" d="M70.6,154.2l-0.9,0.6l14.8,6.8l-2.1-14.8L70.9,154c0,0.1,0,0.1,0,0.2H70.6z"/>
		<g>
			<path class="st12" d="M70.6,154.2H71c0-0.1,0-0.1,0-0.2c-0.4-4.1-12-7.5-26.1-7.5c-14.4,0-26.2,3.5-26.2,7.7s11.8,7.7,26.2,7.7
				c11.9,0,22.4-2.4,25.4-5.8l-25.4-1.9H70.6z"/>
			<path class="st12" d="M70.6,154.2l0.3,0l0,0c0-1.2-1-2.1-1.9-2.8c-1-0.7-2-1.2-3.1-1.6c-2.2-0.9-4.4-1.4-6.7-1.9
				c-4.6-0.9-9.3-1.2-13.9-1.2c-4.7,0-9.3,0.4-13.9,1.2c-2.3,0.4-4.6,1-6.7,1.8c-1.1,0.4-2.1,0.9-3.1,1.4c-1,0.6-1.9,1.3-2.3,2.2
				c-0.5,0.9,0,2,0.8,2.7c0.8,0.8,1.8,1.3,2.8,1.8c2.1,0.9,4.3,1.6,6.6,2.1c4.5,1,9.2,1.3,13.8,1.4c4.6,0.1,9.3-0.2,13.9-0.9
				c2.3-0.4,4.6-0.8,6.8-1.5c1.1-0.4,2.2-0.7,3.2-1.2c1-0.5,2-1.1,2.8-1.9l0.2,0.6l-25.3-2.1l0-0.2L70.6,154.2z M70.6,154.2
				l-25.8,0.1l0-0.2l25.4,1.7l0.7,0l-0.5,0.5c-0.8,1-1.9,1.6-2.9,2.1c-1.1,0.6-2.2,1-3.3,1.3c-2.3,0.7-4.6,1.2-6.9,1.6
				c-4.7,0.7-9.4,1-14.1,1c-4.7-0.1-9.4-0.5-14-1.5c-2.3-0.5-4.6-1.2-6.8-2.2c-1.1-0.5-2.1-1.1-3-2c-0.4-0.4-0.8-1-1-1.6
				c-0.2-0.6-0.1-1.4,0.2-2c0.6-1.2,1.6-1.9,2.7-2.5c1-0.6,2.1-1.1,3.3-1.4c2.2-0.8,4.5-1.3,6.9-1.7c4.6-0.8,9.3-1,14-1
				c4.7,0.1,9.4,0.5,14,1.4c2.3,0.5,4.6,1.1,6.7,1.9c1.1,0.4,2.1,1,3.1,1.7c0.9,0.7,1.8,1.6,1.9,2.8l0,0L70.6,154.2z"/>
		</g>
	</g>
</g>
<g id="Fish2">
</g>
</svg>
